<mxfile host="drawio-plugin" modified="2025-02-26T13:48:44.275Z" agent="Mozilla/5.0 (X11; Linux x86_64) AppleWebKit/537.36 (KHTML, like Gecko) Chrome/122.0.0.0 Safari/537.36" etag="x7qPkyRNF7e6sHwrQyTH" version="22.1.22" type="embed">
  <diagram id="23iRSUPoRavnBvh4doch" name="Page-1">
    <mxGraphModel dx="1000" dy="492" grid="1" gridSize="10" guides="1" tooltips="1" connect="1" arrows="1" fold="1" page="1" pageScale="1" pageWidth="827" pageHeight="1169" math="0" shadow="0">
      <root>
        <mxCell id="0" />
        <mxCell id="1" parent="0" />
        <mxCell id="2" value="" style="shape=image;verticalLabelPosition=bottom;labelBackgroundColor=default;verticalAlign=top;aspect=fixed;imageAspect=0;image=data:image/png,iVBORw0KGgoAAAANSUhEUgAAAuIAAAKaCAYAAAB7kjyTAAAABHNCSVQICAgIfAhkiAAAABl0RVh0U29mdHdhcmUAZ25vbWUtc2NyZWVuc2hvdO8Dvz4AAAAvdEVYdENyZWF0aW9uIFRpbWUAV2VkIDI2IEZlYiAyMDI1IDA3OjMyOjUwIFBNICswNTQ1VQiEQAAAIABJREFUeJzs3XlYVNX/wPH3sAygCEO4sqSYuGcuZS6pqeSSpuYeZGqF4pLimiaSW2r6K1ywElTS1NTcyIVcKVS0NL8WmrmlYIKCxqKCMsD8/uDh5jQ47A7g5/U8Po/c5dwz594553PPPfeMys3NTccj3NzcuHr1KiJ/pLyEKcn1J8ozub6FEOWdmakzIIQQQgghxNNIAnEhhBBCCCFMQJXb0BQhhBBCCCFEybLIbaGMycs/GcMoTEmuP1GeyfUthCjvZGiKEEIIIYQQJiCBuBBCCCGEECYggbgQQgghhBAmIIG4EEIIIYQQJiCBuBBCCCGEECYggbgQQgghhBAmIIG4EEIIIYQQJpDrPOKFoVarcXBwwMbGBpVKVVzJGtDpdKSlpZGYmEh6enqJHaekPanyEv8qL9eOMGRlZUVGRgaZmZmmzoooBaR+FeLpVBbb+WLpEVer1Tg5OVGhQoUSr/RUKhUVKlTAyckJtVpdoscqKU+yvMS/ysO1IwzZ2tpy9OhRXF1dTZ0VUQpI/SrE06sstvPF0iPu4ODwxCs8lUqFg4MDt27deqLHLQ6mKC/xr7J87RSX2rVrM378eJo1a4aZmRkXLlxg/fr1hIeHFyidypUrs2rVKoYOHUpycnIJ5RbatWvH4MGDGTNmjMG6J/Vd8vX1xcXFhcmTJyvLpk6diqOjIx9++CEDBw5kypQpue6r1Wpp06YNBw4cQKPR5LrNihUr+Prrr3F0dOSHH34AIDMzk/j4eCIjI1mzZg3x8fHF/8HKGalfhRBlqZ0vlh5xGxub4kimzBy3qMpavhctWlSo/ezs7Pjoo4+KOTf/8vX1pX///nrL1Go1S5cupWHDhkb3LWvnoDhZWloSGBjInTt3GDJkCF5eXoSFhdG7d28sLS0LlJZarcbZ2bnEAx+NRkPlypVL9BhFtWvXLnr06EGPHj349NNPSUpKUv7u1asXAG+99Zay7MaNGwQGBip/b968WS89T09POnbsyOTJk3nuuef46quvMDc3N8VHK1PK2nfb29ubunXrFmrfwtbN+eHh4cHMmTNz/W5bWlqybNkyfHx89JZ3796doKAg1q5di6+vL1ZWVgb7uri4sHHjRtq1a6e3fPz48Qb1eWmyZMkS6tevr7dMrVazbNkyg/Zm8eLF9O7dm6pVq7JlyxacnJyA7HLbsmULAwYMULb19fXl1VdfzXc+CnPOR4wYwebNm9m0aZPyb8aMGQVOpyg0Gg2bNm1S/m7ZsiUbNmwAYMyYMfj6+upt/+yzz/Lll19iZ2dX6GOWlbqgWALx/DbCxd1Yl9VeD1OVV2FYWFhQvXr1Qu377LPPFnNu/tW8eXNcXV3ZsWOH3vL09HRWrlzJ6NGjsbB4/AOf0lC2puLk5ESVKlVYs2YN0dHRREdHs3XrVnx9fdFqtcp2NjY2+Pv7Ex4ezt69e/H19dUL1Ddu3KgEj99//z0REREGN14ajYZPPvmEAwcOcPjwYYKDg3nllVfyndcqVaoQERHB9OnTqVWrFhEREURERNC9e3eDbevWrcvq1as5evQoX3/9NdWqVdNb37ZtWzZt2kRERAQhISE0btw43/nIj7S0NOLj44mPjyclJYWsrCzl79u3bwNw+/ZtZVlGRgb37t1T/k5LS9NLT6vVkpaWxsWLF1m4cCGurq64u7sXa57Lo4J8t0tDPVDYIVVFqZvzotFoGDx4MF999RU6nc5gfW4Bc7169ejbty+zZ8/G29sbMzMzBg0apLeNSqXi/fff559//jHYf/Xq1XTt2hUXF5fi+yAlbNCgQZw9e5Y//vhDb3lqaqryL+fvHFqtlk6dOhXqproo53zPnj0MHjxY+ffJJ58UKp3icv/+fb3yebSMAGJiYjh8+DDDhg0r9DFKw/c7P4rtZc3/cnd35/333yckJISRI0fi6OjIrl27+O677wBo3Lgx77zzDlZWViQnJ7Ny5Upu3LgBQLVq1Rg9ejQajQaVSsUPP/zA3r17SyqrpUbv3r2xt7cnLi6Ofv36YWdnx7x58/jjjz9Qq9UMGzaMxo0bk5mZSWRkJFu3blUqyWbNmuHp6YmVlRUPHjxg3bp1nD17Nt/H7dSpEyqVijt37ii9pQ4ODixevBhra2uCg4MB2LdvH1u3bgWyhzeMGDGCSpUq8eDBA1avXq1USK1atcLHxwe1Wq3su2zZMqKioqhevToLFy5UvmAVK1YkJCQELy8vtFotlpaWjBo1ijp16mBmZsbZs2dZtWoVGRkZSp779+/Pjh07cn05748//uCff/6hffv2HD58uHAnoxyLjY3l1q1bjBgxgoCAABITE3Pdbu7cuaSmpjJo0CCsrKyYNWsWw4cPJygoCMjusXVyciI0NJRevXqRlJRkkMYHH3yAnZ0dgwcPJjMzk8aNG1OhQoV85zUhIYH27dvzxhtv8Pbbbxs07I/y9PTkk08+4caNGyxduhRPT08CAgIAaNCgAbNmzcLf35/z58/Trl07AgIC6N+/f4kOqSkuOde5vIxaeHm1ST169MDDwwOVSsXVq1cJDg5WgoOitEmPq18B5s2bR506dZg2bRqZmZlcvXqV+fPnA9nvPowdO1YJ1Hft2qUMWcqrbv7qq69YuHAh165dA7J7UTdu3MiZM2fyVb/27NmTkydPkpCQYPB5XF1dqV+/PuHh4Xo3u61atSI8PFxpx7dv386HH37IunXrlG06d+7M5cuXc32J7t69exw4cIA+ffoQGBiYr7IF422fsXbTw8ODhg0botVqcXZ2xtrammXLlhETEwNk31j4+Phgbm7O//73P4MbkkqVKuHh4aE3VC3H/fv39QLN+/fvK+uysrL466+/aNmyJcePH9fbz9rammHDhtGwYUN0Oh2//vorGzZsIDMzM89zXhRNmzZVyvDevXusWbOGK1euAMavpbzKsGvXrvTu3ZvU1FSOHDmSaxlBdiCeW8fZ3r17CQwMpHr16ty8edMgzx999BFjx44t80P2SiwQj4uLw8XFhX79+rFgwQLi4+OVu5NKlSoxadIkPv30U/7880/atGnDhAkTlAt68ODBHDlyhIMHD2JtbY2Pjw+HDx/mwYMHJZXdUiEuLg4PDw+uXLmCr68vDx48UMqsX79+PPPMM0ycOBFzc3Nmz55NTEwMP//8MwA+Pj7Mnj2b2NhYnn32WTw8PPIViNeoUYPXXnuNCRMmoNVqad++PU2bNuXQoUMkJiby4Ycfsnz5cry9vQ32HTFiBAcOHODQoUO8+uqreHt7M2HCBABOnDiBpaUl7dq1UxqW/OrQoQMqlYpx48ahUqnw8vKiVq1aXL58Gcgel1yrVi1++eWXx6Zx7NgxWrVqJYF4LrRaLSNHjmTy5Mns2bOH06dPs3v3bg4ePKg0xi4uLrRt25aOHTsq37svv/wSPz8/JRDPD41GQ2ZmJikpKWi1Wo4ePVoinwlgwYIFXLp0CYAzZ85Qs2ZNZZ2npyfbt29XGr5du3bRq1cv2rRpQ1hYWL6P8corr+iNo7eysjJoYIqbRqNhzJgx3Lhxg7/++qtEj1WeGWuTmjRpQo8ePZg+fTrJycl4e3szaNAgQkJCgMK3ScbqVwA/Pz+WL1/O8uXLuXjxot6+ffv25f79+4wZM4bq1avz+eef8/PPP5OYmJhn3WxMXvUrZAfVK1euNNhXpVLx3nvvsXr1apo3b663zsnJicjISOXvmzdv4ujoiFqtJj09HXt7ezw8PPD39881eAWIjIxk/vz5mJub5/um01jbZ6zd1Ol0vPjii3z44YfExcUxePBg+vTpw7JlywAYOXIkO3fu5KeffuLFF1+kW7duesdt3rw50dHRud6s5AThWVlZ3L17V+9Jo4WFBfv37+fNN980CMT79+9PhQoVGD9+PJaWlsyaNYuOHTty8ODBIp1zY+zs7PD19WX27NlcvXqVl19+mUmTJjFu3Di9m7PcGCtDBwcHhgwZwuTJk7l58ybvvPOO3r6pqal6gXhuTwju37/P77//zssvv0xoaKjeOq1WS3JycrnonCixecTv3buHhYUF+/btU+5Wcu4on3/+eW7cuMGff/4JZH/5NBoNNWrUALIf8TZv3pyaNWvy8OFDlixZUu6DcIC7d+/i6OjImjVrlM+bU2YtW7YkLCyMjIwMHj58SHh4OK1atVL2TUtLo3379lSuXJmYmBjWrFmTr2Omp6djZ2fHyy+/TMWKFYmIiFAaibx8/PHH/Pjjj0B2L/R/hwIUVmpqKm5ubjz//POYm5uzfv16vUbC3d2dmJgYo1MTXbhwgTp16hRLfsqjGzduMGHCBHr16sVPP/3EiBEjWL16tTKms169epiZmREaGsq+ffvYt28f8+fPp1KlSgU6zrJly3B0dGTv3r18/PHHvPjiiyXxcQB4+PCh8v+srCzMzP6t3urWrcugQYOUz7Jv3z6ee+45HB0dC3SMU6dO4eXlpfzbv39/seX/v9asWcPhw4cJCwvD2tqacePGlYtGx1SMtUktW7bkyJEjytORsLAwg/q1MG1SUerXjRs3KsHwzZs3SUpKomrVqgX6zLnJq361s7OjatWqyk3tozp37syFCxeUHs9HWVtbo9Vq8fLyYsWKFUr9bG1tDcCwYcPYuHGj0Xr777//JisrC2dn53x/HmNtX17t5pUrV4iLiwPg2rVrVKlSRSkDZ2dnjh07BmR/7x/t1QaoU6eOXrk9Kjg4mKioKADGjh2rt06lUvH777/j4OBgMCzppZde4sCBA+h0OtLT0/npp59o0aJFvsuiMJ5//nliYmK4evUqAD///DNqtTrfQ6YeV4b16tXj6tWrSk/2Tz/9pLdfQkICc+fOBbK/b7t37841/UuXLuXalp87dw5vb2/l6VJZVmI94pBdyeWc3EfZ2dlRq1YtVqxYoSwzMzNDo9EQFxfH2rVrGTBgAJMmTcLKyorQ0NCnYmiKTqfjzp07pKSkGKyzs7Nj9OjRyh2qhYWF8qgIsnsD+/fvz8KFC0lMTGTdunVKRWDMnTt3WLx4MT179sTb25uLFy8SFBSU613+f7Vo0YJu3bphYWGBhYWFXuBTFJGRkdja2vLWW28pvSwhISFKr4KdnV2ewwmSk5OpWLEiZmZmZGVlFUu+yqPbt2/z3XffERYWxr59++jQoQP79+9HpVKh1Wrp1q1brmNE8ys6OpohQ4ZQp04dOnbsyKJFi9i+fXuBHj0Xl5CQENauXVukNB48eEBsbKzyd2pqaom9EDR58mRiYmJITk7W61EThWesTWrTpo3y/oJKpcLS0lLpmS1sm1SU+tXV1ZVBgwZhb29PVlaWMiymqPKqX+3t7UlPTze40bC3t6dz5874+/vnmu6DBw+wsbHhwoULaLVaZQjagwcPaNq0KZmZmfz+++955i8lJaVAL+gZa/vyajcfHZecmZmptGEVK1YkPT1dr0f4v2OY7e3tHxuIP3qz8d93PyD7Ojxw4ABdunQxSPPRtu3u3btFelnxUT179qRnz57K3wcPHiQoKAiNRmPQnt69exd7e/t8pfu4MrS1tdW7efnvjYxOp1OuMWM970lJSfnOS1lVooE4kGsDkpSUxOXLl5k1a1au+zx8+JD169ezfv16XF1dmT59OpcuXcr1Dr28eVxvQWJiImvWrDF4KSTHrVu3WLFiBSqViubNmzNx4kS8vb3zfLQEEBUVRVRUFGq1mr59++Lt7Z3ncJJnnnmGDz74gBkzZvDXX3/h7OzMZ599lvcHxLC3MqfH5FH79+9n//792NnZMXbsWF5//XWDR1Oi8P776DfnMaGtrS2Q3QthZWVFvXr1lCdXuclJI68A4fLly1y+fJl79+4xfPjwAgfimZmZRQpCLl++TNOmTYsciD9J//zzj/KSpyg+j2uTwsLClPHi/1WUNqkw9StkzyJy8OBBpacwZ1xwfvy3jv3vexnG6tfH3Xi/8MILVK5cmSVLlihpmpubKzOH3LhxA2dnZw4dOsSpU6eoX78+8fHxpKen07JlSxo3bqx0vmk0GmrXrk3FihWVce+PKsjNv7G2L69283Hu37+PWq3GwsKCjIwMzMzMDALionRQAPz4448sWbKEc+fOKcv+G3Ta2dnl+u5NYezevVtvvH6OxMREg0C3UqVKynHzupYe59H2BHjstK35UdSyLu1M8hP3UVFRuLi4KDMAODk5MX78eGWM0OTJk5U3p+Pi4rh3754pslmq/PLLL3Tv3l3pfe7fv7/ymD9nmkBra2t0Oh3Xrl1Dp9Pp9QRbWFgQHBxMmzZt9NJt0qQJw4cPR6VSkZ6ebvDIMS0tDXNzc6pXr465uTkODg5A9t2uVqtVtu/cuTMqlUpvAv0HDx7g5OSEhYUFarVaGdaQlJSEpaUlzzzzDACtW7fWO2afPn2U6ZxSUlIMeo+Sk5Pz7CWwt7fn7t270hueiy5durBx40ZeffVVatSoQf369Zk9ezbW1tbKo9jo6GiOHTvGzJkzqV+/PjVq1GDo0KF07NhRL62EhASSkpLo3r07Go2GF154QbmxsrS0ZPbs2XTo0AGNRoOzszNt27YlOjq6wHm+dOkSLi4uNG3aFI1GQ7NmzQq0/6ZNm2jdujVeXl5UrlyZ5s2b4+fnJ9MBCiD7cXz79u2VeqVVq1Z6M4Pkp02aPn26wQwPedWvkF3Hurq6KvMe5wQ9lSpVUgL9tm3bYm1trddp8bi6GbJv4nKmzHN3d9cbgpVX/ZqSkoJarTboIImIiMDb25sxY8YwZswYQkNDiYyMVMZUHzt2jHbt2uHk5ISVlRV9+vQhIiICgKCgIHx8fJR9z507x9q1a3MNwu3s7HJ9Kty3b18WLFhgsK2xts9Yu2lMSkoKt27dokOHDgB07NjR4GXClJSUIvXU3rt3j9OnT9OkSRNl2cmTJ3nttddQqVRYWVnx6quv6r0LZeycF9bZs2d59tlnqVWrFgBt2rQhNTWV69evA8avJWMuXrxI7dq1cXFxQaVS0blz50LlL7cee4D69evz9ddfG0wpWRaVeI94bu7fv8/nn3+Ot7e38gjo22+/VXrXDh06xPjx45ULPyIi4qnoDTdm586dDB06lICAAKysrDh79qzyaDQlJYVz587x6aefkpWVhVarJTAwUC8IValU2NvbG/zS1J9//km7du1YunQpmZmZygw2OVJTU9m7d6+S9m+//caSJUuUF14WL17M3bt32bJlC/Xq1WPmzJnMnDkTgN9//52EhARCQkJ4+PAhO3fuZPfu3aSnp7NlyxZmzZrFrVu3OHHihN4jrcjISMaMGUOfPn0A+Ouvv/ReqLt06RI1a9ZUXgLKTd26dZW3voW+8PBwnJ2dGTVqFK6urqSnpxMVFYWPj4/ejx/MmDGDSZMmERgYiEqlIioqSu9lLMjuLcnZbsyYMcTExODv78+lS5fIyMjg119/ZfTo0bi6upKUlERUVBTz5s0rcJ4vXbpEYGAg8+fPx9bWlrNnzzJx4sR8vzsSFRXF1KlT8fHxYfTo0cTFxbFr164yM72VKFnnzp1jz549zJkzBxsbG27duqX3UnJ+2iRbW1sqVqyotyyv+hWyp/4cNmwYQ4cO5fbt28yYMYO0tDS2bNnCBx98QGJiIidOnGD//v14e3sze/Zs4uPjH1s3A2zdupXhw4fj4eHBX3/9xfnz5/Ndv6akpBAfH4+7u3u+hjfmuHLlCt999x2zZs3CysqKX375he3bt+d7f0D5TYKcmVceZWNjY9ABk1fbZ6zdzMtXX32Fj48PAwcO5MiRI0RHR+v1DF+6dAkPD48Cfb7/2rdvn94c4lu3buXdd99l6dKl6HQ6IiMjlZsZeHx7XBQpKSkEBAQwZswY1Go1ycnJfPbZZ0o8ZuxaMubOnTts3LgRf39/0tPT2bZtmzJ7UEF6uB83Fr9Bgwb8888/Rp/YlhUqNzc3vRJxc3PLdQydMW5ubsWaqYIoaF6LW1krr/Ji3rx5hIWFKT24/zV79mzCw8OVl0lzY+prpzgU5voToqyQ+tU0PD09sbW1LdAMScVh4MCBVKlSRe/9sdLK1taW5cuXM2XKFBlCVkIqVKhAYGAg06dPN/iFzGnTpvHrr79y4MABo2mUhfbRJENThCiqbdu28eabb+Y6tKBhw4Y4OjqW6FR5QghRXu3Zs4eWLVsqM2A8Cba2trz22mvs3LnziR2zKO7du8ehQ4fo27evqbNSbvXo0YMzZ84YBOEqlQoXFxe9pwVlWbEE4qYaSF9WB/CX1XyXJv/73/+4fv06b775pt5ytVrNyJEj+eKLL4y+qCrnQIjySb7bRZecnMymTZvw8fF5YsO33n33Xfbt25frsJTSasuWLTRq1MjgJ+5F0T377LN06tSJr7/+2mCdpaUlwcHBelPW5qas1AXFMjSlWrVqBfq1vOKSmppqcKf0pJWl8hL/Kg3XTnGQoSmiPJP6VQhRWGWlnS+WHvHExMQnfueh0+ke+9PcpZ0pykv8qyxfO0II46R+FUKUpXa+WALx9PR0YmNjSU1NLfEKUKfTkZqaSmxsrNFf6CrNnmR5iX+Vh2tHCGGc1K9CPL3KYjtfbNMXpqenl4lHAKWFlJcQQpQMqV+FEGWFzJoihBBCCCGECUggLoQQQgghhAlIIC6EEEIIIYQJSCAuhBBCCCGECUggLoQQQgghhAlIIC6EEIVkZ2f3xH55UAghRPkjgbgQQhTS0qVL6d+/v6mzIYQQooySQFwI8Vg+Pj6MGjWqSGm0a9eOFStWFFOOSh/pERdCCFFYxfaDPkKI8qdatWqkpaUVKQ2NRkPlypWLKUdCCCFE+SGBuBBPIY1Gw5QpU2jZsiXm5uZcuXKFtWvXcvToUQC6dOmCn58farUanU5Hz549ARg0aBBxcXEANGzYkClTpvDcc8+RkZHBqVOnWLBgAYmJiQBUqVKFbdu2YWFhgbm5OREREQAsWLCAsLAwAF599VWmT59O165dlbyFhIQQFhbGli1b8pXX/KpZsyYTJ06kadOm3Lt3j8jISFasWEFSUhIAlpaWjBs3jm7dumFlZcXx48dZsGCBsh7gtddeY+zYsVSsWJHw8HCsrKwMjtO2bVs++OADnJycuHLlCp999hlnz54tUF6FEEI8HSQQF+Ip9MEHH2BnZ8fgwYPJzMykcePGVKhQQVm/f/9+9u/fz8cff0xaWhqLFi0ySCM2Npbly5dz5coVbG1t8fPzw9fXl48//hiAhIQE2rdvzxtvvMHbb7/NoEGDSiSv+WFvb09QUBBHjhzhrbfewsrKitdff11vmwkTJvDCCy/w/vvvk5aWhr+/Px999BFTp04FwN3dnblz57JgwQL2799Phw4dlBuUHA0aNGDWrFn4+/tz/vx52rVrR0BAAP379yc5OblQn18IIUT5JYG4EE8hjUZDZmYmKSkpaLXaAvcuAyQlJXH69GkAkpOT2bt3L0OGDCnurBZLXnv27IlWq2XBggVkZmYC6I1bt7S05I033uCjjz4iOjoagGXLlrF+/XqqVKlCQkICffr04dy5c4SGhgLwww8/GNxceHp6sn37do4fPw7Arl276NWrF23atFGeAgghhBA5JBAX4im0bNky5s2bx969ezl69Ch79uzh1KlTBUqjUqVKDB06lFatWmFtbU3FihV5+PBhqcxr/fr1OX/+vBKE/1eNGjWwtrbm6tWryrJr166hUqlwdXUlISGB2rVrc+XKFaPHqVu3Lu3ataNPnz7KMktLSxwdHQuUXyGEEE8HCcSFeApFR0czZMgQ6tSpQ8eOHVm0aBHbt28nMDAw32nMmTMHlUrF2LFjSUpKonv37owcObJU5lWlUqHT6R67PidAz20bC4vsatLMzIyMjIw8jxUSEsLatWvznTchhBBPL5m+UIin2OXLlwkODiY4OJhevXoZrM/KysLMLPdqomXLloSGhuq9zJibzMzMx07xl5WVZbDucdvmlVdjLl++TN26dTE3N891/c2bN3n48CFubm7Kstq1awPZPeMA169fx9nZOc/jNG3atEB5E0II8fSSQFyIp4ylpSWzZ8+mQ4cOaDQanJ2dadu2rTI2+lGXL1+mefPmuLi4ULVqVerXr6+si46OplWrVpibm+Pq6sqwYcOoVKmS0oOc49KlS7i4uNC0aVM0Gg3NmjVT1t24cQM7OztlesM+ffrQoEGDQuXVmN27d2NnZ8eHH36Iq6sr7u7ujB8/XhkykpmZyY4dOxg5ciRubm44OTkxfvx4fvzxR+Lj4wHYt28fL730Eu7u7gB07txZL68AmzZtonXr1nh5eVG5cmWaN2+On5/fY28AhBBCPN3MHRwcZj26wMHBIc8eLvEvKS9hSoW5/nQ6HZUqVeK9995j9OjRdOnShb///pv58+dz7949vW0vXLhAvXr1mDBhAn379kWn03HixAkAzp07x4ABAxg3bhwtWrTg888/x8nJidTUVKUXGeCff/4hLS2NCRMmMHToUFxdXTl06BAZGRkkJiZiY2PDlClTeP3110lISCA5OZm4uDjOnTtXoLwak5qayvHjx+natSs+Pj506tSJ2NhYTp48yYMHDwD43//+R4MGDfD19aVfv3788ccffPLJJ2i1WiB7lpi0tDQ+/PBDunfvjqWlJSkpKcTExHDu3DkA4uPjuXjxIp6envj4+NCsWTNOnjxJVFQUWVlZBTpPQupXIUT5p3Jzc9MbFOnm5qb3wpIwTspLmJJcf6I8k+tbCFHeydAUIYQQQgghTEACcSGEEEIIIUxAAnEhhBBCCCFMQAJxIYQQQgghTEACcSGEEEIIIUxAAnEhhBBCCCFMQAJxIYQQQgghTEACcSGEEEIIIUxAAnEhhBBCCCFMQAJxIYQQQgghTEACcSGEEEIIIUxA5ebmpnt0gZubm6nyIoQQQgghxFPDIreFV69efdL5KLPc3NykvITJyPUnyjO5voUQ5Z0MTRFCCCGEEMIEJBAXQgiDNgyMAAAgAElEQVQhhBDCBCQQF0IIIYQQwgQkEBdCCCGEEMIEJBAXQgghhBDCBCQQF0IIIYQQwgQkEBdCCCGEEMIEcp1HvDDUajUODg7Y2NigUqmKK1kDOp2OtLQ0EhMTSU9PL7HjlLQnVV7lTXk5/08rtVqNmZkZDx48MHVWRDkm9asQ/5J2s3Qrlh5xtVqNk5MTFSpUKPFKT6VSUaFCBZycnFCr1SV6rJLyJMurvCkP5/9p9uKLL7Jr1y5TZ6NQvv/+e06cOMEvv/zC3Llzi5SWmZkZmzdvZtiwYcWTOaGQ+lUIfdJulm7FEog7ODg88QpPpVLh4ODwRI9ZXExRXuVNWT7/pUHt2rVZunQpERERHD16lNWrV9OxY0dTZ6tU69WrF61atWLTpk1FTisrK4szZ85w7dq1omfMCB8fH0aNGlWixwBYsWIFr7zySokfJz+kfhUid9Julk7FEojb2NgURzJl5rhFVVbzXRRt2rRh5syZBss9PDyYOXOmQcPp4eGBv7+/0Qb1aSzH4mBpaUlgYCB37txhyJAheHl5ERYWRu/evbG0tDR19p4aCxYs4McffyzRY1SrVo1KlSqV6DEAXF1dsbKyKvHj5MfTWC9oNJpcbxCfffZZvvzyS+zs7JRltra2bNmyBXd3dzp27EhQUJCyrmnTpixfvlz529zcnC1btlC1atV85eP//u//WL16NcHBwQbrRowYQXBwMJs3b8bZ2bkgH69QpkyZwuuvv26w3Nvbm7feeqtIaVevXp3g4GDWrl2Lr6+v0W0f1/atXLmShg0b6i0zdm4g+2nP0qVLDfYriKfx+1HaFUsgnt/eh+LupSirvR6mKq/SRqPRMHjwYL766it0Op3euoMHD2JmZkanTp0eu395L5+S4uTkRJUqVVizZg3R0dFER0ezdetWfH190Wq1ynY2Njb4+/sTHh7O3r178fX11QvUJ06cyLhx45gwYQLr169nz549DBkyRO9YlSpVYtGiRURERLBp0yZatGhhkJ8uXbqwefNmjh07xo4dO5gyZQr29vYF+kwTJ05kz549REZGsn379lwb4Lxs2LCBnj17smLFCo4dO8aGDRuoX79+gdJo2LAhISEhREREcPjwYRYtWmTQA/XZZ59x4sQJfv75Z1atWmWQxquvvkpwcDB9+vRh7dq1hIaGMn/+fMzNzfOdjy5duhAREUH37t158803iYiIICIigho1auht17ZtWzZt2kRERAQhISE0btxYWWdmZsbq1auZMWOGsuztt99m+/btStA9depUIiIiqF69OnPmzCEiIoItW7bkO58loSD1QnmvQ0aNGsU333xDSkqKsuz+/fvodDpSU1OVf8Vl8uTJzJ49O9d1QUFBeHt7c+/evWI7njE3b96kcuXKBssdHR25detWgdN79Fq5efMm3t7efPvtt4XOX0ZGBllZWXrL8jo36enprFy5ktGjR2NhUbhX/Mr7NV8WFdvLmv/l7u7O+++/T0hICCNHjsTR0ZFdu3bx3XffAdC4cWPeeecdrKysSE5OZuXKldy4cQPI7sUZPXo0Go0GlUrFDz/8wN69e0sqq6VG7969sbe3Jy4ujn79+mFnZ8e8efP4448/UKvVDBs2jMaNG5OZmUlkZCRbt25VAthmzZrh6emJlZUVDx48YN26dZw9ezbfx+3UqRMqlYo7d+4ovaVg/DwFBQWxZcsWWrduTZUqVTh16hTr1q0DsntS3n//fZo2bUpSUhLnzp0zOG7Pnj05efIkCQkJueZr69at+Pj4EB4eblBhicKLjY3l1q1bjBgxgoCAABITE3Pdbu7cuaSmpjJo0CCsrKyYNWsWw4cP1+ulGThwIB9++CEBAQE0adKEoKAgQkNDlYbfz8+PqlWrMmjQIDIyMgzGVteoUYO5c+cyceJETp8+TZUqVejataveDUF+HDp0iM2bN5OcnEzr1q2ZM2cOUVFRXL9+vUDp+Pj48NFHHxEdHc20adNYuHAhffv2zff1Fxsby/Lly7ly5Qq2trb4+fnh6+vLxx9/rGwzadIkADw9PR97o/nCCy9w8uRJhg8fjpWVFbt376Zt27ZERETkKx/79+9n//79fPzxx6SlpbFo0SKDbRo0aMCsWbPw9/fn/PnztGvXjoCAAPr3709ycjJZWVnMmzeP9evXs337duLj43nvvfeYOHEiDx8+BGDRokUsWrSI77//nqVLl3Lo0KF85c8U8mqTevTogYeHByqViqtXrxIcHKwEQkVpk4zVr1WrVsXb25uqVaui1WrZvHkzJ0+eBMDX15cbN27w3HPP4ejoSFJSEp999pnyonPXrl3p3bs3qampHDlyxOC4zZo1o0KFChw/flxvuU6n48GDB9y/f5/U1FTu37+f7zI0lt+iqFatGiNGjKBKlSpkZGQQGhrKTz/9VKQ04+LiaNKkiZLv9PR0kpKSeOaZZ4iLiwOyh5t16tQJMzMzrl+/zsqVK5W6y1h7bEx+2j6AzMxMg3ouP+fmjz/+4J9//qF9+/YcPnxYb52lpSUbNmzgiy++KPGnbaL4lNj0hXFxcbi4uNCvXz8WLFjAO++8w9atW4HsXrJJkyaxZs0axo8fzw8//MCECROUfQcPHsyRI0cYP348U6dOpW7dulhbW5dUVkuNuLg4XnrpJRo1aoSvry+enp6cP38egH79+vHMM88wceJEpk2bRosWLWjZsqWyr4+PDwEBAYwbN47AwEC9dcbUqFGD1157jcmTJzNu3DjCw8Np2rQpkPd5ysrK4rnnnmPu3LlMnz4dDw8PqlevDkDLli2pW7cu48ePZ+bMmdStW9fg2K1atSIyMvKxeTt79izW1tY899xz+fosIn+0Wi0jR46kUqVK7Nmzh8DAQLp166bXw+Li4kLbtm2ZP38+8fHxXL9+nS+//NKgp/nIkSMcO3YMgIsXL2Jubk61atWA7CceHTt25MsvvyQuLo6EhATlRi2HnZ0dZmZmpKamkpaWRkxMjF4AlF+//fYbN27c4N69exw4cIDbt28XuDcb4JtvvuH3338nOTmZ4OBgnJ2dqVWrVr73T0pK4vTp0yQnJ3Pjxg327t1LgwYNCpyP5ORkgoKCyMrKIi0tjb///hsnJ6cCp2OMp6cn27dv5/jx4yQlJbFr1y6uXbtGmzZtlG2uXr1KSEgIU6dOxdfXl7CwMP73v/8Vaz6eFGNtUpMmTejRowezZs3C19dXuQHNUdg2yVj9CvDBBx/wxx9/MH78eBYvXsyoUaOUJyhZWVm89NJLBAQEMHXqVKysrGjbti2QPQ5+yJAhzJkzh8mTJ+f6BKl169ZERkYaPG2E7J7XwgTixvJbFOPHj+fXX39l3LhxLFy4kGHDhhV5+MqtW7eUHvGxY8fi5eUFQOXKlbl16xbNmjXDw8MDPz8/xo0bx+3btxk+fLiyv7H22Jj8tH2QXQ9nZGQYLM/PuTl27BitWrUyWK7T6UhOTpaZUcqYEgvE7927h4WFBfv27SM+Ph5AqRCef/55bty4wZ9//glAZGQkGo1GeWyalpZG8+bNqVmzJg8fPmTJkiVPxXRnd+/exdHRkTVr1iifN6fMWrZsSVhYGBkZGTx8+JDw8HC9L2JaWhrt27encuXKxMTEsGbNmnwdMz09HTs7O15++WUqVqxIRESE0quV13kClB66+/fvEx8fr4wlbNiwIadOnSI9PZ2MjAxOnDihd1w7OzuqVq3KpUuXjObv4sWL1KlTJ1+fReTfjRs3mDBhAr169eKnn35ixIgRrF69WhlyUK9ePczMzAgNDWXfvn3s27eP+fPnG4w3frSnOKd3J+fRZ61atVCpVFy5cuWx+bhw4QIrV65k2bJlhISE4OXlhUajKfDnadWqFUuWLGHLli1s3bqVypUrF+rR7aMNY05ves7NZX5UqlSJsWPHsn79erZu3cro0aMLNUvBf3vgtVotZmbFW13XrVuXQYMGKed33759Su/ro77++mvs7Oxo3bq13vjhssZYm9SyZUuOHDlCcnIyAGFhYQb1a2HaJGP1q52dHXXr1mXPnj1AduAYFRWlN3zrl19+4eHDh+h0Oq5du6bUr/Xq1ePq1avcvHkTINfe4zp16jy2fp00aRJarZa//vqLzz77TG9dlSpVCA4OJjg4mK+++kpZnp/8FoaDgwO1a9dm//79AMTHxxMVFUWzZs2KlG7O0BS1Wo21tTVubm6o1WrUajWJiYm89NJLHDt2TBkqc/DgQZo3b67sb6w9Niavti9HZmZmroG4sXOT48KFC7m2ixkZGXh7exvt4BKlT4kNTYHsi/bq1asGy+3s7KhVqxYrVqxQlpmZmaHRaIiLi2Pt2rUMGDCASZMmYWVlRWho6FMxNEWn03Hnzh298Xw57OzsGD16tPLFtbCw0JtxYcGCBfTv35+FCxeSmJjIunXriIqKyvOYd+7cYfHixfTs2RNvb28uXrxIUFAQCQkJeZ4nyG6gcmRlZSnBgq2trdLYAQZ39vb29qSnp+fZmCUnJz+Rl82eVrdv3+a7774jLCyMffv20aFDB/bv349KpUKr1dKtW7d8NT65yRnTnFtj86hVq1axYcMG2rZty5tvvsmwYcN4++238z2Os1GjRnz22WdMmzaNo0ePotPp2LlzZ6Hy/KicG4rMzMx87zNnzhxUKhVjx44lKSmJ7t27M3LkyCLnpaSEhISwdu1ao9u4uroqTy6aN2+uPAEpi4y1SW3atFFmflGpVFhaWmJubk5mZmah2yRj9WvODWdAQICyvZWVlV69bqx+fbROza3n1M7OTrmx+K+cdHU6nTLMKMft27fx8/MDsuv7nGA8P/ktDHt7e1JTU/XqiZSUlAK/J/Jft2/fpmLFijRs2JDLly9TvXp16tWrx61bt9DpdNjb2+sNXUtOTsbGxgZLS0u0Wq3R9tiYvNq+HI/rETd2bh7Na8WKFTEzM5Nhm+VAiQbiQK5jPZOSkrh8+TKzZs3KdZ+HDx+yfv161q9fj6urK9OnT+fSpUt59p6WB497pJSYmMiaNWseOz7t1q1brFixApVKRfPmzZk4cSLe3t55BkEAUVFRREVFoVar6du3L97e3syfPz/P82TMvXv3sLW1Vf7+b6Va2OBOFI+cACNHzmPQnHN26dIlrKysqFevnvJEpKByGjknJyeSkpKMbpuWlsbBgwc5fPgw+/fv55VXXmHbtm35Os6LL75ITExMruNki8LNzQ3AYJy5sWu3ZcuW+Pn55fl5n5RHg7f/unz5Mk2bNjUaiJubm+Pv709ISAharZbp06czcOBAg6FDxo5T2jyuTQoLC1PGi/9XUdqkx9WviYmJZGVlMW7cuALd7AF631WgUE+RHken0ynX76MvCBclv8YkJSVRoUIFLCwslPbKzs5O6ewpLJ1OR3x8PC+//DLnz58nKSmJl19+WXmKkJycrDebjEajITU1Ve/6KMwQj7zavhyzZ88u8LswonwySc0ZFRWFi4sL7u7uQHZDPX78eOVLP3nyZFxcXIDscVpP6i3r0uyXX36he/fuWFhYYGFhQf/+/XnxxReB7Erro48+wtraWnmEqdPp9O6ULSwsCA4O1hv/CdljI4cPH45KpSI9PZ2YmBhlXV7nyZgLFy7QsmVLbGxsqFChgsFxU1JSlEeGxtjb2z+2V0cUTpcuXdi4cSOvvvoqNWrUoH79+syePRtra2ultzM6Oppjx44xc+ZM6tevT40aNRg6dGiB5hqPj4/nzJkzeHl5KT8o8egYTID27dszYcIE3NzcqFSpEh4eHtja2updh3mJiYnB2dmZmjVrYm5uztChQ6lRo4bBEIv8GDhwII0aNcLZ2Zlx48Zx5swZYmNj9ba5efMmdevWxdXVFWdnZ71GNzo6mlatWmFubo6rqyvDhg2jUqVKhZ7hoKguX75M8+bNcXFxoWrVqnrj5jdt2kTr1q3x8vKicuXKNG/eHD8/P73vt5eXF1ZWVmzevJlt27aRmJjIuHHjDI5z6dIlXn31VZ555hnc3NyeyPR0xennn3+mffv2SmDWqlUr+vfvr6zPT5s0ffp0gx9oMla/3r17lwsXLtC9e3cAKlasyKhRo5R3LIy5ePEitWvXxsXFBZVKRefOnQ22SU5OLnKv8qPym9/MzEwsLCweOzuHTqfTm30pp8PntddeA7Jf3Hz++ec5deqUso2trS2bN2/Gw8OjQHm+desWTZs25fz585w/f54WLVooT9p++eUX2rZtq3x/u3btyi+//FKg9LOysgyGnuXV9uWoW7cuFSpUKNDxctjb23P37l2D3nALCwtWrVpFnz59CpWuMA2TtA7379/n888/x9vbm4oVK5Kens63336r3GUfOnSI8ePHK41XRETEU9EbbszOnTsZOnQoAQEBWFlZcfbsWeXRaEpKCufOnePTTz8lKysLrVZLYGCg3pdUpVJhb29vUGn8+eeftGvXjqVLl5KZmanMjAJ5nydjTpw4wQsvvMDy5cv5559/OHr0qN74u5SUFOLj43F3dzc6hMbd3T3fPaMif8LDw3F2dmbUqFG4urqSnp5OVFQUPj4+esNBZsyYwaRJkwgMDESlUhEVFVXgsYf+/v7MmjWL3bt38/fffxMeHq4XjF+8eJGuXbuyatUq1Go1169fZ/HixQWaieHHH39kx44drFmzhszMTMLCwpg5cyZvvvkm69evL1B+f/vtN6ZNm0atWrU4e/as8oj+UTt27KBZs2Zs3LiRlJQUZs+erTTgc+bMYebMmYSHh3Pt2jUWLVrE0KFDadeuHeHh4UD2/MEvvPACKpUKMzMzTpw4wZ07d+jRo0eB8pofW7duxd3dnXXr1pGVlcWePXuUJxxRUVFMnToVHx8fRo8eTVxcHLt27VICqJo1azJixAjGjBmjfOc//fRTVq1axb59+/Re2gwICGDmzJmEhoaSnJxMYGCgMrtSWXDu3Dn27NnDnDlzsLGx4datW3qzA+WnTbK1taVixYp6y4zVrwCBgYGMGDGCbt26YW5uzuHDh/M1JOvOnTts3LgRf39/0tPT2bZtmzIzS84Tm0uXLuHu7s7p06cLXS7/lZ/83r59m4SEBOUpyscff6x3M3vq1Cnmzp3LgwcP2LhxI+Hh4SxbtgwfHx+6d++OVqslKChIL91GjRqRkpJS4JlUYmNjcXFxISEhgZSUFDQajdIjfubMGQ4ePMi8efMwMzPjr7/+ynU6UWMuXrzIwIEDWbVqFSkpKUycODHPti/HhAkTWLx4caGeONatWzfXd29q166tvIsgyg6Vm5ub3nNWNze3XMfQGZPzCNcUCprX4lbWyqs08fT0xNbW1uBHC3I0atSIUaNG8cEHHzx2OICpz7+pFeb6E7nbsGED27dvlxu/UkTq18Jr2rQpQ4cOZeLEiWV+KOC7775LYmIiO3bsMHVWSoXZs2cTHh5uMEXhG2+8wXPPPceSJUuM7i9tRulSNgb1iXJpz549tGzZkipVquS6vn///uzYsaPMNyJCCPGknTlzhrS0NFq3bm3qrBTZo7OqPO0aNmyIo6MjR48eNVhXv359fvjhBxPkShRFsQTipgqUymqAVlbzXdySk5PZtGkTPj4+BuMJO3fujE6nM/jBgkdJOYrilJqayt27d02dDVFEUi/866uvvmLIkCF6LyWWRX5+fgWa77y8UqvVjBw5ki+++CLXiRh+/PHHPIe6yPej9CmWoSnVqlUr9EsHRZGamlqon6otTmWpvMqb0nD+TU2GpojyTOpXIYqXtJulT7H0iCcmJj7xuyydTvfYn+Yu7UxRXuVNWT7/QoiSI/WrELmTdrN0KpZAPD09ndjYWFJTU0u8AtTpdKSmphIbG1tmf8b1SZZXeVMezr8QouRI/SqEPmk3S7dim74wPT1dHncUgJSXEEKUDKlfhRBlhcyaIoQQQgghhAlIIC6EEEIIIYQJSCAuhBBCCCGECUggLoQQQgghhAlIIC6EEEIIIYQJSCAuhBBCCCGECUggLoQQQgghhAlIIC6EEEIIIYQJSCAuhBBCCCGECUggLsRTKCAggOPHj9O/f3+6dOnCzp07OXHiBK+99pqyjY2NDf7+/oSHh7N37158fX2xtLRU1qtUKkaOHMmePXs4cuQIGzduxMvLCzOzf6uVDRs20LNnT1asWMGxY8fYsGED9evX18tLs2bNWLduHceOHWPnzp1069ZNb/2GDRvo0aMHixYtYuPGjezcuZOWLVvqbVOvXj1WrlxJREQEe/fuZdGiRdSuXVtvm7Zt27Jp0yYiIiIICQmhcePGRS5HIYQQoigkEBfiKTRhwgS+++47OnbsyIABAxg5ciSXLl0iJSVF2Wbu3LlYWFgwaNAgRo4cyfPPP8/w4cOV9d27d6dPnz6MHTuWrl278sknn2BhYUFWVpbesXx8fFi5ciWvv/46MTExLFy4UAnWq1evzrJly9i9ezevv/46y5cvx9/fH3d3d7003n//fQIDA/H09CQ0NJRx48bprf/000/57bff6NatG8OGDePnn39GrVYr6xs0aMCsWbNYunQpvXr1Yvv27QQEBGBvb19sZSqEEEIUlATiQjzFWrRogb+/P7du3eLXX38lNjYWABcXF9q2bcv8+fOJj4/n+vXrfPnll7z++uvKvhqNhqysLO7evUtqairnzp1j7dq1Bsf45ptv+P3330lOTiY4OBhnZ2dq1aoFQI8ePbh27RpbtmwhOTmZQ4cOERkZyYABA/TS2LBhAzExMQBcuHCBGjVq6K3XaDSkp6eTmppKfHw827Zt488//1TWe3p6sn37do4fP05SUhK7du3i2rVrtGnTpljKUQghhCgMC1NnQAhhOqdOnSIuLg6AJUuWKMvr1auHmZkZoaGhyjKVSoW5ubny986dO2ncuDE7d+7k119/JSwsjEOHDqHVavWOkZGRofz/+vXrQHZP+F9//UXt2rW5du2a3vbXrl0zGDai0+n00nt0+AuAn58ffn5+9OzZk8OHDxMaGkp0dLSyvm7durRr144+ffooyywtLXF0dDReQEIIIUQJkkBciKdYcnJyrstVKhVarZZu3brpBcGPSk1N5aOPPqJKlSp06NABb29vBgwYgLe3t8HwlEfTBcjMzARAq9UaBNUqlQoLi4JVTUePHqVHjx40a9aMrl278u233zJ16lSOHj2qbBMSEpJrj70QQghhKjI0RQhh4NKlS1hZWVGvXr08t01ISGDr1q1MmzaNJk2aULNmzcdu6+bmBvzbMx4dHa0sy1G7dm2uXr1a4DxnZmZy6tQpPvnkE44dO6Y3jOby5cs0bdq0wGkKIYQQJUkCcSGEgejoaI4dO8bMmTOpX78+NWrUYOjQoXTs2FHZZsSIEQwYMIDq1avj4OBA9+7dSUtLIyEhQS+tgQMH0qhRI5ydnRk3bhxnzpxRxqLv2rWL2rVrM2DAADQaDV26dOHll19m27Zt+c6rs7Mzn3zyCU2aNMHOzo5GjRrRsGFDZUw5wKZNm2jdujVeXl5UrlyZ5s2b4+fnpzfURgghhHjSZGiKEE+hgIAAWrVqhUqlol27drz77rtcvnxZb5sZM2YwadIkAgMDUalUREVFERkZqaz/+eefGTNmDOPGjSM9PZ0rV64wYcIE7t27p5fOb7/9xrRp06hVqxZnz57Fz89PWXf79m2mTJnC+PHjmTBhAn///TfTp0/Xe9EyL3fu3CEuLo4FCxbg4OBAfHw8Bw8eZM2aNco2UVFRTJ06FR8fH0aPHk1cXBy7du1ShsoIIYQQpqByc3PTGwDq5uZWqMfCTyspL2FKpf3627BhA9u3by9QD7cQOUr79S2EEEUlQ1OEEEIIIYQwAQnEhRAlJjU1lbt375o6G0IIIUSpJGPEhRAlxtvb29RZEEIIIUot6REXQgghhBDCBCQQF0IIIYQQwgQkEBdCCCGEEMIEJBAXQgghhBDCBCQQF0IIIYQQwgQkEBdCCCGEEMIEJBAXQgghhBDCBCQQF0IIIYQQwgRUbm5uukcXuLm5mSovQgghhBBCPDVy/WXNq1evPul8lFlubm5SXsJk5PoT5Zlc30KI8k6GpgghhBBCCGECEogLIYQQQghhAhKICyGEEEIIYQISiAshhBBCCGECEogLIYQQQghhAhKICyGEEEIIYQISiAshhBBCCGECuc4jXhhqtRoHBwdsbGxQqVTFlawBnU5HWloaiYmJpKenl9hxStqTKq/ypryc/6eVWq3GzMyMBw8emDorohyT+lWI4iFtbskrlh5xtVqNk5MTFSpUKPFKT6VSUaFCBZycnFCr1SV6rJLyJMurvCkP5/9p9uKLL7Jr1y5TZ0OUY1K/ClF8pM0tecUSiDs4ODzxCk+lUuHg4PBEj1lcTFFe5U1ZPv+lQe3atVm6dCkREREcPXqU1atX07FjR1Nny+ReeeUVTp48qfz7/vvvlXUqlYphw4axc+dOjh8/zp49e5g2bRoajUYvDS8vL77//nuOHDlCcHAwDRs2NEh/2rRpyrKmTZty4MCBkv9wTwmpX4UoftLmlpxiCcRtbGyKI5kyc9yiKq35njZtGgMGDHiix/Tw8GDmzJkGDaeHhwf+/v5GG9TSWo6lnaWlJYGBgdy5c4chQ4bg5eVFWFgYvXv3xtLS0tTZM6njx4/TqVMnOnXqxPz58/XWDRgwAC8vLxYvXkzv3r2ZMWMGzzzzDC1atFC2GTx4MJ6ensyZM4d+/fpx9OhRVqxYQbVq1ZRt4uPj6datm1y/JaS0lqsp6tdnn32WL7/8Ejs7O4N1jRo14osvvuCLL77grbfeeqL5Kg/atGlDnz59TJ0NxYoVKwgKCmLGjBm51uP5aVPzUlq/W2VdsYwRz++JValU6HS64jhkgY5b2piqvPKybt06Hj58+MSOp9FoGDx4MNOnTzf4nAcPHuSVV16hU6dOHDp0KNf9y+r5NzUnJyeqVKnCmjVr+PvvvwGIjo5m69atevhEGL0AACAASURBVNvZ2NgwZcoUOnbsSFpaGvv372fFihVotVoAJk6cSEZGBubm5rRo0QIHBwc2bdrEN998o6RRqVIlZs6cSatWrYiNjeXYsWMG+enSpQvvvfceLi4uxMfHExkZSVBQEMnJyfn+TBMnTqRz5844ODhw8+ZNVq1axd69ewtcNpmZmdy9exfAYBz7Cy+8wIkTJ5TPEB8fz5kzZ5T1ZmZmvPvuuyxfvpxTp04BsHbtWtq3b8/gwYNZunQpALGxsVhbW9OlSxdCQ0MLnEdhXEHqhSdZxz7p+hVg1KhRfPPNN6SkpBise+ONN9i+fTsHDx58onkqL1xcXPI9ZvpJXGdjxoxBpVLx6aef8vzzz3P69Gm99flpU/MibW7JKLaXNf/L3d2d999/n5CQEEaOHImjoyO7du3iu+++A6Bx48a88847WFlZkZyczMqVK7lx4wYA1apVY/To0Wg0GlQqFT/88EOhGtWypnfv3tjb2xMXF0e/fv2ws7Nj3rx5/PHHH6jVaoYNG0bjxo3JzMwkMjKSrVu3Kl/uZs2a4enpiZWVFQ8ePGDdunWcPXs2z2OamZmxcuVKIDvwCg0NVc5RXulWq1aNESNGUKVKFTIyMggNDeWnn34Csu++GzZsiFarxdnZGWtra5YtW0ZMTIySds+ePTl58iQJCQm55m3r1q34+PgQHh5OVlZW4QpVGIiNjeXWrVuMGDGCgIAAEhMTc91u7ty5pKamMmjQIKysrJg1axbDhw8nKChI2WbgwIF8+OGHBAQE0KRJE4KCgggNDVUafj8/P6pWrcqgQYPIyMhg7ty5eseoUaMGc+fOZeLEiZw+fZoqVarQtWtXJdjPr0OHDrF582aSk5Np3bo1c+bMISoqiuvXrxewdB7v9OnTjBo1irZt2xIZGWnQsD733HM4ODhw4sQJveUnTpygQ4cOyt8VKlRg27Zt9O3bVwLxJyivNqlHjx54eHigUqm4evUqwcHBpKamAoVvk/KqX42la21tzbBhw2jYsCE6nY5ff/2VDRs2kJmZiZOTE9OnT+fQoUM0a9YMR0dHNm7cSGRkpJJ2s2bNqFChAsePH881b9bW1vzzzz8FKkNj+e3cuTPNmzdn8eLFALz00kv06dOHGTNmANCgQQOGDh2Kvb099+/fZ+3atURFRQFQuXJl3n//fWrWrElmZiZhYWHs2bNHOa6xc2OsjbK0tGTUqFHUqVMHMzMzzp49y6pVq8jIyFDS9vLyok2bNowZMybf5fDOO+/QpUsXsrKy6NGjB5AdCKenp6NSqVi3bh3Tpk3jvffew83NjejoaGbNmgXAV199xcKFC7l27RoAixYtYuPGjZw5cybPdj4vuv9n787Dqqj+B46/L6vKdklEBU0wRSw1NTNyzTKXbLHEr6b5Vb+JkpqAS4mhqbik/kwTl4zScstcIVTCjQQ1t8oCywQVSUBwAVRAtnt/f/AweQMuFwWvwuf1PD3hzNxzzpyZe85nzpyZq9Vy48YNatWqVep6fX1q27ZtmTZtGuPHjyctLc3guhD3r8oC8ZSUFBo1asSAAQOYP38+aWlpytWUjY0NkyZNYsGCBZw9e5ZOnTrh5+fH5MmTgaLbu9HR0ezfv59atWrh7e3NwYMHq/2bFlJSUujZsyfnz5/H19eXO3fuKHU2YMAAHnvsMSZOnIipqSmzZs0iMTGR48ePA+Dt7c2sWbNITk7m8ccfp2fPngYF4hqNBi8vLwDefffdEuv1pevj48Phw4fZs2cPjo6OLFiwgPj4eJKSktBqtXTo0IEPP/yQlJQUBg8eTP/+/Vm2bJmStoeHh9JJlSY2NpZatWrxxBNPEBcXZ3hFCr3y8/MZM2YMkydPZvfu3fzyyy/s2rWL/fv3Kx1Uo0aN6Ny5Mz169FC+d6tWrSIgIEAnEI+OjlZGiM+dO4epqSn169fn5s2bqNVqevTowfvvv09KSgpQNCo4a9Ys5fO2traYmJiQnZ1NTk4OiYmJBAcHV3iffvvtN+Xvffv2MWHCBNzd3Ss1EN++fTtmZmYEBASg0WjYt28fO3bsUC4u69Wrp3SEd7t27ZrO1BRLS0t++OEHfH19cXNzq7TyCf309Ult2rShX79++Pv7k5mZiZeXF4MGDWLt2rXAvfdJ5bWv+tL19PSkTp06+Pj4YG5uzsyZM+nRowf79+9Ho9FQr1490tPT+fjjj2ndujXjx4/XCcSff/75Ui8Yi93L6Oa91oO1tTVTpkxh/vz5xMXF0aZNG6ZMmcKYMWPIyclhwoQJnDhxgk8++YTHHnuMhQsXcvHiRf74449yj42+Pqp79+6oVComTJiASqVi6NChuLi4EB8fr5QtJyen1DsG+qxbt446depw5coVQkJCdNZptVquXLmCj48P69evJyYmxuC6Lq+fN1RZ+enrU/Pz88nMzKSwsLBCeYn7V2XvEb99+zZmZmZEREQoV1fFDULr1q1JSkri7NmzABw9ehS1Wk3Dhg2Boi9G+/btadKkCbm5uSxdurTaB+EAt27dom7duqxZs0bZ3+I669ixI+Hh4RQUFJCbm0tkZCQeHh7KZ3NycujWrRsODg4kJiayZs2aSilTWena29vTtGlT9u7dCxTdpo+JiaFdu3bKZ8+fP68EYAkJCdSrV09ZZ2tri6OjY7kB9rlz52jWrFml7Iv4R1JSEn5+frz++uscOnSI0aNH89VXX2FpaQlAixYtMDExITQ0lIiICCIiIpg3bx42NjY66dw9qlI8il3cCbi4uKBSqTh//nyZ5fjrr79YvXo1y5YtY+3atQwdOrTEw4+G8PDwYOnSpWzZsoVt27bh4OCAmVnljzN89913vPrqq8yYMQNbW1s2b95Mr169gLI7v3/fljYzMyM7O5u9e/fy1ltvyd2eB0Rfn9SxY0eio6OV6VDh4eEl2teq6JP0pfvss8+yb98+tFoteXl5HDp0SOd5BK1WS3R0NFDUvtrb2+uc882aNSuzfW3cuDHOzs4kJydXWnn1adOmDZcvX1bK8/vvvzN27Fju3LmDnZ0dbm5u/PDDDwDcuHGDCRMm8NdffwGGHZuy+r7s7GxcXV1p3bo1pqambNiwQScIB9ixYwf+/v4Vqofy3L59m9jYWGXE39AR7fL6eUNcvnyZZ599tsw3nJTVp545cwYvLy+uX79eofzE/auyEXEoOvkuXrxYYrmtrS0uLi6sWLFCWWZiYoJarSYlJYVvvvmGgQMHMmnSJCwtLQkNDa0RU1O0Wi3Xr18v9erc1taWsWPHKiOWZmZmyq0tgPnz5+Pp6cknn3xCeno669atUxqB+1FWunZ2dmRnZ+vc4rt58yZ2dnbKv4tvHULR3FsTk3+u++zs7MjLyyu3Ec/MzCwR/InKc+3aNbZu3Up4eDgRERF0796dvXv3olKpyM/Pp0+fPvc8t9HU1BRA5xwpzZdffsnGjRvp3Lkzb775JiNGjOCdd94hNTXVoHyeeuopFi9ezNSpUzl8+DBarbbEKNW9MDMzKzVILiws5Oeff+bnn3/mxo0bjB49mr1793Lt2jVUKhWPPfaYznSrunXrlrovISEhLF++XN6Y8gDp65M6depEly5dgKKLJ3Nzc0xNTSksLKyyPklfunZ2djrPSdy6dUvnocvc3Fzl/Cz+/90Xg7a2tqU+Z9G9e3fGjRvHV199xZUrVyqtvPrY29uXKMvt27eVdf/uS+7uO8o7Nvr6vqNHj2Jtbc3bb7+Nk5MTR48eZe3atRWe+lZRGo2m1POsPOX184b47rvvCAwMVAY2/k361IdPlQbiQKknfEZGBvHx8cqcqX/Lzc1lw4YNbNiwgcaNG+Pv709cXFyNmJ5Q1sMf6enprFmzhj/++KPU9ampqaxYsQKVSkX79u2ZOHEiXl5e5QZB5Skr3YyMDOrUqYOZmZmSh62trTICXp4H+RCqKKm4EyuWnZ1NVlYW1tbWAMTFxWFpaUmLFi2UO1cVVTwtxMnJiYyMDL3b5uTksH//fg4ePMjevXvp0qUL27dvNyifDh06kJiYqIwOVpYnnnhCZ8Tw33UGRd+P4jqLj49X5qjf/dpDDw8PTp48WSL92NhYkpOT6dq1a6WWW+hXVp8UHh6uM3/7blXVJ+lLNyMjQ2dgw9bWttzvkSEOHTpEUlIS/v7+HD9+vEJp6iuvRqNRLr5B9w0b6enpOvsC4OzsTGpqKhkZGVhZWen0JQ4ODty5c4fbt2+Xe2zK6/v27t3L3r17sbW1Zfz48bzyyisP5NmMsoJ9jUajMyhVp04d5e/y+nlDvPrqq2RmZupMARQPN6P8xH1MTAyNGjWiefPmQFFH7ePjo3yJJ0+eTKNGjYCieX3FV8412YkTJ+jbty9mZmaYmZnh6elJhw4dgKIGetq0adSqVQutVktCQgJarVZnNM/MzIzg4GA6depkcJ760i2+mHr55ZeBood4Wrdurbwtojw3b97EwsKizIdKiv17VEjcv169erFp0yZeeOEFGjZsiLu7O7NmzaJWrVrKfO9Lly5x5MgRpk+fjru7Ow0bNmT48OEVetd48VtFhg4dqvwoxMiRI3W26datG35+fri6umJjY0PPnj2xtrbWeai3PImJiTg7O9OkSRNMTU0ZPnw4DRs2pG7duganYWpqyoQJE2jbti3169enT58+DBgwQOmwTU1NWb9+PT4+PjRv3hxnZ2d69+6Nl5eXMj2rsLCQdevW8f7779OtWzdcXFwYN24cTZs2ZfPmzaXmGxISwksvvWRwOUXVOH78ON26dVNGnD08PPD09FTWG9In+fv7M2LEiArlqy/dkydP8vLLL6NSqbC0tOSFF17gxIkTBqedmZlZIvgtFh8fT3JyMq6urpVW3hs3btCgQQNUKhUqlYrnnntOWffvPv+pp54iMDAQU1NTMjIyOHfuHH379gWKRsjnzZuHs7MzoP/YlNf39e/fnxdeeAEo6nNKezHAW2+9xfz58ytUD1A0ePD4448DRXPgy+vLit24cQMnJyeg6AHiu9spff28oZo3b86RI0fIyckpdX1Zfaq7uztff/017u7uFcpP3L8qHxEvTVZWFp9++ileXl5YWVmRl5fHt99+q4w2HThwAB8fH2W+W1RUVI0YDdcnJCSE4cOHs2TJEiwtLYmNjVVuCd68eZMzZ86wYMECNBoN+fn5LF++XCcQV6lU2NnZVeiXscpLd9myZXh7e9O3b1/y8/P54osvDJ5OcPPmTdLS0mjevLneKTTNmzc3eGRUGCYyMhJnZ2fee+89GjduTF5eHjExMXh7e+scv48++ohJkyaxfPlyVCoVMTExOg+DGWLGjBnMnDmTXbt2cfnyZSIjI3WC8XPnztG7d2++/PJLLCws+Pvvv1m0aFGpI8hl+fHHH9m5cydr1qxR3rgwffp03nzzTTZs2GBQGiYmJmRkZDBt2jQaNWrEtWvXCA4OJiIiAigKsgMDA3n33XdZtWoVVlZWpKamsm3bNp05qevWrcPU1JQPPvgAtVrN2bNnGTduXJlvIQgPD2fChAlldpriwThz5gy7d+9m9uzZ1K5dm9TUVJ2Hkg3pk6ytrbGysqpQvvrS3bZtG//73//47LPP0Gq1HD16lKioKIPTjouLo3nz5iVeY1essLCwwg9s6itvTEwMly9fZtGiRVy/fp2YmBg6d+4MFE2rWbx4sdLnZ2VlERgYqLzOMSgoiFGjRilT4TZs2KDMEdd3bMrro44ePcq4ceOU931fuHCB8PBwnX2qXbt2qe9ZL09kZCQTJ05kw4YN3Lx5k6CgIP78889yP7dt2zZGjhxJz549uXDhAn/++acyQq6vnzeUiYmJ3jvhZfWpLVu25MaNG/d8B1TcO5Wrq6vOHAFXV9cKz22q6FV1ZbqXeViV6VGrL328vb1JSUl5YK9UGzJkCNbW1jod3t2eeuop3nvvPd5///0yp7IY+/gb272cf0I8KqR9vXdt27Zl+PDhTJw4sdT2c+bMmXz//fdlBuri0TR16lSioqJKHTTR16dOnTqVn3/+udxnVqS/qXxGmZoiHh729vaYmppSr1492rZtq/cNF5Vt9+7ddOzYUedtKnfz9PRk586dMp9cCPFIMmb7evr0aXJycnj++edLXZ+RkaFMkRDVQ/HrY8v6bYiy+lSVSkWjRo0qdMdFVJ5KmZqi1WqN8otLj2qAZqz6Ks3w4cNp3749ubm5REREGPTu8cqSmZnJ5s2b8fb2Zs6cOTrH86WXXkKr1XLw4MEyP/+oHn8hRNWR9vUfn3/+Of7+/sTGxpZ4G1dISAiTJk3itdde49ChQ2zatOmBlk1Urs8//xwzMzNiY2NLnV6ir081NzcnODi43F9+lT63alTK1JT69evrPPn7oGRnZxs8J7mqPEr1Vd08DMff2GRqiqjOpH0V4uEhfW7VqJSpKenp6Q/8Skmr1ZZ5++VhZ4z6qm4e5eMvhKg60r4KUfmkz606lRKI5+XlkZycTHZ2dpU3gFqtluzsbJKTk8t85/bD7kHWV3VTHY6/EKLqSPsqROWRPrfqVdrrC/Py8uSWRQVIfQkhRNWQ9lUI8aiQt6YIIYQQQghhBBKICyGEEEIIYQQSiAshhBBCCGEEEogLIYQQQghhBBKICyGEEEIIYQQSiAshhBBCCGEEEogLIYQQQghhBBKICyGEEEIIYQQSiAshhBBCCGEEEogLUQMtWbKEn376CU9PT3r16kVISAjHjh3j5ZdfVrapXbs2M2bMIDIykj179uDr64u5ubmyXqVSMWbMGHbv3k10dDSbNm1i6NChmJj806xs3LiRV199lRUrVnDkyBE2btyIu7u7TlnatWvHunXrOHLkCCEhIfTp00dn/caNG+nXrx8LFy5k06ZNhISE0LFjR51tWrRowerVq4mKimLPnj0sXLiQpk2b6mzTuXNnNm/eTFRUFGvXrqVVq1b3XY9CCCHE/ZBAXIgayM/Pj61bt9KjRw8GDhzImDFjiIuL4+bNm8o2gYGBmJmZMWjQIMaMGUPr1q0ZOXKksr5v377079+f8ePH07t3b+bOnYuZmRkajUYnL29vb1avXs0rr7xCYmIin3zyiRKsN2jQgGXLlrFr1y5eeeUVgoKCmDFjBs2bN9dJY9SoUSxfvpwhQ4YQGhrKhAkTdNYvWLCA3377jT59+jBixAiOHz+OhYWFsr5ly5bMnDmTzz77jNdff50dO3awZMkS7OzsKq1OhRBCiIqSQFyIGuyZZ55hxowZpKam8vPPP5OcnAxAo0aN6Ny5M/PmzSMtLY2///6bVatW8corryifVavVaDQabt26RXZ2NmfOnOGbb74pkcf69ev5/fffyczMJDg4GGdnZ1xcXADo168fCQkJbNmyhczMTA4cOMDRo0cZOHCgThobN24kMTERgL/++ouGDRvqrFer1eTl5ZGdnU1aWhrbt2/n7NmzyvohQ4awY8cOfvrpJzIyMggLCyMhIYFOnTpVSj0KIYQQ98LM2AUQQhjPqVOnSElJAWDp0qXK8hYtWmBiYkJoaKiyTKVSYWpqqvw7JCSEVq1aERISws8//0x4eDgHDhwgPz9fJ4+CggLl77///hsoGgm/cOECTZs2JSEhQWf7hISEEtNGtFqtTnp3T38BCAgIICAggFdffZWDBw8SGhrKpUuXlPVubm507dqV/v37K8vMzc2pW7eu/goSQgghqpAE4kLUYJmZmaUuV6lU5Ofn06dPH50g+G7Z2dlMmzaNevXq0b17d7y8vBg4cCBeXl4lpqfcnS5AYWEhAPn5+SWCapVKhZlZxZqmw4cP069fP9q1a0fv3r359ttv+eCDDzh8+LCyzdq1a0sdsRdCCCGMRaamCCFKiIuLw9LSkhYtWpS77dWrV9m2bRtTp06lTZs2NGnSpMxtXV1dgX9Gxi9duqQsK9a0aVMuXrxY4TIXFhZy6tQp5s6dy5EjR3Sm0cTHx9O2bdsKpymEEEJUJQnEhRAlXLp0iSNHjjB9+nTc3d1p2LAhw4cPp0ePHso2o0ePZuDAgTRo0AB7e3v69u1LTk4OV69e1UnrP//5D0899RTOzs5MmDCB06dPK3PRw8LCaNq0KQMHDkStVtOrVy+ee+45tm/fbnBZnZ2dmTt3Lm3atMHW1pannnqKJ598UplTDrB582aef/55hg4dioODA+3btycgIEBnqo0QQgjxoMnUFCFqoCVLluDh4YFKpaJr167873//Iz4+Xmebjz76iEmTJrF8+XJUKhUxMTEcPXpUWX/8+HHGjRvHhAkTyMvL4/z58/j5+XH79m2ddH777TemTp2Ki4sLsbGxBAQEKOuuXbvGlClT8PHxwc/Pj8uXL+Pv76/zoGV5rl+/TkpKCvPnz8fe3p60tDT279/PmjVrlG1iYmL44IMP8Pb2ZuzYsaSkpBAWFqZMlRFCCCGMQeXq6qozAdTV1fWebgvXVFJfwpge9vNv48aN7Nixo0Ij3EIUe9jPbyGEuF8yNUUIIYQQQggjkEBcCFFlsrOzuXXrlrGLIYQQQjyUZI64EKLKeHl5GbsIQgghxENLRsSFEEIIIYQwAgnEhRBCCCGEMAIJxIUQQgghhDACCcSFEEIIIYQwAgnEhRBCCCGEMAIJxIUQQgghhDACCcSFEEIIIYQwAgnEhRBCCCGEMAKVq6ur9u4Frq6uxiqLEEIIIYQQNUapv6x58eLFB12OR5arq6vUlzAaOf9EdSbntxCiupOpKUIIIYQQQhiBBOJCCCGEEEIYgQTiQgghhBBCGIEE4kIIIYQQQhiBBOJCCCGEEEIYgQTiQgghhBBCGIEE4kIIIYQQQhhBqe8RvxcWFhbY29tTu3ZtVCpVZSVbglarJScnh/T0dPLy8qosn6r2oOpLVI7qct5VJZVKhY2NDTdv3jR2UR5qlpaWFBQUUFhYaOyiVFvSvopHkfQzNVOljIhbWFjg5OREnTp1qrzRU6lU1KlTBycnJywsLKo0r6ryIOtLVI7qcN5VNXNzcw4cOEDTpk1LrJs2bRqfffaZEUr1cLG2tubw4cM0btzY2EWptqR9FY8q6WdqpkoJxO3t7R94g6dSqbC3t3+geVYWY9SXqByP8nl3t/Xr13Py5ElOnDhBREQES5cupWXLlpWSdmnn9l9//cWZM2cqJf175eDgQEhICHZ2dkbLR773VU/aV/Goqy79jDBMpQTitWvXroxkHpl879ejWu7yLF26FHd3d51l7u7urF+//oGWY+HChXrXW1hYsGzZMp588kmd5Y8//jirVq3C1tZW7+ery/Fbvnw5Xbp0YdiwYVy4cIGVK1fi6OhYJXlt376dL774okrSNpSFhQXOzs5VHqQ9qHxE6arL9/PfRo8ezYABA0os37x5M0888cQDK4eXlxdubm56t/H19cXT01Nn2YgRI5g2bRoAK1eupGfPnmV+fvLkyfTo0UP59//93//x1VdfERwcfB8lL9299FHW1tZs2bKF5s2b06NHjxJtm6F9iT7V9TwWJVVKIG5oh1PZHdOj2tEZq74MVZn5Xrp0iZkzZz6wPM3MzGjQoIHebQYNGkRsbCx//PGHzvLExEQOHjzIiBEj9H7+UT3v/q2wsJC8vDzS0tIICgrCxMSE5557Tllfu3ZtZsyYQWRkJHv27MHX1xdzc3NlvUqlYuzYsRw4cIBdu3bx9ttvl8hj6NChHDt2jGPHjnHy5ElMTU111rdp04aoqCj27duHra0tixYtIioqii1btuhsN3z4cHbv3s3BgwdZuHAhDg4OJfJ65513CA0NJTo6mnXr1ul05Js2beK7774D4PvvvycqKkoJCoqp1Wrmzp3Lvn37OHjwIMHBwXTp0qUCNWpYPgBubm589dVXHD58mK+//pr69evrrG/SpAkrV64kOjqa7du389prr1WoHDVZRb6fxvguV3ae06dP5/Llyw8sz/KmVbVv357GjRuzc+dOneXZ2dlkZ2eX+PvfWrRoQYMGDfjxxx+VZZMnT2bWrFn3V/AyGNpH3S0rKwutVqvsx7/3xdC+RJ/q0s+I8lXaw5r/1rx5c0aNGsXatWsZM2YMdevWJSwsjK1btwLQqlUr/vvf/2JpaUlmZiarV68mKSkJgPr16zN27FjUajUqlYoffviBPXv2VFVRHxpvvPEGdnZ2pKSkMGDAAGxtbZkzZw5//PEHFhYWjBgxglatWlFYWMjRo0fZtm0bWq0WgHbt2jFkyBAsLS25c+cO69atIzY2ttw8VSoV69atY+rUqbz77ru4urrqNEz6jlOLFi3w9vbG1NSUX3/9VSkLFAXEq1atQqVSYWlpybBhw3TynTZtGvv27aN9+/Y8++yzWFtbM3jwYIBy97V379688sorWFpakpSUxOrVq0lLS8Pe3p5FixZRq1YtZeQkIiKCbdu2Kfna2NjQs2dPJk+eXGp97Nmzh+XLl9OgQQOuXLliyGGrFrRaLSqVSqfxDwwMJDs7m0GDBmFpacnMmTMZOXKkMvozcOBA3nzzTSZOnEhcXByjR48uke7GjRvZuHEjbm5ubNy4scT633//nX79+nHw4EECAwPZv38/u3fv1jlfhgwZwssvv4yvry/Xr19n9OjRzJkzB29vb2WbkSNHMnjwYGbPns3Zs2dp06aNzmjUkCFDcHJyIjQ0lNdff52MjIwSZXn//fextbVl8ODBFBYW0qpVK+rUqVOhejQkn+Lt5s6dS1JSEp999hlDhgxhyZIlQNEF0MqVK9mwYQPTpk3DxcWFhQsXkpSUxC+//FKh8oh/lNcn9evXj549e6JSqbh48SLBwcFKgHWvfVJ57aujoyNeXl44OjqSn5/Pd999x8mTJ4GiC0NfX18cHBxISkoiJyeH69evK2n7+/vTtGlTbG1tmTZtGufPn1fW3U9f0rJlS4YPH46dnR1ZWVl88803xMTEADBnzhyaNWvG1KlTKSws5OLFi8ybN09nnz09Pdm5c2eJh5ENDcSHDh3Krp48YQAAIABJREFUpk2bdPoTfdq2bav0fbdv32bNmjVKXdja2uLj44OTkxMJCQmkpaWRm5vLpk2byu2jvvjiC7Zs2cLzzz9PvXr1OHXqFOvWrQOK2ss7d+6QlZVFdnY2WVlZJcqlry8xNzdn48aNrFy5UueCQ9RMVRaIp6Sk0KhRIwYMGMD8+fNJS0tTOnkbGxsmTZrEggULOHv2LJ06dcLPz08JjgYPHkx0dDT79++nVq1aeHt7c/DgQe7cuVNVxX0opKSk0LNnT86fP4+vry937txR6mzAgAE89thjTJw4EVNTU2bNmkViYiLHjx8HwNvbm1mzZpGcnMzjjz9Oz549DQrEtVotV65cwcfHh/Xr1xMTE2PwcRozZgwhISEcOnSIDh060KdPHyXdgoICpYNZvHhxiXyTk5N555132L9/P2PGjNFpdPXta+vWrXn11VcJCAggMzOTwYMHM3bsWGbOnEl6ejoffvghQUFBeHl5lbq/7du359KlS1y9erXU9VlZWfz+++8899xzhIaGllt/1YGpqSnDhg1Do9Fw5MgRABo1akTnzp3p0aOH8r1btWoVAQEBSiD+1ltvsXPnTn777Teg6Hbz0KFD77kcaWlphIWF0bJlS3766Sdl+dChQ5k1axZxcXEALF68mKioKBwdHUlLS8PU1JR33nmH5cuXK+WPjIyscP5qtZrCwkJu3rxJfn4+hw8fvud9Kc/8+fOV/Tl9+jRNmjRR1vXu3ZuUlBS+/fZbZf327dt55ZVXJBC/D/r6pDZt2tCvXz/8/f3JzMzEy8uLQYMGsXbtWuDe+yR97SsUXfz98ssvzJ07l/r16zN//nzi4+NJT09nwIABpKamMnPmTOrWrcuiRYv4+++/lc/Onz8fgBUrVpS6r/fSl1hbWzNlyhTl/GzTpg1TpkxhzJgx5OTkEBAQQFBQEEFBQZw7d65Evg4ODri4uHDixIkS67KyspSAtaxAvGPHjmg0GoPPc1tbW3x9fZk1axYXL17kueeeY9KkSUyYMIGCggLeeustMjMzCQwMpHHjxsyaNYu9e/cC5fdRGo2GJ554gsDAQKysrFi1ahV79+5Vguri/SkrENfXl2i1WjIzM+XNKAKowveI3759GzMzMyIiIkhLSwNQgq3WrVuTlJTE2bNnATh69ChqtZqGDRsCkJOTQ/v27WnSpAm5ubksXbq02gfhALdu3aJu3bqsWbNG2d/iOuvYsSPh4eEUFBSQm5tLZGQkHh4eymdzcnLo1q0bDg4OJCYmsmbNGoPzvX37NrGxscqohyHHydbWFmdnZyXwOXXqVKmNkb48c3NzCQsLo7CwEI1Go6zTt68eHh5ER0eTmZkJwLZt21iwYIHB+TZr1oz4+Hi928TFxdGsWTOD03xUeXl5ERERQXR0NF27dsXb21sZcWvRogUmJiaEhoYSERFBREQE8+bNw8bGBiga6XNxcSm3LisiLCwMgD///JMvv/wSKAqOHR0dmTt3rlKOXbt2kZeXp8xnLz4fDbnw1GfZsmXUrVuXPXv28PHHH9OhQ4f72yE9cnNzlb81Gg0mJv80xW5ubrRs2VLZ34iICDw9PeXhrfukr0/q2LGjTrsSHh5eon291z6prPbV1tYWNzc3du/eDUBqaioxMTE888wzADz55JNK+3r9+vUSU+n0ude+pE2bNly+fFm5SPz9998ZO3aswfvavHlzEhMTSw0wo6OjlSlnn376aYm2w9TUlLfffpsNGzYYvJ+tW7cmMTGRixcvAnD8+HEsLCyU6TPu7u5KHf79998VqkOAqKgooCioTktL03mGZtKkSeTn53PhwoVSA3kouy8pvgg4evRohcojqqcqGxGHoi9+8Rfkbra2tri4uOhcyZuYmKBWq0lJSeGbb75h4MCBTJo0CUtLS0JDQ2vE1BStVsv169dLfQ+zra0tY8eOpaCgACia+pGQkKCsnz9/Pp6ennzyySekp6ezbt06peEvj0ajqfBxAsjLy1PKA5R5q7E0Wq2WCxculLpO376q1Wqd+ZAFBQU6ZSiPnZ1ducFjRkZGlb9Z42GwceNGwsLC+Pzzz4mMjFQuuKAo0M7Pz6dPnz6l3iIunsZSme/C1vf+cT8/vzID7cqaS3np0iWGDRtGs2bN6NGjBwsXLmTHjh0sX768UtI3lEql4tSpU/j4+DzQfGsCfX1Sp06dlGcCVCoV5ubmmJqaUlhYeF99Ulnta3E7WjwlCYreMV/c1llbW+sMblRkoONe+xJ7e3vlYqTY7du3Dc7X1ta2xOeL3d1Olxaov/jiiyQmJlbo4l6tVpfI79atW0r7/e86TE9PNzhtKLoAK/bvC+bidVqtVufC+m41pS8R96dKA3GA/Pz8EssyMjKIj48v8wGJ3NxcNmzYwIYNG2jcuDH+/v7ExcUpV+nVWVm3qtLT01mzZk2ZV/SpqamsWLEClUpF+/btmThxIl5eXgYHqRU9Tra2tlhYWGBmZkZBQQEmJiYVfkK8tDxB/75mZmbqNGzm5uY4Ojoq89bLY+i8Q0O3e5RlZ2eTkpLCzJkzWb58OadOnVKC8bi4OCwtLWnRooVOgF5Mo9GQkpKCk5NTlZYxMzOTa9eu8fTTT5cZiF+5coWcnBxatmypt40ovmgoL3CPj48nPj6e27dvM3LkyAoH4obmU5a4uDh69uyJpaVlmR28uHdltXXh4eHKfPF/u98+qbQ809PT0Wg0TJgwodQL2qysLKytrZV/q9VqZSTfEPfSl6Snp5cIHJ2dnUlNTa3QgEdFWVpa8tZbb1X4gczSymtjY6M8m5GdnY2lpaWyzsHBoUIXNJWhJvQl4v4Y5SfuY2JiaNSoEc2bNwfAyckJHx8f5Y0KkydPplGjRkDRXLeKXJFXVydOnKBv376YmZlhZmaGp6encuu8+GGdWrVqodVqSUhIQKvV6kz3MDMzIzg4mE6dOhmcp77jdPPmTVJTU+nevTsAPXr0wMyscq7r9O3rsWPH6NKlixL09+/fn5EjRyqfzcnJwdTUlAYNGmBqalridv7NmzfLHaEobZSlOvv111/ZunUr8+bNU16ZdenSJY4cOcL06dNxd3enYcOGDB8+XOdNJD/88AOvv/46NjY2mJiYMG7cuEovm1ar5dtvv2XkyJF07doVBwcHevXqxahRo5Rt8vPz2bJlC++99x6dO3emYcOGvPTSSwwcOFAnratXr5KRkUHfvn1Rq9U8/fTT1KpVCyi6oJs1axbdu3dHrVbj7OxM586duXTpUoXLrC8fQ+zdu5eCggKmT5+Ok5MTTzzxBNOmTVOm7onKd/z4cbp166a0Kx4eHjqv3zOkT/L396/QWzJu3brFX3/9Rd++fQGwsrLivffeU96g89dff9GtWzdUKhWPP/44LVq0uNfd06Gvff13m//UU08RGBio87ajnJwcGjdurLzr+u5R4szMzHt6Zd/rr7/OqVOn9D4gX1hYiJmZmc4FbmxsLI8//jguLi4AdOrUiezsbGUufXx8PB06dEClUtGwYUNlvx6UsvoSMzMzvvzyS/r37/9AyyMeTlU+Il6arKwsPv30U7y8vLCysiIvL49vv/1WGRU4cOAAPj4+SmAXFRVVI0bD9QkJCWH48OEsWbIES0tLYmNjlVujN2/e5MyZMyxYsACNRkN+fj7Lly/XCcRVKhV2dnYV+rWu8o7T559/jre3N//5z3+Ijo7m0qVLSqP87rvv4uHhgUqlwsLCQnmLyYIFC8q99ahvX3///Xd2795NYGAgFhYWXLp0iWXLlimfzc7OZs+ePUpd/PbbbyxdulRZXzzaqI8h88irmxUrVvD8888zZcoUZs+eDcBHH33EpEmTWL58OSqVipiYGJ05jV999RWOjo5s376dy5cvEx4eXmJ60ujRo/nf//6n/Lt4vuagQYO4dOkSbdq0UUac169fT1RUFB999JFOGuvXr8fExIQPPvgAtVrN+fPn+eabb3S2WbVqFbm5ufj7+2NnZ8f58+f56quvdLbRaDTKPo0bN47ExERmzJhBXFwcBQUF/Pzzz4wdO5bGjRuTkZFBTEwMc+bMqXBd6svHELdv32bs2LFMnjyZzZs3c+vWLY4cOVIjnpMxljNnzrB7925mz55N7dq1SU1N1Xk3tCF9krW1NVZWVhXKd/ny5YwePZo+ffpgamrKwYMHSU1NBYqef/Hx8SE4OJjz589z+PBhpX3t0qULw4cPB/4ZiNFoNISEhChzzsuir329desWixcvVtr8rKwsAgMDde7MfP/994wYMYLhw4dz7do1PvroI2WaRlxcHE2aNMHCwsLgBxFtbW3p2bMnU6ZM0bvdtWvXuHr1KmvXriU/P5+PP/6Y5ORklixZwrhx47CwsCAzM5PFixcrfdT27dvx8/Nj5cqVnDt3juPHjysj1PfTRxmqrL6kadOmWFlZKXPQRc2mcnV11blv4urqWup8Nn1cXV0rtVAVUdGyVrZHrb5qOmtra4KCgpgyZQrXrl0rsb5OnTosX74cf39/pUMsjbHPu2L3cv4J8aiQ9vXRM2fOHMLDw5WL7ofJ6NGjSU5OZteuXVWel76+5LXXXuOJJ57QGSQqjbTtNYNRpqYIYSy3b9/mwIEDvPXWW6Wu79evH6dPn9YbhAshhCjd9u3befPNN0v8eJcxtGnThoULF2Jubk6dOnVo06bNA7vbqa8vcXd354cffngg5RAPv0oJxI31MMKj+hDEo1ru6mLLli089dRTpf7E/YsvvsjXX3+t9/Ny/IR4eMn307h+/fVX/v77b958801jF4XY2Fji4+NZtmwZCxcu5NChQ6U+fF7ZyutLfvzxx3LLIedxzVEpU1Pq169f4V+gqwzZ2dlGH7l8lOpLVI6H4bwrJlNTRHUm7auoqR6mfkZUrUoZEU9PT3/gV29arbbC7wR9WBijvkTleJTPOyFqAmlfxaNO+pmapVIC8by8PJKTk8nOzq7yBlCr1ZKdnU1ycvIj+/OwD7K+ROWoDuedEDWBtK/iUSX9TM1Uaa8vzMvLk9soFSD1JYQQVUPaVyHEo0LemiKEEEIIIYQRSCAuhBBCCCGEEUggLoQQQgghhBFIIC6EEEIIIYQRSCAuhBBCCCGEEUggLoQQ1ZClpeVD8TPjQgghyiaBuBCihJkzZ3Ls2DGOHz/O7t279W7br18/wsLCsLGxeUClE+Wxtrbm8OHDNG7c2NhFEUIIoYcE4kKIEmbOnImHhwcffvhhudsmJSXx22+/cefOnSorT9euXVmxYsV9peHg4EBISAh2dnaVVCrj0lcnKpXqAZdGCCHEvai0H/QRQtRMp0+f5vTp01Wah1qtxsHB4b7SsLCwwNnZudoEqZVRJ0IIIYxLRsSFqKE6d+7M+vXrOXz4MNu3b2f48OEVmlPs7u7OsWPHOHbsGCdPnqRjx46lbjd8+HB2797NwYMHWbhwoU7w+MILLxAcHEz//v355ptvCA0NZd68eUo56tWrR1RUFP7+/ri4uBAVFUVUVBR9+/at0L5u2rSJ7777DoDvv/+eqKgopk2bprONubk5kyZNYt++fURFRbFgwQLUanWF8nnyySdZu3YtUVFRyv7a29sr621sbDhx4gTt27cnODiYrVu38vXXX1O/fn2ddNq1a8e6des4cuQIISEh9OnTR1lXkTpxc3Pjq6++4vDhw6Xm07lzZzZv3kxUVBRr166lVatWOuuXLFnCTz/9hKenJ7169SIkJIRjx47x8ssvV6hehBBClE4CcSFqoLZt27Jo0SLCwsLo378/s2fPxtLSEo1GY3AaZ8+excPDAw8PD27fvl3qNkOGDOHll1/G19cXT09Pbty4wZw5c3S2efrpp3F0dGTkyJEMHjyY5557js6dOwNw9epVunXrxvz580lISKBbt25069aN8PDwCu3vkCFDGDRoEACvv/463bp1Y968eTrb+Pn50b59e0aNGoWnpydWVlYlgvXyJCcnExQUxGuvvcawYcOwsbHB19dXZxuVSsWwYcPw9fVl4MCB3Lp1iyFDhijrGzRowLJly9i1axevvPIKQUFBzJgxg+bNm1e4ToYMGcInn3xCr169yM/P18mnZcuWzJw5k88++4zXX3+dHTt2sGTJEp2pO35+fmzdupUePXowcOBAxowZQ1xcHDdv3qxQvQghhCidBOJC1EDDhw8nMjKSLVu2cO3aNX777Te++OILtFptpeYzdOhQli1bRlxcHDdu3GDx4sVK4F0sMzOTL774Ao1GQ05ODpcvX8bJyalSy1Eec3NzXnvtNT7//HMuXbpEWloay5Yt44UXXqBevXoGp5ORkcEvv/xCZmYmSUlJ7Nmzh5YtW5bYLigoiKysLADi4uJo2LChsq5fv34kJCSwZcsWMjMzOXDgAEePHmXgwIEV3q/58+cTFxdHdnY2p0+f1slnyJAh7Nixg59++omMjAzCwsJISEigU6dOJdJ55plnmDFjBqmpqfz8888kJydXuCxCCCFKkjniQtRAbm5ubNiwoUrzUKvVODo6MnfuXJ2R9ry8PBwdHUlLSwMoMQqfn5+PicmDHSNo2LAhtWrV4uLFi8qyhIQEVCoVjRs35urVqwalY2Njw/Dhw/Hw8KBWrVpYWVmRm5tbYru79/nf+9u0aVMSEhJ0tk9ISCgxbcQQd+et0Wh08nFzc6Nr1670799fWWZubk7dunVLpHPq1ClSUlIAWLp0aYXLIYQQonQSiAtRA6lUqkof/S6Ln58fsbGxDySve1VYWAhQap2YmRneTM6ePRuVSsX48ePJyMigb9++jBkzpkJlKe1CRKVSVagchlq7di3ffPNNudtlZmZWet5CCCFkaooQNdL58+dLnTLxb/cTrGdmZnLt2jWefvrpe06jWGFh4X2/7aQ42C4tnStXrpCbm4urq6uyrGnTpgAlRqf16dixI6GhoWRkZNxzOS9duqRTjuKy3D1aD/dfJ/Hx8bRt2/aePy+EEOL+SSAuRA20efNmevfuzcCBA2nYsCHt2rXj/fffLzESm5yczGOPPUbbtm157LHHSrx1Qx+tVsu3337LyJEj6dq1Kw4ODvTq1YtRo0ZVuLxxcXE0atSItm3bolaradeuXYXTuHr1qjJKrVarefrpp6lVqxZQFNTu3LmTMWPG4OrqipOTEz4+Pvz444/KFBpDXLp0CQ8PD0xNTWncuDEjRozAxsamQqPZYWFhNG3alIEDB6JWq+nVqxfPPfcc27dv19nufutk8+bNPP/88wwdOhQHBwfat29PQECA/BqnEEI8QBKIC1EDHTlyhOnTpzNgwAC2bdvGRx99REZGRokR1ri4ONauXcvixYvZunWrzmv0OnTooLy+0NramqCgII4dO8abb76pbLN+/Xo2bNjABx98wM6dOxkyZAjnz5+vcHnj4uJYvnw58+bN4/vvv8fLy0sJog2l0Wj46KOPeOONN9i9ezdTp07V+eXJFStWEBcXx5o1a9i4cSNpaWnMnDmzQnnMnj2bVq1aERkZydy5c1m4cCFnzpyha9euBqdx7do1pkyZgqenJ3v27GHUqFH4+/tz9uxZne3ut05iYmL44IMP6NevH6GhoUybNo2///5b5xxYsmQJAwcO5KWXXiIqKopmzZoZnL4QQojyqVxdXXXuPbu6upa4BSrKJvUljEnOP1GdyfkthKjuZERcCCGEEEIII5BAXAghhBBCCCOQQFwIIYQQQggjkEBcCCGEEEIII5BAXAghhBBCCCOQQFwIIYQQQggjkEBcCCGEEEIII5BAXAghhBBCCCOQQFwIIYQQQggjkEBcCCGEEEIII5BAXAghhBBCCCOQQFwIIYQQQggjkEBcCCGEEEIII5BAXIgapmXLlpw8eRILCwud5ZGRkbz00ksA1K5dm5MnT3Ly5EmOHTtGWFgYAQEBODg4KNsXb+Pm5vZAyy+EEEJUFxKICyHK9O6779K9e3fef/996tevz6effmrsIgkhhBDVhgTiQogy5efnk5ubS0JCAitXrqRly5Y4OTkZu1hCCCFEtSCBuBCiQlQqlbGLIIQQQlQLEogLIcplbW3NyJEjiY2NJTk52djFEUIIIaoFM2MXQAjx8Fq2bBlarRZra2siIyPx8/NDq9Uau1hCCCFEtSCBuBA1THEg/e8pJiYmJmg0Gp1lM2bM4M6dOwQFBbF582YyMjIeWDmFEEKI6k6mpghRw1y7dg0AZ2dnZZlaraZOnTqkpaXpbJuRkcGvv/7K119/TWBgIFZWVg+0rEIIIUR1JoG4EDXMtWvXOHbsGB9++CEtW7akefPmfPzxx5w7d44//vij1M+sXbuW9PR0pk2bVmKdk5MTLi4uyn+Ojo5VvQtCCCFEtSBTU4SogQICApg8eTIrV67ExMSE48eP653/XVhYyMcff8zGjRt59dVX2bVrl7Ju0aJFOtuGhYUxe/bsKi2/EEIIUR2oXF1ddXpeV1dXLl68aKzyPHKkvoQxyfknqjM5v4UQ1Z1MTRFCCCGEEMIIJBAXQgghhBDCCCQQF0IIIYQQwggkEBdCCCGEEMIIJBAXQgghhBDCCCQQF0IIIYQQwggkEBdCCCGEEMIIJBAXQgghhBDCCCQQF0IIIYQQwggkEBdCCCGEEMIIJBAXQgghhBDCCFSurq7auxe4uroaqyxCCCGEEELUGGalLbx48eKDLscjy9XVVepLGI2cf6I6k/NbCFHdydQUIYQQQgghjEACcSGEEEIIIYxAAnEhhBBCCCGMQAJxIYQQQgghjEACcSGEEEIIIYxAAnEhhBBCCCGMQAJxIYQQQgghjKDU94jfCwsLC+zt7alduzYqlaqyki1Bq9WSk5NDeno6eXl5VZZPVXtQ9SX+UV3OnUeZhYUFJiYm3Llzx9hFEdVY7dq1sbKywsrKChMTGW8SQjy8v5FTKS2UhYUFTk5O1KlTp8qDSpVKRZ06dXBycsLCwqJK86oqD7K+xD+qw7nzqOvQoQNhYWHGLobRmZiY8N133zFixAhjF6XaqV27No6OjtjY2EgQLoR46FXKiLi9vf0DDyhVKhX29vakpqY+0HwrgzHqS/zjUT53Ksv69etxd3dHq9WSnp7On3/+yerVq/nzzz+NXbQaQaPRcPr0aRISEoxdlGpHRsGFEI+SSmmtateuXRnJPDL53q9Htdz3o1OnTkyfPr1S0/T19cXT01NnmYWFBZ999hlPPvmk3s/WxGPwb8uXL6dLly4MGzaMCxcusHLlShwdHY1drBpj/vz5/Pjjj8YuRrVjZWVl7CI8cGq1ms2bN1dqmj179mT69Ok6g0YdO3Zk48aNAIwbNw5fX98Sn3N3d2f9+vX3lffSpUtxd3e/rzQArK2t2bJlC82bN6dHjx588cUX953m3Z566ilWrlzJypUrefvttw3+nJeXF25ubmWuHzBgAFOnTi113cKFC0td3r17d4KDg9m0aRMvv/yywWW5X4sWLeKNN97A0dGRLVu24OTkBEDbtm0JCgpStjM1NWXLli1V3sdU9TGvCpUSiBs6ulvZo8CP6qiyserLUA9jvf67TO3bt6dx48bs3LlTZ3leXh6rV69m7NixmJmVfcPnYdzHB62wsJC8vDzS0tIICgrCxMSE5557Tllfu3ZtZsyYQWRkJHv27MHX1xdzc3Nl/cSJE5kwYQJ+fn5s2LCB3bt3M2zYMJ08bGxsWLhwIVFRUWzevJlnnnmmRDmaNGnCypUriY6OZvv27bz22ms665csWcJPP/2Ep6cnvXr1IiQkhGPHjul0Ni1atGD16tVERUWxZ88eFi5cSNOmTStUH6+99hpbt27lyJEjhIeH4+PjU6GRVXNzcw4ePEiXLl10ls+bN48pU6Yo/168eDHHjh3j+PHjfPnll6Wmpa9O9u3bVyIPAGdnZ44fP46lpaXBZa6OKnLMjNEOPIxtz7/LpFarGTx4MJ9//jlarVZZnpWVRXZ2NgDZ2dnK33e7dOkSM2fOrNLyGiorKwutVquUtbTy3o/XXnuNHTt2MHbsWL799luDP9e4cWO96yMjI1m3bl2J5WZmZjRo0KDUzxw6dAgvLy9OnTplcDkqw7/rtrLruKKq+phXhUp7WPPfmjdvzqhRo1i7di1jxoyhbt26hIWFsXXrVgBatWrFf//7XywtLcnMzGT16tUkJSUBUL9+fcaOHYtarUalUvHDDz+wZ8+eqirqQ+ONN97Azs6OlJQUBgwYgK2tLXPmzOGPP/7AwsKCESNG0KpVKwoLCzl69Cjbtm1TGsl27doxZMgQLC0tuXPnDuvWrSM2NrbcPFUqFevWrWPq1Km8++67uLq66jSk+o7TF198wZYtW3j++eepV68ep06dUhoPU1NTRo0aRdu2bcnIyODMmTM6+epLt7xzB8DT05OdO3dSWFhYYp/++OMPbty4Qbdu3Th48GDFD0QNpNVqUalUOh1yYGAg2dnZDBo0CEtLS2bOnMnIkSN1Rhj+85//8OGHH7JkyRLatGnDF198QWhoKDdv3gQgICAAR0dHBg0aREFBAYGBgTr51q5dm5UrV7JhwwamTZuGi4sLCxcuJCkpiV9++QUAPz8/Jk6cSI8ePbCwsGDMmDH83//9n5IHwIIFC9i7dy9+fn5YW1vTtWvXCj8HEBsby0cffURycjKNGzfm008/5eLFi3z//fcGfT4/P58ff/yRF198kcOHDwNFwXnnzp2ZMGGCst2kSZMAGDJkCC+++GKJdMqrk/Pnzysd+eLFi2nTpg0vv/wyzs7OpKSkkJubW6H9rinKa1f69etHz549UalUXLx4keDgYKUTv9c+qbz21dHRES8vLxwdHcnPz+e7777j5MmTQNEdv6SkJJ544gnq1q1LRkYGixcvVh507t27N2+88QbZ2dlER0fr5KsvXUPa11dffZWTJ09y9epVnXSzsrLIysoCigKuuwc7zMzMWLVqFSqVCktLS52LcicnJ/z9/Tlw4ADt2rWjbt26bNq0iaMDG11iAAAgAElEQVRHjwJFF9Le3t6Ympry66+/6gT/+o6Nu7s748ePZ8qUKeTk5NCoUSNmzJjB1KlTuXHjBlqtljt37igXEMVlryy1atXixo0bFfrMnDlzaNasGVOnTqWwsJCLFy8yb948oGiE3dfXFwsLC/78808++eQT5XP29vYsWrSIWrVqERwcDEBERATbtm0rN8/y4gcoGsGeNm0a48ePJy0tzeD9KT4nir8rhtZx/fr1GT16NPXq1aOgoIDQ0FAOHToEwKpVq4iKiqJLly5s376dF198kcLCQj7++GNAf/xQ1ce8KlRZIJ6SkkKjRo0YMGAA8+fPJy0tTenkbWxsmDRpEgsWLODs2bN06tQJPz8/Jk+eDMDgwYOJjo5m//791KpVC29vbw4ePFjt37SQkpJCz549OX/+PL6+vty5c0epswEDBvDYY48xceJETE1NmTVrFomJiRw/fhwAb29vZs2aRXJyMo8//jg9e/Y0KBDXarVcuXIFHx8f1q9fT0xMjMHHSaPR8MQTTxAYGIiVlRWrVq1i7969XLlyhY4dO+Lm5oaPjw8ajYYZM2aQn59vULr6zh0ABwcHXFxcOHHiRJn7deTIETw8PCQQN4CpqSnDhg1Do9Fw5MgRABo1akTnzp3p0aOH8r1btWoVAQEBOoF4dHS08plz585hampK/fr1uXnzJmq1mh49evD++++TkpICwLp165g1a5by+d69e5OSkqKMJp0+fZrt27fzyiuvKIF4sWeeeYY333yT1NRUfv75Z5KTk5V1arWavLw8ZQRk+/btFa6Hu5+o//PPPzl+/DhPPvmkwYE4FI1WBwYGYmpqSmFhIc8++yy3bt3i999/NziN8urk/Pnzyu1fNzc3srOzqVevHs7Ozly4cMHgfGoafe1KmzZt6NevH/7+/mRmZuLl5cWgQYNYu3YtcO99kr72FeD999/nl19+Ye7cudSvX5/58+cTHx9Peno6Go2GZ599lunTp5OXl8esWbPo3LkzBw4cwN7enmHDhjF58mSuXLnCf//7X5189aVbXvsK4OHhwerVq0vsz92BTXZ2Nqampsq6goICJfhfvHixzuc0Gg316tUjPT2djz/+mNatWzN+/HglEB8zZgwhISEcOnSIDh060KdPH+Wz+o7N2bNnOXbsGMOGDSM4OJj33nuPr7/+Wic4vjtQrOyg7F7ubgQEBBAUFERQUBDnzp3TWXfmzBm8vLx44YUX8PDw0FmXnp7Ohx9+SFBQEF5eXhXKs7z4AYoGEjIzM0sd3NKnuG41Gg23bt1S+vny+Pj4cPjwYfbs2YOjoyMLFiwgPj6epKQkNBoNycnJfP/997z55pv4+PgQFBREgwYNyMrK0hs/FJfpUQrEq+yJltu3b2NmZkZERIRydVV89dW6dWuSkpI4e/YsAEePHkWtVtOwYUMAcnJyaN++PU2aNCE3N5elS5dW+yAc4NatW9StW5c1a9Yo+1tcZx07diQ8PJyCggJyc3OJjIzU+aLm5OTQrVs3HBwcSExMZM2aNQbne/v2bWJjY4mJidHJs7zjBBAVFQUUnfhpaWnK/K8nn3ySU6dOkZeXR0FBAceOHVM+U166+s4dKBrRSUxM1PsKwr/++otmzZoZXAc1kZeXFxEREURHR9O1a1e8vb25fv06UDRCZWJiQmhoKBEREURERDBv3jxsbGx00tBoNMrfxQ1wcefk4uKCSqXi/PnzZZbBzc2Nli1bKnlERETg6emJvb19iW1PnTqlBPRLly7l77//VtYFBATg6elJSEgIEyZMoEmTJhWujyZNmjBz5kw2b97Mtm3b6N69u97pTaU5ceIEWq1WmYLTo0cP9u3bV2KET5/y6qR4RFytVpOfn88ff/yBm5sbjRo1kkBcD33tSseOHYmOjiYzMxOA8PDwEu3rvfZJZbWvtra2uLm5sXv3bgBSU1OJiYnRmb514sQJcnNz0Wq1JCQkKO1rixYtuHjxIleuXAFQRhINSbe89tXW1hZHR0fi4uJK7MvVq1eVu1rh4eHs2rXLoDoozqN45D4hIQF7e3vMzMywtbXF2dlZuaA/deqUTvBU3rHZvHkzzZo1w9fXlytXrijBfbFJkyaRn5/PhQsXSlwg3I/GjRvj7OysMyDwsCovfoB/LgKK+wBDBQcHK+f2+PHjddbVq1eP4OBggoOD+fzzz5Xl9vb2NG3alL179wKQlpZGTEwM7dq1U7a5ePEiN2/eJDk5GY1GQ2ZmJtbW1gbFJVV1zKtKlY2IQ9EXr7T3Ntra2uLi4sKKFSuUZSYmJqjValJSUvjmm28YOHAgkyZNwtLSktDQ0BoxNUWr1XL9+nWdW+7FbG1tGTt2LAUFBUDRbcC737gwf/58PD09+eSTT0hPT2fdunXKl6M8Go3mno4TFHVQd6dTPD/T2tpa5/bW3Q2rIemWde4Uf764US5LZmam8vaEu4NF8Y+NGzcSFhbG559/TmRkpNKwQVEwnZ+fT58+fSoURN6teLSs+JwtjUql4tSpU/j4+JSbnr5jfvjwYfr160e7du3o3bs33377LR988IEyRaQ8tWvXZvXq1YSEhDB37lzy8/MJCAgw6LN3KywsJDIykhdffJFTp07RrVs3g/btbuXVyfnz5xk8eDDu7u7Ex8dz4cIFmjVrhrOzc4kpCkKXvj6pU6dOytx7lUqFubm5cmfjfvqkstpXtVoNFD0DUczS0lKnXdfXvt7dpt79tyHp6mtf7ezsyMvLK/VCo/i2P+j/XpcmNzdXaYuL/69SqbCyslIGbIrdPa+3vGNTUFDADz/8gLe3Nx9++GGJfIvrUKvVVtq0re7duzNu3Di++uor5WLoYVZe/HA/7h4Qu/t8Bbh27ZrSjpqYmCjBuJ2d3f+zd+fxMV3/48dfkz1EMmkIkSihJB/U9ulHNUgpglpatX6jbeRDSGtJLF3UUhpLUbVFNaK0VKh9KWqJVOxLFaFFovYgyL7oZJnfH/nlfkyzzURiRN7Px8PjIXPunPu+Z+7c+77nnnuG9PR0nc88OTkZOzs7nXq1Wq2yjFarxcTExKC8pDQ/87JUpok4UOBtisTERGJiYgp9oOPvv//mxx9/5Mcff6RWrVqMHz+e6OjoAq/QnzeF9fImJCSwfPly/vjjjwLL7927x+LFi1GpVLRo0YIxY8bg5+en98GyJJ9TUVJTU7GxsVH+fvwLpm+9+t7iEiWTnp7OnTt3mDJlCsHBwZw6dUpJxqOjo7G0tMTNzU0nQTdEXo91zZo1SUxMLHCZ6OhoOnbsiKWl5RMfMLOzszl16hSnTp1CrVbz5ptv6p2I543DXbNmzRPvd3v27GHatGns3r2b9PR0g9uvuDa5cuUKzs7OSiJ+7do12rVrJz3ieirsWLdr1y6dcdKPe9JzUkHrzBt+MmrUqBINB3j8+JqXfBtSb2H7eUkvvEsqLS0NCwsLzMzMyMrKUpKtPMV9NjY2Nrzzzjts3LiRwYMHM3ny5DLvfDlw4AC3b99m/PjxHD9+vNDj27OiuPyhrGi1WqVtHh/GlJiYSKVKlZTPHHIvFvIS6aI8SV7yrDLKZKtRUVG4uLhQv359IPdEHRAQoHxQ48aNw8XFBcgd15eammqMMJ8pJ06coGvXrpiZmWFmZkafPn145ZVXgNwd+LPPPsPKykq5hanVanUORmZmZoSGhuLh4aH3Oov7nIpy6dIlWrZsibW1NZUqVdJZ75PUC7k9o48fqAtiZ2dHSkqK9Ibr4ffff2f9+vXMmDFDmdbx+vXrHD58mEmTJuHu7o6TkxM+Pj60b99e73rj4uI4c+YMAwcOVH5MydfXV2eZPXv2kJWVxaRJk6hZsyb16tXjs88+07nNWBxnZ2emT59OkyZNsLW1pVGjRjRs2JAbN27oXUdsbCxZWVm89tprQO50mx06dKBq1ap615Hn9OnTqFQqRowYwe7duw1+f3FtkpqaSmJiIm3btiU6Opq//vqL+vXr4+TkJPOSl9Dx48fx9PRUjiutWrXSmRpVn3PS+PHjDfqBppSUFC5dukTXrl2B3GkXP/jgA6pXr17sey9fvkzdunVxcXFBpVLRoUOHUqkXcnsmLSwssLKy0ntbnkRycjL37t3j9ddfB3KHcz0+JKy4z2bIkCGEh4fz008/kZCQQK9evfRet42NDT/99BMdO3Y0OO6YmBhiY2NxdXU1+L0ZGRnUqlVL+U0LfWf6ycjIwNTUlBo1amBqalrgEL6cnJx8MycVlT/kadSoEaGhoTg4OBi8PYbKS6bzZr6qXr06L7/8sl4zvjxp/vAsKvMe8YKkpaXx9ddf4+fnp9yWWrNmjXL1Hh4eTkBAgPJljIyMrBC94UXZsmULPj4+zJs3D0tLS86fP6/cGk1OTubChQvMmjWLnJwcMjMzCQ4O1klCVSoVdnZ2Bs0kUdznVJRjx47RtGlTFi1aRHx8PIcOHaJFixZPXC/k9hjWrl0bCwuLQu8gNGjQoMixyULX4sWLee211/joo4/44osvAJgwYQJjx44lODgYlUpFVFRUvvGXxZk8eTJTpkzh559/5tatW0REROgk46mpqXz44YeMGzeOtWvXkpKSwuHDh3Vui8+bN49WrVqhUqlo27Yt//3vf4mJiVHKHz58yJ07d5g5cyb29vbExcWxb98+g56TiI+PJygoiBEjRjB+/HhOnTrF2LFj+eSTT1Cr1Qb1eOXk5BAeHk7fvn2ZPn16vvKQkBCaNm2KSqXCxMSEY8eO8fDhQ7p166Z3m0RHR+Ph4cHly5eJi4vDxcWFBw8e5Ls1LPRz4cIFduzYwRdffIG1tTX37t3TeShZn3OSjY2NwXOYBwcHM3ToULp06YKpqSn79+/X64fGHj58SFhYGJMnT0aj0SgzS6hUKrRabYnrhdzzSVxcHPXr19d7eCPA4MGDle+phYWFMrPHrFmziu1M+/bbb/H396dfv34cPHiQ69evK8lpUZ+Nh4cH1atXZ+HChUDueOU5c+bw+++/63V3qFGjRiQnJ+uMsTdEdnZ2iR7Y3LZtG4MGDcLHx4cHDx4wYcIEMjIymD17Nvb29lhYWGBubk5oaCjZ2dn4+/sDuXcxd+7cqZzrz549y/z583XqjoqKwsfHh7feeotTp04pQ+4Kyx/ymJubY2dn99QS2oULF+Lv70/Xrl3JzMxk6dKleu2jT5o/PItUrq6uOvehXF1dCx07VpiSXBGWFkNjLW3lrb2eF9OmTWPXrl3KAz7/NHXqVCIiIor8wRRj7zuloST7nxDlhRxfjcPb2xsbG5ty8WMoT+K///0vCQkJ+X6PQl9Tpkxh27Zt+WZ4Es+mZ/VcKb8DLMqljRs30qtXrwKv3hs2bIiDg4Pe44OFEEL8z44dO2jZsiXVqlUzdihl6vGZO0oiMTFRmUpUiJIqlUT8aT/cYez1PqnyGvez5Pfff+fmzZv5xgPm/eDLN998U+SDqvIZCPF8kudCnlxSUhJr167F39//mfwl0NIyceLEJ5pnesuWLXTu3JmQkBC8vb1LMTJRkZTK0JTq1atTqVKlUg1MH+np6XqPeysr5am9xP88C/tOaZChKeJ5VpL9u2rVqvnmuxdCiGf1XFkqPeIJCQlPvYdRq9WSkJDwVNdZWozRXuJ/yvO+I4QoWlpamvSKCyHKjVJJxDUaDbGxsaSnp5d5gqnVaklPTyc2NrbIX1Z8lj3N9hL/8zzsO0KIomVkZBAXFyfTlwohyoVSm75Qo9E8F7f6nxZpLyGEKBsZGRlkZGTw4MEDY4cihBBFkllThBBCCCGEMAJJxIUQQgghhDACScSFEEIIIYQwAknEhRBCCCGEMAJJxIUQogSaNGmCmVmpPe8uhBCiApKziBBCGKhjx46MHj0aPz8/YmNjjR2OeIyrq2uZ1Z2ZmYlGoyE1NZX09PQyW48QouKQRFwIYTTbtm3D0dERExMTdu/ezaRJk4wdUrGaNWvGp59+ir+/f6FJuFqt5pNPPqF169ZkZ2dz4MABpkyZ8nQDFaXO3Nwcc3NzLCwsyMnJ4dGjR8YOSQhRzkkiLkQF1bZtWwYMGMDw4cONFkPPnj0BGDNmDPb29k9Ul7+/PyqViiVLlpRGaAUyNzdnypQphISEEBMTU+hyY8aMwcLCQtm+qlWrlllM4ukzNzfH1tZWEnEhxBOTMeJCVFBqtfq5ShCrV69OlSpVynQdXbp0wcLCgo0bNxa5nJubG/v37ycxMZHExMQik3ZR+rp168Y333xDSEgIr776ar5yCwsLFixYQMOGDUu8jsqVKz9JiEIIAUgiLkSFU61aNSIjIxk/fjx16tQhMjKSyMhIunbtqrOctbU1kydPJiIigp07dxIYGIi5uTkAHh4eLFq0iJkzZxIeHo63tzczZ84kIiKCvn37KnWsXr2a7t27s3jxYg4fPszq1atxd3c3KN4ePXqwfv16Dh8+zK5duwgICMDE5H+HLi8vLyX+Xr16Kdvj5OSkU0/r1q1Zu3YtkZGRrFixgsaNGxvadLRr147w8PBifzrd1NS00GUcHR2ZN28ekZGR7N27l5EjR+psT5MmTZQyW1tb5syZQ2RkJOvWrTM43opqx44dfPjhhyxbtoxevXrlK9doNISEhPDhhx/KA7dCCKOSRFyICub+/ft4enoyc+ZMrl27hqenJ56enuzatUtnuaCgIMzMzOjfvz/Dhg3j5ZdfxtfXVylv0aIFGzduZM6cOYwcOZJt27YRFBRE7969derx9/cnJCSEN998kxs3bvDll1/qJJ7FOX/+PBMmTKBz586MGTOGLl260L17d6V8z549SvybN29WtufOnTvKMv/617+YMmUKCxYsoGfPnmzatIl58+ZhZ2dnUNvVr1+fy5cvF1o+depUjhw5wosvvsjkyZM5cuQIP/30k1JuamrK/PnzSUpK4u2332bkyJF4eXnRr18/ZZlz587RrVs31Go1QUFBREZGMnnyZFJSUgyKVUB8fDxWVlYFlv3xxx/Ex8fj6emZr8zc3Jx169bRrl27Mo5QCFHRSSIuhMjHxcWF1q1bM2PGDOLi4rh58yZLlizhzTffVJa5c+cOp06dIj4+nvv373P06FHi4+PzDQ9ZtWoV586dIykpidDQUJydnalTp47esVy9epXLly+TmprKn3/+yfHjxw0eUuDt7c2mTZs4evQoiYmJbN++nWvXruHh4WFQPXZ2diQnJxda/vnnn+Ph4cGNGzf44osv8PDwoH///kr5yy+/TN26dZk3bx7x8fFcvHiRNWvW6NxFeFxcXBzbt2/n3r17HD161KBYBWi1WlQqVaHlhw8fplWrVgW+LykpCY1GU5bhCSGEPKwphMjPzc0NExMTtm7dqrymUqkwNTU1uK6srCzl/zdv3gSgRo0a/PXXX3q9v3bt2vj6+uLu7o6ZmRkODg6Eh4cbFEODBg1o27Ytb7/9tvKaubk5Dg4OBtWj0WiwsLAw6D2Pc3V15eHDhyQlJSmvXb16FWdnZ0xNTcnOztZZfvv27QD8+eef/PnnnyVeb0X14MEDbG1tadCgQYF3Mi5duqRzoZQnKysLPz+/pxGiEKKCk0RcCJGPSqUiMzOTLl26oNVqS7VeIF/CWRhra2tCQkLYsmUL06dPJzMzk4kTJ5Zo3StWrOCHH34o0Xvz3L9/n2rVqpX4/Y9flOQxMTHB1NS0wJ7bonrfRfGSk5MJDQ3liy++YM2aNToXlgBJSUlUrlwZExOTYsf9CyFEWZChKUJUUNnZ2YXeto+OjsbS0hI3N7dSXWfej63k9YznKSzZr1evHg4ODqxZs4bMzMwi687JySl07HlMTAzNmjUrQcS6zp07R5MmTUr8/uvXr+Pg4KAzfKdOnTrcvHmzwCRdPBkrKyv++9//MnPmzHxJuBBCPAskEReigoqOjsbFxYVmzZqhVqtp3ry5Unb9+nUOHz7MpEmTcHd3x8nJCR8fH9q3b2/wevr160ejRo1wdnZm1KhRnDlzJt8P4dy9e5cGDRpQq1YtnJ2dsbGxASA2NpasrCxee+01IHe2lg4dOhQ47WJMTAwtWrTAxcUFR0dHndlZ1q5dy2uvvcbAgQOpWrUqLVq0YOLEiQYPtdmyZQuenp4GD2nJExUVxZUrVxg9ejTVqlWjcePGeHt7s379+hLVJ4pWo0YNHj16xNmzZwsst7OzIyUlJV9vuJmZGcuWLdMZyiSEEGVBEnEhKqjo6GiCg4OZMWMG27Ztw8/PT2eGiQkTJnDp0iWCg4P58ccfad68Obdu3TJ4PWfPnuXTTz9l7dq1mJiYFDi0ZPPmzVy/fp2wsDCWLl2qPIwZHx9PUFAQI0aM4MCBA/Tu3ZuxY8fi5OSEWq3WqWPDhg2cP3+elStXEhYWpjMdY1RUFB9//DHdunVj69atfPbZZ9y8ebPIB/kKcvHiRfbs2cPYsWMNbgfI7fn/5JNPqFGjBlu2bGHOnDls3LiRNWvWKMs0adKEHTt2ALkPuk6fPr1E6xK5s9QUdaehQYMGXLlyJd/rdevWpXLlykRGRpZleEIIgcrV1VXnnrCrqytXr141VjzljrSXMKZnff9bvXo1mzZtKvYHcMqTSpUqsXTpUsLDw1mxYoWxw3mulWT/zhv+BLlDm0aMGMHo0aMLXHbq1KlERETw66+/6rzeo0cP6tWrx/z584tc17P83RNClA/SIy6EEAZIT09nxIgRtG3bllq1ahk7HFEEJycnEhMTCyxr2LAhDg4OHDp0KF+Zu7s7v/zyS1mHJ4QQMmuKEKLspKenP5c/RJOYmMjgwYNLdUYZUXq6d+9Ojx49yMnJYcGCBfnKLSwsGDZsGN98802BQ1d+/fVXLl68+DRCFUJUcDI05QlJewljkv1PPM+edGhKWUpLSyMuLu6prEsI8fySoSlCCCGEATIzM2WOdyFEqZChKUIIIYQeMjMz0Wg0pKam8ujRI2OHI4R4DkgiLoQQ4rkhQ7WEEOWJDE0RQgghhBDCCCQRF0IIIYQQwggkERdCCCGEEMIIJBEXQgghhBDCCCQRF0IIIYQQwggkERdCCCGEEMIIJBEXQhjNtm3bOHbsGCdOnCAoKKjM19etWze2b99OlSpVynxdzwITExN++uknBg0aZOxQhBBCFEAScSEqqLZt27J48WKjxtCzZ09atWrF2rVrn7guf39/PvjggyKXuX37NmfPnq0wP8aSk5PDmTNnuHbtmrFDEUIIUQD5QR8hKii1Wk3VqlWNHUapqV69OhkZGUUuc+bMGc6cOVMq67OyssLV1RUPDw+WL1+OVqstlXoNZWpqygsvvEDz5s1JTk7m2LFjOuUzZ840SlxCCCGKJ4m4EBVMtWrV2LhxI2ZmZpiamhIZGQnkJmy7du1SlrO2tuajjz6iffv2ZGRksGfPHhYvXkxmZiYeHh783//9H6mpqbRs2ZLvvvuOl19+mVatWvHNN9+wfv16AFavXs2aNWvo2rUrzZo149q1awQFBXHx4kW94+3Rowfvv/8+NWvWJDk5mV9++YVFixaRk5MDgJeXFxMnTsTCwgKtVkv37t0B6N+/P3fu3AHA3d2d77//HshNXIcPH86JEyd01rN69WrCwsJ4/fXXcXFxoVKlSsyYMUNnOV9fX3r16oWNjQ1VqlQhKiqK27dvY2dnR2Jiol7bU1S7ArRr146BAweyY8cOevXqhVqt5sKFC0yaNIns7GwAXF1dGTduHA0aNMDGxoa0tDTOnj1LRESEsp65c+fSunVrVCoVUVFRDBkyRCeOMWPGkJWVhampKf/+97+xt7dn7dq1rFq1Smc5Hx8f+vXrh7W1NadOnWL27Nk8ePBAKffy8mLw4MG4uLgQFxfHkSNHWLp0KUlJSXq1hxBCVGQyNEWICub+/ft4enoyc+ZMrl27hqenJ56enjpJOEBQUBBmZmb079+fYcOG8fLLL+Pr66uUt2jRgo0bNzJnzhxGjhzJtm3bCAoKonfv3jr1+Pv7ExISwptvvsmNGzf48ssvMTHR/9Bz/vx5JkyYQOfOnRkzZgxdunRRkm2APXv2KPFv3rxZ2Z68JBzg4sWLtGrVilatWpGamlrouoYMGUJwcDDe3t5s3bqVUaNGKWU9evSgX79+DBs2jDfeeIOAgACcnJz46quv9E7Cofh2BWjatCmOjo74+voyYMAAXn31VVq3bg3kjvueN28e58+fx8vLizfeeIOYmBjOnTvHzz//rNQxduxYWrVqxYIFCwqNpV+/fpw4cYJ3332X8ePHM3z4cGxtbZVyb29vOnXqRGBgIH369CE+Pp5p06Yp5U5OTgQFBbFw4UI6duxIQEAAiYmJykWFEEKIokkiLoTIx8XFhdatWzNjxgzi4uK4efMmS5Ys4c0331SWuXPnDqdOnSI+Pp779+9z9OhR4uPj8z0IuWrVKs6dO0dSUhKhoaE4OztTp04dvWO5evUqly9fJjU1lT///JPjx4/TsGHD0tpUHatXr+bGjRsAXLp0CScnJ6WsUaNGnD59Wknwjxw5gp2dHW5ubnrXr0+7AiQlJbF06VJycnLIyMjg1q1b1KxZE8gdUuTs7MzOnTvRarVkZGRw/Phx2rZta/D2Hjx4kMOHDwNw+fJlTE1NqV69ulI+cOBAFi5cSHR0NPHx8cydO1e5SACwtbXFxMSE9PR0MjIyuHHjBqGhoaSnpxscixBCVEQyNEUIkY+bmxsmJiZs3bpVeU2lUmFqampwXVlZWcr/b968CUCNGjX466+/9Hp/7dq18fX1xd3dHTMzMxwcHAgPDzc4Dn08Ps47KytLp+f+5MmTjBs3jpo1axIbG0u7du3IysoiOjpa7/r1bde8YTd5MjMzlVgSEhKIiYmhW7duLFmyBCsrKzw8PDh79qxB2/rP9eT1YqtUKiA34Xd0dGT69Ok6y2k0GhwdHYmLi+PSpUuEhISwcOFCYmJi2LdvHzt27DDoDoEQQlRkkogLIfJRqVRkZmbSpUuXUn0IMcEC3iQAACAASURBVC/JyxvrXBxra2tCQkLYsmUL06dPJzMzk4kTJ5ZaPIYIDw+nTZs2LFmyhIyMDOLj4xk1ahQJCQl611Ea7arVavn444/5/vvvadeuHZmZmZw4cYKlS5eWqL7ijB49mvPnzxdavmzZMlavXk3r1q3p1asXgwYN4t133+XevXtlEo8QQjxPJBEXooLKzs5WEuN/io6OxtLSEjc3N4MerCyOq6sr8L+e8TyFJaX16tXDwcGBNWvWFDvuOCcnx6Cx54aqVKkSXl5edOzYsdjZWQpTWu361ltvsXXrVhYuXFjiOoqTlJTEgwcPaNq0aZGJOEBGRgb79u1j//797NmzhzZt2rBx48Yyi00IIZ4XMkZciAoqOjoaFxcXmjVrhlqtpnnz5krZ9evXOXz4MJMmTcLd3R0nJyd8fHxo3769wevp168fjRo1wtnZmVGjRnHmzBliY2N1lrl79y4NGjSgVq1aODs7Y2NjA0BsbCxZWVm89tprAHh4eNChQ4cCp12MiYmhRYsWuLi44OjoiLu7u8GxFsXW1hYLCwvc3NxQq9VUrlzZ4DpKq11feOEFXFxceOGFF1Cr1ZiZlX6filarZc2aNfj6+tK2bVuqVq2Kl5eXzuwrnp6ejB49GldXV6pUqULHjh2xsbFRxtkLIYQomvSIC1FBRUdHExwczIwZM7CxseH8+fOMGTNG+bGbCRMmMHbsWIKDg5Up8I4cOWLwes6ePcunn35KnTp1OH/+fIFDSzZv3kzz5s0JCwsjOTmZqVOncuLECeLj4wkKCmLEiBGMHz+eU6dOMXbsWD755BPUarXOWOQNGzZQv359Vq5cSU5ODjt27FB6nV955RWCg4OB3OkLFy1ahFarZdasWWzevFmv7bh79y5hYWEsWrQIKysrAG7dusXMmTPzTYVYlNJo17CwML788kt2794N5I7v/uWXX/jyyy/RaDQAhISE0LRpU1QqFSYmJhw7doyHDx/SrVs3vdezatUqTExM+Pjjj1Gr1Vy5coUffvhBKb98+TKdO3dm2bJlWFhYcPPmTebMmcPJkycN2h4hhKioVK6urjr3hF1dXbl69aqx4il3pL2EMT3r+9/q1avZtGnTczFMwd7enrS0NCXRtbe3p1+/fvTu3RsvL6+nFoeFhQWVK1dWxqabmpry0ksv8dVXX/H9998/F22d51nfv4UQ4knJ0BQhhNDD559/zqhRo7C1tcXc3BwLCwvs7e25f//+U42jfv36bNq0ifr162Nubo6lpSWVK1fGyspK54d2hBBCPPtkaIoQosykp6eTkpJi7DBKxaJFixg3bhzbt2/H0tKShIQETp8+zUcfffRU47hw4QJr1qxh7ty5VKtWDY1Gw61bt/j22285cODAU41FCCHEk5GhKU9I2ksYk+x/4nkm+7cQ4nknQ1OEEEIIIYQwAknEhRBCCCGEMAJJxIUQQgghhDACScSFEEIIIYQwAknEhRBCCCGEMAJJxIUQQgghhDACScSFEEIIIYQwAknEhRCiHKpXrx5qtdrYYQghhHgCkogLIUrkhRdewM3NzdhhVFj/+c9/CA0Nxd7e3tihCCGEKCFJxIWoYHr27MmxY8c4duwYJ0+exMXFpdBlTUxM+Omnnxg0aFC+sl69ehEQEFCGkYqirF27loiICBYsWIC5ubmxwxFCCFECkogLUcFs27aNVq1a0alTp2KXzcnJ4cyZM1y7dq3sAyvEu+++y8mTJ/P9c3Bw0FkuMDBQp/zzzz9XyqpUqcKECRPYu3cvR44cYf369fj4+GBqalqqsXp5eSnrP3jwIOvWrcPX17fMEuWQkBBUKhW+vr5lUr8QQoiyZWbsAIQQz7aZM2caOwQuX76Mv7+/zmspKSk6f3/zzTd89913AIwbN06nbOLEiVSvXp3AwEDi4+Nxd3dnwIABhIeHc+vWrVKNNT4+nh49emBpaUnjxo2ZOHEitWrV4osvvihRfVZWVri6uuLh4cHy5cvRarVKWXZ2NiEhIXzxxResXLmSR48eldZmCCGEeAqkR1wIUaC5c+dy7Ngxjh8/zrJly4pd/rXXXuPQoUO0b99e53UfHx927NjB/v37mT17NlWrVjU4lpycHFJSUnT+/ZNGo1HKMjMzdcqaNm3Kli1buHDhAnfu3CEiIoJhw4aVehL+z1iOHj3KDz/8QIcOHYDcnvmTJ09Sp04dZdkRI0Ywa9Ysnff7+vqybds29u/fz8GDB/noo4+oU6cOdnZ2+dZ17NgxAFq0aFEm2yKEEKLsSCIuhCjQ2LFjadWqFQsWLCh22SZNmjBr1ixmzpxJRESE8rq3tzedOnUiMDCQPn36EB8fz7Rp08oy7AKdPn2a3r1789JLLz31dWdnZ5Odna338j169KBfv34MGzaMN954g4CAAJycnPjqq69ITEzMt3xWVhZ//fUX7u7upRm2EEKIp0AScSHEE6lXrx5ff/01CxYsYMeOHTplAwcOZOHChURHRxMfH8/cuXNp2rQpjo6OBq2jfv36REREKP+8vb0Nen9QUBDnzp1jxYoVrF69mnffffepTP1Xt25dBgwYwIEDB/R+T6NGjTh9+jR37twB4MiRI9jZ2RU5Q01KSgq2trZPHK8QQoinS8aICyFKzMzMjPnz5/Prr7+yceNGnTK1Wo2joyPTp08nJydHeV2j0eDo6EhcXJze67l69Spjx45V/k5OTjYozoyMDObMmUNwcDCtW7emd+/e+Pj4MGTIEK5fv25QXcWxt7dn7969WFpaotVq2bt3L3PnztX7/SdPnmTcuHHUrFmT2NhY2rVrR1ZWFtHR0YW+x8LCIt9wHCGEEM8+ScSFECWWlZXF8uXLGT16NBs2bODixYv5lhk9ejTnz59/4vXExsbqvbypqWmBw0EyMjLYt28f+/bt47vvvsPb27vUH0ZNSkpi4MCBaDQakpOTdS5C9BEeHk6bNm1YsmQJGRkZxMfHM2rUKBISEgp9T9WqVbl///6Thi6EEOIpk0RciArq8dk3nsTmzZupXbs28+bNY9CgQdy7dw/ITUgfPHhA06ZNnzgRN9RLL73Er7/+qvxdUGJ+//59bGxs8r3X3NwcMzMzMjIySrTunJycQnv785JylUqlvPb4/wEqVaqEl5cXHTt21CsGtVpNnTp1+P3330sUrxBCCOORMeJCVFBpaWkkJyfTtm1b1Go1L774YonrWrhwIRcuXGD+/PlUrlwZyE3016xZg6+vL23btqVq1ap4eXkxZMiQEq3DwsJC55+JSe7hy8nJiQ8//JD69evj7OzMBx98wEsvvcSuXbsAcHZ2Ztu2bfTt25datWpRp04dfH19adeuHfv27dNZh6mpKevXr2fbtm1lMoY8LS2NxMRE6tWrB0DDhg3p2bOnzjK2trZYWFjg5uaGWq1W2rMwb731FpcvXy5y6IoQQohnk/SIC1FBabVagoKCGDNmDB9++CEnTpzQGYcdEhJC06ZNUalUmJiYcOzYMR4+fEi3bt3y1ZWTk8OkSZNYunQpX375JYGBgWRnZ7Nq1SpMTEz4+OOPUavVXLlyhR9++MHgWN3d3Tl8+LDOa6NHj+bQoUP8/fff2Nra8vXXX+Pg4KCMJ88bynL79m3mz59P//79GTlyJKampvz11198/vnnOjO8QO4vidra2lKlShVsbW0LnKXkSc2aNYuRI0cyePBgYmJiCAsL05nx5O7du4SFhbFo0SKsrKwAuHXrFjNnzuTEiRM6dTk5OeHj46PzuQkhhCg/VK6urjr3p11dXbl69aqx4il3pL2EMcn+V/oWL17MCy+8wP/93/8ZZf329vakpaWh0WiUv/v160fv3r3x8vJSlqtSpQrffvste/bsKdHFTXkg+7cQ4nknQ1OEEOL/MzU1pXHjxmzYsMFoMXz++eeMGjUKW1tbzM3NsbCwwN7ePt/DmAMHDuTAgQPPbRIuhBAVgQxNEUKI/69+/fpotVp27txptBgWLVrEuHHj2L59O5aWliQkJHD69Gk++ugjneVCQkJK7YFbIYQQxiGJuBBC/H8XL16kXbt2Ro3hypUrfPDBB8UuJ0m4EEKUfzI0RQghhBBCCCOQRFwIIYQQQggjkERcCCGEEEIII5BEXAghhBBCCCOQRFwIIYQQQggjkERcCCGEEEIII5BEXAghhBBCCCOQRFwIIYQQQggjULm6uur8KoSrq6uxYhFCCCGEEKLCKPCXNa9evfq04yi3XF1dpb2E0cj+J55nsn8LIZ53MjRFCCGEEEIII5BEXAghhBBCCCOQRFwIIYQQQggjkERcCCGEEEIII5BEXAghhBBCCCOQRFwIIYQQQggjkERcCCGEEEIIIyhwHvGSsLCwwN7eHmtra1QqVWlVm49WqyUjI4OEhAQ0Gk2ZraesPa32EmXvedknhXheWFlZYWtrS+XKlY0dihDPJZnfv/SUSiJuYWFBzZo1n0pCqVKpqFSpEtbW1sTGxpbLxOdptpcoe8/DPinE86JSpUq88MILmJubGzsUIYQoVqkk4vb29k89qVSpVNjb23Pv3r2nut7SYIz2EmWvPO2TdevWJSAggObNm2NiYsKlS5f48ccfiYiIMKieqlWrsmzZMnx8fEhKSiqjaMuetbU1kZGRDBw4kMuXLwOgVqvZu3cvAwYMAGDt2rWFvn/w4MG4u7vz0UcfFViemZmJh4cHABs2bKB27dpotVri4+O5cOECy5cv58KFC6W8VRWTjY2NJOFCiHKjVMaIW1tbl0Y15Wa9T6q8xl0QPz8/GjRokO/1gQMH4u/vr/z98ssvs3jx4lJfv4eHB5MmTSrVOgMDA+nTp0++1wMCAgp8/XHl4bM1NzcnODiYhw8f8t577zFw4EB27drFW2+9ZXACY2FhgbOz83N/YXnt2jW6detGt27dePfddwEYNmyY8tqFCxfYvn278vesWbNITExU/u7Zs6dOfXPmzKFNmzYMHjyYuLg4QkNDqVWrljE27bljYWFh7BBKjYeHB2+//Xa+15s1a8aiRYuUv01NTVm3bh2Ojo6lun61Wl3kBWhJdOzYkUmTJukcM1q2bMnq1asBGD58OIGBgUrZ559/rnPcdXZ25vvvv6datWrFrmv69OmEhYURFhbGsmXLGD58OJUqVSrFrSlbQ4cOpXfv3sUuZ25uzrp16wgLC+PHH38kODiYHj166L2eQYMG8dlnnwHwzTff0LFjxxLHLAxXKom4vifh0j5Zl9eTv7HaqyyU9+Thn23cokULatWqxebNm/Mt+91339G5c2dcXFz0ru9ZVLNmTapVq8by5cu5fv06169fZ8OGDQQGBpKZmaksZ21tzeTJk4mIiGDnzp0EBgbqJOphYWH89NNPAGzbto3IyEjlYJ5HrVYzffp09u7dy/79+wkNDaVNmzYGxdujRw/Wr1/P4cOH2bVrFwEBAZiY/O/QVaVKFU6cOEGLFi0IDQ1l/fr1fP/991SvXr0kzVOg7Oxs4uLiiIuL48GDBwDEx8crr2VnZ5ORkaH8nZycTE5OTr73PF6fRqPh9u3bzJ49m7S0NDw9PUst3orMkIvJZ/37WtSxpjz4Z/uq1WoGDBjAt99+i1arVV5PS0sjPT0dgPT0dOX/AMuWLaNHjx7KRYafnx9bt27l/v37esWwZMkSvL29GTNmDHZ2drz33ntPulkGe1r72ciRI3nvvfeYN28effv2xd3dXa/3Pd7m/2x/UfZK7WHNf6pfvz5DhgxhxYoVDBs2DAcHB7Zv38769esBaNy4Me+//z6WlpYkJSUREhLC7du3AahevToffvgharUalUrFL7/8ws6dO8sq1GfGW2+9hZ2dHXfu3KF3797Y2toybdo0/vjjDywsLBg0aBCNGzcmOzubI0eOsGHDBuVg1rx5c7y9vbG0tOTRo0esXLmS8+fP673eN954A5VKxcOHD5XeUij6c5o2bRovvfQSn376KdnZ2Vy9epUZM2botc6i6rWxsWHEiBFKkr99+3Z++eUXILfnZ8iQITRr1ozExMR8t/OLqre4fRKgT58+bN68mezs7Hwxp6amsnfvXt5++22Cg4P12s5nUWxsLPfu3WPo0KHMmzePhISEApcLCgoiPT2d/v37Y2lpyZQpU/D19WXp0qUAeHt7U7NmTbZu3UrPnj1JTEzMV8fIkSOxtbVlwIABZGdn07hxY4N7pM6fP8+ECROIjY2lVq1afP3111y9epVt27Ypy6hUKt577z0CAwNJS0tj0aJFeHt7M2/ePIPWZQxarZbs7GxycnKMHcpzrbjvf7du3ejYsSMqlYqrV68SGhqqJCRPck4q6vjq6OiIn58fjo6OZGZm8tNPP3Hy5EkA3n//fby8vMjJyaFbt25Abm+xPs+gFFVvUcdXgM6dO/PWW2+Rnp7OwYMH9a5XpVKxcuVKPv30UwYPHoyrqyvXr19nypQpyvu7d+/OyZMn8yXRaWlppKWlAbmJoJnZ/1KT27dvs2fPHgYPHsyRI0dQq9Vs3769+Ib/h+TkZLZv386wYcOU13r27Mkbb7yBiYkJN2/eJCQkhOTkZGbNmsXKlSvznV9CQ0OZMGECiYmJhZ6Pi2uHotpQrVYTGBhI1apVuX37NhkZGcq+oi+tVsuVK1e4ffs21apVIzU1lWnTpjF06FBl36latSpz585l6NCh/P3335KIG1mZJeJ37tzBxcWF3r17M3PmTOLi4pSrwipVqjB27FhmzZrFxYsX8fDwYPTo0YwbNw6AAQMGcPDgQfbt24eVlRX+/v7s37+fR48elVW4z4Q7d+7QsWNHrly5QmBgII8ePVLarHfv3rzwwguMGTMGU1NTpk6dyo0bNzh+/DgA/v7+TJ06ldjYWF588UU6duyoVyLu5OREp06dGD16NJmZmXh6etKsWTPCw8OL/ZwmTpzIokWLWLRokTKuVh/F1fvOO++QlpbG8OHDqVGjBl9//TXHjx8nISGBli1b0qBBAwICAsjJyWHy5MlKL25x9Ra1T0LuwalOnTqcOHGi0NiPHDnCjBkzMDU1LTBZLw8yMzMZNmwY48aNY8eOHZw+fZqff/6Zffv2kZWVBeT2xLVu3Zr27dsr37slS5YwceJEJRHXh1qtJjs7m+TkZDIzMzl06JDB8T7+dP6ff/7J8ePHadiwoU4iDrBo0SLlZB4dHV2i3sRly5Ypn+vT6MUyNzfnvffew87OrkRtI/RX1Pe/SZMmdOvWjfHjx5OUlISfnx/9+/dnxYoVQMnPSUUdXyH3QvX06dNMnz6d6tWrM3PmTGJiYkhISGDlypVUqlSJu3fvsmXLFoO2tah6izq+2tvb89577zFu3Dju3r3L+++/r3e9Wq2Wu3fvEhAQwKpVq4iKisr3HWrVqhUhISH54k1PT9dJxE1NTXXK169fz/z58/Hz82PWrFnKccpQj98tad68OR07duSzzz4jNTUVX19ffH19WbBgAbdv38bJyYkLFy5ga2tLeno6FhYWVKpUifv37zNgwIBCz8fFtUNRbdi7d2/u3bvHlClTcHBwYM6cOdy8edOgbVSpVLi5uVGtWjUuXLhAfHw8N2/e5D//+Q+HDx8GoE2bNhw9epS///4byH8hJIn401Vm84inpqZiZmbG7t27iYuLA1B6b19++WVu377NxYsXAZSrXCcnJwAyMjJo0aIFtWvX5u+//2b+/PnPfRIOkJKSgoODA8uXL1e2N6/NWrZsya5du8jKyuLvv/8mIiKCVq1aKe/NyMjA09OTqlWrcuPGDZYvX67XOjUaDba2trz66qtUrlyZyMhI5SRR3OdUnDZt2hAaGkpoaCijR49WXi+u3rCwMOVgfffuXRITE5Xbkg0bNuTUqVNoNBqysrI4duyY3vUWtU9Cbo/ZjRs3iuxxunXrFjk5OTg7O+vVBs+q27dvM3r0aHr27MmBAwcYOnQo3333HZaWlgC4ublhYmLC1q1b2b17N7t372bGjBlUqVLFoPUsXLgQBwcHdu7cyeeff84rr7xicKy1a9dmypQprF27lg0bNvD666/r9JjlebxHOTMzU2f4ir4+/fRTBg4cyMCBA3V6zkpbQEAAe/fu5dChQ3Tq1Ilx48YZfMIVhinq+9+yZUsOHjyoPHC8a9eufMfXkpyTijq+2tra0qBBA3bs2AHAvXv3iIqK4t///rde21OtWjXl+Prtt98qrxdXb1HHVzc3N65evcrdu3cBOHDggN715rXx+fPniYqK0mnfvPc7OjoSHR2db1vu379PUFAQkNv2P//8c752PHfuHH///TeXLl3Sq33+6YUXXuCdd95RktG8xDQ1NRWAffv20aJFCyD3rqGTkxO2trZ88803dOjQAWdnZ27fvo1Wqy32fFxYOxTXhg0bNlTie/jwIX/88YdB2/j111+zatUqpkyZws6dO5W7neHh4bz++uvKcm3atOHXX39V/j548CDr1q1T6oiJiTFoveLJlFmPOOTufAXNNWlra0udOnV0Ht4zMTFBrVZz584dfvjhB/r27cvYsWOxtLRk69atFWJoilar5eHDhyQnJ+crs7W15cMPP1R6AszMzLh27ZpSPnPmTPr06cOXX36p9KbkHQSK8vDhQ+bMmUP37t3x8/Pj8uXLLF26lPv37xf7ORXnxIkTrFy5EoB//etfykNuxdVbq1Yt+vfvj52dHTk5OcrtYMi9rZp3EgWUq3h96oXC98m89+sz80dycjK2trbFLlcePHjwgPXr17Nr1y52797N66+/zp49e1CpVGRmZtKlSxedk6mhrl+/znvvvcdLL71E+/btmT17Nps2bdJ7aI+1tTUhISFs2bKF6dOnk5mZycSJE0scT3EePHhAbGwskNubX1a+++47du3aRUpKChkZGWW2HqGrqHOSh4eH8vyCSqXC3NxcufNV0nNSUcfXvP3r8eFTlpaWOsf1ojx48ED5LpiYmCjJeHH1Fnd8ffyY+vj/9Yk3Jyen0OOrnZ0dGo2mwAsYrVarvF5Qb3ft2rVp3rw5Fy9epFevXsqzKUC+2YpGjx6tcw4dNmwYgwcPJisri0OHDilDkezs7HQufpOSkrC2tsbc3Jzbt2/Tpk0bmjdvzp49e2jevDmPHj1Sjg3FnY8La4fi2rCo9tdnW8eMGcPDhw+xs7Nj6NChvPvuu6xatYojR47w/vvvY29vT5UqVbCwsFA6rP7Z5jL97tNXpok4oPPwV57ExERiYmJ0xo497u+//+bHH3/kxx9/pFatWowfP57o6OgCr6SfN4V9CRISEli+fHmhV8j37t1j8eLFqFQqWrRowZgxY/Dz89PrFl5UVBRRUVFYWFjwzjvv4Ofnx4wZM4r9nPTZlrxxw3m9DlD85x8QEMC+ffuUXpHQ0FClLDU1FRsbG+VvOzs7vevNU9A+aagnSU6fBf8cWpN3azivbaOjo7G0tMTNzU3ngP1P+g7jiImJISYmRrkFrG8iXq9ePRwcHFizZk2pfG7PitTUVJ0LSvH0FHZO2rVrl87zIo97knNSYcfXhIQEcnJyGDVqVImGuWm1WuX4+vhQjuLqLer4+vgxAHQvRvWNt7DvaUmPmSqVisGDB7Nu3TpOnz7NV199xYEDB5Re+5iYGMaOHassn5KSovP+kJCQfGPdITfxfrxDRa1Wk56eTmZmpjK+unnz5qxfv54RI0bg7OzMrVu3gOLPx1BwOxTXhgW1/+PHieK29fFt+/XXX/H29mbVqlVoNBqOHDlC69atsbOzM3iaWlG2jPIT91FRUbi4uFC/fn0gdxaHgIAA5WAybtw4ZXznnTt3dJK4iurEiRN07doVMzMzzMzM6NOnj3Kb39bWls8++wwrKyu0Wi3Xrl1Dq9Xq3Ko3MzMjNDRUmcs4T5MmTfD19UWlUqHRaLhx44ZSVtznBLm3bGvVqqXMoa3PcIDi6q1SpYpygmvdujVWVlZYWVkBcOnSJVq2bIm1tTWVKlXS2R594i3KPw/MhbG1tS3wrkV54eXlRVhYGO3atcPJyQl3d3emTp2KlZWVclv0+vXrHD58mEmTJuHu7o6TkxM+Pj60b99ep6779++TmJhI165dUavVNG3aVPmszM3NmTp1Kq+//jpqtRpnZ2dat27N9evX9Y41NjaWrKwsXnvtNSB3OrcOHTpQtWrVUmoNIeD48eN4enoq3/9WrVrpTJmnzzlp/PjxDBo0SOe1oo6vKSkpXLp0ia5duwJQuXJlPvjgA53ZfjIyMnjxxReB3N7SvO9WUYqrt6jj6+XLl6lbty4uLi6oVCo6dOhgULxFSU5OxsLCQq9teNzrr7+OpaUl+/fvJyEhge3btzN48GClPCsri8TEROWfvgn/iRMnaN26tZL4du7cWXk+KDY2Fjs7O2rUqMHt27f5888/+c9//qM8+F/U+bgoxbXhpUuX8PT0RKVS8eKLL+Lm5qbzfn231dbWlnbt2ukca/ft24enpyevvfYakZGRerVRnkGDBrFkyZIChwSKJ2eUVk1LS+Prr7/Gz8+PypUro9FoWLNmjXKFGB4eTkBAgPKhR0ZGVoje8KJs2bIFHx8f5s2bh6WlJefPn1dujSYnJ3PhwgVmzZpFTk4OmZmZBAcH6yTiKpUKOzu7fHPsXrx4kbZt27JgwQKys7OVmUag+M8JcqetGzRoED4+Pjx48IAJEyYUe6u9uHrXrVvHyJEjSUhI4NixY+zZswc/Pz+mTp3KsWPHaNq0KYsWLSI+Pp5Dhw4p4/r0ibco0dHR1K5dGwsLi0LvTOTNmZ13QC6PIiIicHZ25oMPPqBWrVpoNBqioqLw9/fX+TGiCRMmMHbsWIKDg1GpVERFRXHkyBGdunJycpTlhg8fzo0bN5g8eTLR0dFkZWXx22+/8eGHH1KrVi0SExOJiopi2rRpescaHx9PUFAQI0aMYPz48Zw6dYqxY8fyySefoFarC5ypRQhDXbhwgR07dvDFF19gbW3NvXv3dB5K1uecZGNjQ+XKlXVevEo6SAAAIABJREFUK+r4ChAcHMzQoUPp0qULpqam7N+/X+c7GBERwZgxY/jxxx9JTk5m0aJF/Pnnn8VuT1H1FnV8jYuLIywsjMmTJ6PRaNi4caMy44tWqy023qIkJycTFxdH/fr19Ro2CbmJ6rvvvstXX32lJJ0///wzb7zxBh4eHvmOR4Y4c+YM+/btY9q0aZiYmPDXX3+xbNkyIDfh1Wg0ymf8+++/0717d+W4X9T5uDhFteGGDRsICAggNDSUK1eucOjQIYOedcmbWz49PZ1z587x/fffK2V5HXSxsbEGz8TSuHFjfv755xI/JCuKpnJ1ddW5pHJ1dS10jFdhXF1dSzUoQxgaa2krb+0lijZt2jR27dql9Az/U79+/ahWrVqRP070NPfJkux/QpQXcnx9vnh7e2NjY2PQzEui9Hz00UccOnSIo0eP6v0eW1tb5s2bx/Dhw3XG98t5p/QYZWiKEM+qjRs30qtXrwKHs9jY2NCpUyeDpxITQggBO3bsoGXLlnr9KqYoXf/617948cUXlTnL9dWwYUP27NlTIWauM5ZSScSN9eBaeX1grrzGXRH8/vvv3Lx5k169euUr++9//8vu3buLHJYin60QxvU8PdT7vElKSmLt2rX4+/s/879q+jwJDAxk+PDhBAcHGzy85NixYzqz1IjSVypDU6pXr27wr+WVhvT0dL3Hp5WV8tReouw97X1ShqaI51lJ9m9HR8d8Y7WFEKVLzjulp1R6xPN+Vetp0mq1hf4097POGO0lyl553ieFeF6kpqZKr7gQotwolURco9EQGxtLenp6mSeYWq2W9PR0YmNjy+3E80+zvUTZex72SSGeF+np6Tx48CDfj6EIIcSzqNSmL9RoNEYfJlKeSHsJIUTZePTokTxcJoQoF2TWFCGEEEIIIYxAEnEhhBBCCCGMQBJxIYQQQgghjEAScSGEEEIIIYxAEnEhhBBCCCGMoNRmTRFCiOddpUqVSE9Pf+rrtbW1JSUlRaY71YOrq6uxQyg3cnJyyMjIICUlhYyMDGOHI0SFJD3iQgihB09PTzZv3myUdS9YsIA+ffoYZd3i+WViYkLlypWxt7fH2tra2OEIUSFJIi6EEHowMTHu4VKlUhl1/eL5ZWlpSZUqVYwdhhAVkiTiQgghnjtz5szhrbfewtHRkXXr1lGzZk0AmjVrxrp162jYsKGybGhoKI6OjqWy3tmzZxdZPnfuXNauXcu6deuoUaMGAGZmZgwdOpSQkBC+++47goKCePHFF5X3DBo0iM8++wyAb775ho4dO+rU2bFjRyZPnvxEF2vSIy6EcUgiLkQFNG/ePI4ePUqfPn3w8vJiy5YtHDt2jE6dOinLWFtbM3nyZCIiIti5cyeBgYGYm5sr5SqVimHDhrFjxw4OHjxIWFgYAwcO1Ok5Xr16Nd27d2fx4sUcPnyY1atX4+7urhNL8+bNWblyJYcPH2bLli106dJFp3z16tV069aN2bNnExYWxpYtW2jZsqXOMm5uboSEhBAZGcnOnTuZPXs2devW1VmmdevWrF27lsjISFasWEHjxo1L1HZeXl5s2rSJyMhIZsyYgampqUHrGTNmDDt27ODIkSNs2rSJN998M986OnXqxNatW9m3bx8TJkzA0tIy3zI+Pj7s2LGD/fv3M3v2bKpWrapTHhERwfHjx6lbty4jRoxg7969nDx5Ent7+xJtd3mTnp6u/Mv7O8+jR4/y7WelwczMTEmuCzN27FgGDBhATk6O8lrnzp1xdnYmICCAIUOGcO7cOUaOHKmU/3M7/vmcwr59+zAxMeGNN94ocezGvuMjREUl3zwhKqDRo0ezfv162rdvT9++fRk2bBjR0dEkJycrywQFBWFmZkb//v0ZNmwYL7/8Mr6+vkp5165defvttxkxYgSdO3dm+vTpmJmZ6SQYAP7+/oSEhPDmm29y48YNvvzyS+WkX6NGDRYuXMjPP//Mm2++yaJFi5g8eTL169fXqWPIkCEEBwfj7e3N1q1bGTVqlE75rFmzOHv2LF26dGHQoEEcP34cCwsLpfxf//oXU6ZMYcGCBfTs2ZNNmzYxb9487OzsDGo3Ozs72rZti5+fHwMGDKBVq1a0bt3aoPWEh4czdOhQvLy8WLJkCZMmTaJWrVpKef369QkKCmL58uX06NGD3377Ld8DiN7e3nTq1InAwED69OlDfHw806ZN01mmffv2xMTEEBgYSJUqVRgwYAAAKSkpBm1zeZWWlkZaWpqStKalpSll0dHRNGjQoMCLEkdHRyZMmMCCBQv46quv+M9//qNT/tZbb7FgwQIWLlzI559/joODAwD29vZ8++23WFlZERoaSmhoqN7j+mvUqMGVK1d49OgRWq2WrVu38u233yrlxSXiABs2bKBXr14FJtQDBw5k8eLFesUihHi6JBEXogL797//zeTJk7l37x6//fYbsbGxALi4uNC6dWtmzJhBXFwcN2/eZMmSJTq9t2q1mpycHFJSUkhPT+fChQv88MMP+daxatUqzp07R1JSEqGhoTg7O1OnTh0AunXrxrVr11i3bh1JSUmEh4dz5MgR+vbtq1PH6tWruXHjBgCXLl3CyclJp1ytVqPRaEhPTycuLo6NGzdy8eJFpdzb25tNmzZx9OhREhMT2b59O9euXcPDw8Og9kpNTWXKlCk8fPiQ2NhYrl69qgx50Hc9Z8+e5fbt26SmprJ3714ePHigc5fg7bff5sKFC2zdupWMjAx++eUXnW2B3MRq4cKFREdHEx8fz9y5c2natGmBwytq1KjB7NmzSUlJYe/evWRlZRm0zeVVXhKet49mZmbqlB84cCDfEA+AkSNH8scffxAQEMCcOXP44IMPlITdycmJTp06MW7cOEaNGkVERATNmjUDICEhgU8++YSsrCz8/Pzw8/Njw4YNesV65swZOnXqRN++fXnxxRfRaDRcuXJFZ1vyLiQKS8TPnz+PlZUV9erVy1eWkZGhc5EthHh2yPSFQlRgp06d4s6dOwDMnz9fed3NzQ0TExO2bt2qvKZSqXSGYWzZsoXGjRuzZcsWfvvtN3bt2kV4eHi+hOfxxO/mzZtAbnL4119/UbduXa5du6az/LVr1/IN53h82r6srKx8vX4TJ05k4sSJdO/enf3797N161auX7+ulDdo0IC2bdvy9ttvK6+Zm5srvZn6ys7OJjs7Wyeux2PRZz2tWrViwIAB1KxZExMTE6pWrYqZ2f8OxXXr1tVJwv5JrVbj6OjI9OnTde4+aDQaHB0diYuL01l+165dStx544wrgtDQUOWzGjFiRL7yvXv3EhQUxKZNm5TXbG1tadCgAUFBQQDcu3ePqKgo/v3vf7Nv3z40Gg22tra8+uqr/P7770RGRpZKrL/99huzZ8+mU6dOdO/encTERFasWMGZM2cAOHjwoDL+++uvvy70Yury5cu89NJLREdH67y+adMmne0UQjw7JBEXogJLSkoq8HWVSkVmZiZdunQpdO7q9PR0PvvsM6pVq8brr7+On58fffv2xc/PL9/wlMfrBZQEKTMzM19SrVKpdBJTfRw6dIhu3brRvHlzOnfuzJo1a/j44485dOiQssyKFSsK7LEvbUWtp1GjRsydO5dPP/2UQ4cOodVq2bJli84yJiYmevVajx49mvPnzxe7XEXtCdVoNMr/C5oj+8GDB1y7do2WLVsq+7harQZyn6HIY2lpqVwsPnz4kDlz5tC9e3f8/Py4fPkyS5cu5f79+08cb1RUFFFRUZiZmdGlSxfGjRuHv78/qampOvvD49v1T0lJSTL7iRDljAxNEULkEx0djaWlJW5ubsUue//+fTZs2MCnn35KkyZNqF27dqHL5o11zusZv379er7xz3Xr1uXq1asGx5ydnc2pU6eYPn06hw8f1hlGExMTowwhKEvFreeVV17hxo0bHDx4sNALnJs3b+Ls7FxoHUlJSTx48ICmTZs+cbwV3Z49e+jcubOS3CYkJJCTk8OoUaMYPnw4w4cPZ8iQITrzx0dFRTFz5kz8/Py4cuUKfn5+eq3rlVdeoXnz5kDuQ50mJibKEJMOHToozxFkZWXx888/k52dTfXq1Utzc4UQzyBJxIUQ+Vy/fp3Dhw8zadIk3N3dcXJywsfHh/bt2yvLDB06lL59+1KjRg3s7e3p2rUrGRkZ+XoH+/XrR6NGjXB2dmbUqFGcOXNGGYu+fft26tatS9++fVGr1Xh5efHqq6+yceNGvWN1dnZm+vTpNGnSBFtbW/4fe3ceVlW1P378feAAMh0gEAdEBZNwLM0pTdOi0mywxKs/uSn6FUVRAcl5SK8ZardQwxQpuWoalTlESopDouLUKKQWzoooDsygDOf8/uBh5xFkEjwon9fz3Ofm2Xuv9dn7bNb+7LXXXqdNmza0bt1aGVMOEBkZyXPPPYeXlxcODg507NiRWbNmlZjx5EGVV8/FixdxcnKiWbNmGBsbM3z4cBo1aqQ3dGXHjh107txZeWH1pZdeolWrVspynU7HV199xYgRI+jZsycODg688sorjBo1qlr3pS74/fffsbe3x8rKCih6kfWvv/6iX79+AFhaWjJ27FglIW7fvj0jRoxApVKRl5end45BUc+7sbExDRs2xNjYWO9lUHt7e7y8vLC2tua5554jJSVFeVrRtWtX/v3vf1OvXj1UKhU9evRAq9UqfycVZWNjU+pTrgEDBigvkgohahcZmiJEHRQSEkK3bt1QqVT07NmTkSNHcvr0ab11Zs6cSVBQEKGhoahUKuLj44mLi1OWHzlyBD8/PyZOnKi8XBYYGEhWVpZeOX/88QfTpk2jefPmJCQkMGvWLGXZjRs3mDx5Mv7+/gQGBnL58mWmT59e4uXEsty8eZPk5GSCg4Oxs7MjJSWFXbt2sXr1amWd+Ph4pkyZgq+vL+PGjSM5OZmoqKhq/5Gc8ur56aef2Lx5M6tXr6awsJDo6Ghmz57N22+/zZdffgnAsWPHCA0NZenSpdy6dYuEhASOHj2qV8+6deswMjJiypQp2NracubMmRLDYfbu3YuFhQVBQUGMHDmS/v37V+u+Pg50Oh0xMTH8+9//Vj4LDQ1l9OjR9O3bF2NjY/bs2cO1a9cAOHXqFD179mTp0qUUFhaSnp5OWFiYsm1OTg7bt29n0aJFaLVa/vjjD+Xdi927d+Pm5sby5cu5deuW3iwmoaGhjBw5ktDQUIyMjLhy5QqLFi2q9M/Ot2zZstSb2DZt2vDzzz9z+/btSpUnhKh5KhcXF73noy4uLlV6LFxXyfEShlTbz7/169ezadOmSvVwC1GsKuf3vUOd6oo2bdowduxYJkyYoDfsSaVSERERwcyZM0lKSiqzjNrclgjxuJKhKUIIIcQjztPTk82bN5d496Bp06acOXOm3CRcCGEYkogLIWpMTk5OnfkBGSEM5aWXXkKn07Fnz54Sy27fvl2h2YLuN9OREKJmyRhxIUSNqeiMEkKIqtu9eze7d+8udVnx+PbyVHY8uhCiekiPuBBCCFGH3blzR55cCWEg0iMuhBBC1EFarZbc3FwyMzOlR1wIA5FEXAghxGNDZv4QQjxKZGiKEEIIIYQQBiCJuBBCCCGEEAYgibgQQgghhBAGIIm4EEIIIYQQBiCJuBBCCCGEEAagcnFx0fs9XBcXF0PFIoQQQgghRJ1R6vSFMv1Txbm4uMjxEgYj5594nMn5LYR43MnQFCGEEEIIIQxAEnEhhBBCCCEMQBJxIYQQQgghDEAScSGEEEIIIQxAEnEhhBBCCCEMQBJxIYQQQgghDEAScSGEEEIIIQyg1HnEq8LU1BQ7OzvMzc1RqVTVVWwJOp2O3NxcUlNTycvLq7F6atrDOl7iH4/LuSNqryeeeIL69evz119/GTqUOs3c3BxLS0ssLS0xMpL+JiFqE/ltAH3V0kKZmprSuHFjLCwsajypVKlUWFhY0LhxY0xNTWu0rpryMI+X+MfjcO6I2u3tt9/G39+/3PWMjIz4+uuv8fb2rtF4HlY9tYm5uTmOjo5YW1tLEi6EqPWqpZWys7N76AmlSqXCzs7uodZZXQxxvMQ/HuVzp7q4urqydOlSYmNjOXDgAF988QV9+vSpdDkODg5s2bIFGxubGojy8aXVavn99985f/78Y1FPbSK94EKIR0m1tFbm5ubVUcwjU++DelTjrgxbW1siIyPLXS8yMpIWLVpUqY6AgAA8PT31PjM1NWXp0qW0bt26zG3rwndwPyYmJoSGhnLz5k3effddvLy8iI6O5q233sLExKRSZZmamuLk5CQ3llUQHBzMTz/99NjUU1tYWloaOoSHYsmSJbi7u5e5zuzZs3njjTeqVL6HhwezZ8/W+9vu0qUL69evB8DPz4+AgAC9bTQaDTNmzKh0XaNHj2bgwIFVirMsVlZWfPPNN7Rs2ZI+ffqwatUqg5e7cuVKmjdvXuW61Wo1S5cu5aWXXtL73NHRkdmzZ7N69WpCQ0P1lpuZmeHn58fnn3/O559/zqhRozA2NlaWe3t7K9/bZ599hoeHR5Xju5dKpSIgIIDw8HCWL1+ORqOptrIfF9UyRryiF2GVSoVOp6uOKitVb21jqONVG82ePZvLly9XeruOHTvi7OzMp59+qvd5Xl4eYWFhjBs3joCAAAoKCkrd/lE9d6pD48aNqV+/PqtXr1aO/YULF9i4caPeeubm5kyePJk+ffqQm5vLzp07Wb58Ofn5+QBs2LABZ2dnAL7//nsAfvzxRz788EOlDFtbWyZPnkyXLl0wNjbmzJkzrFmzhgMHDlQ43jfeeINhw4bRuHFjMjIy+PHHH/n000/RarWV2u9mzZoxadIknnnmGbKysoiLi2P58uWkpaUBRTcoEydOpG/fvpiZmXHo0CGCg4OV5QAdOnQgMDCQFi1acP36dVauXMmPP/543zqfe+45PvroI2bPns3evXsB+Pjjj+nRowcqlYr4+HhGjRpVaqxTp06lXbt2pKSk8L///Y+oqKhK7W959UyaNImCggKMjY159tlnsbOzIzIyknXr1lWqntqmMr3hj3sbu3r1anJyciq9na2tLUOGDGH69Ol6xyc7O1spLycnp8SNe9OmTR8s4GqWnZ2NTqcjJydH+V9tLrcsKpWKZs2a4e3tXeoTyPHjx5OQkMAHH3xA06ZN+c9//sOpU6dISkpi8ODBmJubM27cOExNTXn//fd58cUXiYmJAdDbh+reH1dXV5566il8fX0pLCystnIfJ9X2sua9WrZsyahRo4iIiGDMmDHY29sTFRXFt99+C0Dbtm0ZNmwYZmZmpKenExYWRlJSEgANGjRg3Lhx2NraolKp+PHHH9m+fXtNhVprvPXWW9jY2JCcnMzAgQPRaDR88MEHnDhxAlNTU7y9vWnbti2FhYXExcWxceNGpZHs0KEDQ4cOxczMjNu3b7N27VoSEhIqVO+rr77Ka6+9hpmZGUlJSYSFhZGSkgLAM888o5SblZXF6tWrOXPmDFD0PY0ePZr69etTUFDA1q1b2bdvX6l1+Pj4YGlpydKlS9HpdEyfPh1XV1elB6W4TKDcfQXw9PRk8+bNpf5hnzhxglu3btGrVy/27NlTsYNfh1y5coVr164xevRoQkJCSE1NLXW9+fPnk5OTw+DBgzEzM2Pu3LmMGDFC6f0ZOnQojRs3ZuvWrbz55pt6CWuxCRMmoNFoGDJkCIWFhbRt2xYLC4tKxZuQkMDMmTO5cuUKzs7OfPLJJ5w7d05J/ivCxsaGVatWsX//fv7f//t/mJmZ8dprr+mtExgYyNNPP82oUaPIzc1lzpw5zJgxgylTpgDQsGFDli1bxqeffsqOHTvo1KkT8+fP58yZMyQmJpaos3379ixatIjg4GAlCQcICgoCio7fiy++WGI7c3NzPvvsM7788ktmzJhB8+bNWbx4MUlJSfz6668V3ufy6gH417/+xdSpUwkJCaF9+/asWrWKrVu3kpGRUeF6HhXlXZP69++Ph4cHKpWKc+fOER4eriQkD3JNKqt9LasNrVevHt7e3rRu3RqdTscvv/zC+vXrS23zunfvzqBBg5g9ezZZWVm888479OvXDwsLCyIjI/Vu4irSvr7++uscO3aM69ev69WTnZ1NdnY2UJSwqdX/pBDdunXD19cXU1NTwsPDAVi2bBnx8fFA2deSuzVu3Jg5c+awePFizp49W+Z307hxY6ZPn87u3bvp0KED9vb2bNiwgbi4OKDoBf3bt28rNxDFsT+osspVqVS8++67dO3aFSMjI44fP05YWJhex0Hbtm3x9/fH2tqaHTt2KOegqakp7777Lh06dECtVvP777/z+eefU1BQQNeuXRkwYAA7duwosR8qlYpjx46xa9cudDodFy5c4MqVKzg5OZGUlMTZs2fZuXMneXl55OXlcerUKRo1aqRsX5OJeHGOJ0n4/dXYQLrk5GSaNGnCwIEDCQ4OZtiwYUqPm7W1NUFBQaxevRp/f39+/PFHAgMDlW2HDBnC/v378ff3Z8qUKbi5uVGvXr2aCrXWSE5OpnPnzrRp04aAgACGDh3KyZMnARg4cCBPPPEEkyZNYtq0aTz77LN06dJF2dbX15eQkBAmTpxIaGio3rKytGvXjtdff505c+bg6+tLYmIi48aNA4oeMwYEBLBixQr8/f35/vvvCQoKUhpff39/fvnlFyZOnMjChQvx9vbGycmpRB2vvfYazs7OhIaGKo19cHAwPj4+3Lhxo8T65e2rg4MDzZs35+jRo/fdr4MHD9KtW7cKHYO6Jj8/nzFjxmBtbc22bdsIDQ2lb9++ehfVJk2a0KNHDz788ENSUlK4dOkSK1asKJG8lsfW1pbCwkIyMjJIS0vjwIED7Ny5s1JlnDt3jr///pusrCxOnjzJkSNHyh16dK/XX3+d/Px8goODuXLlCufOnSvRG/7GG2+wcuVKLly4QEpKCsuWLaN3797Ur18fKEoGzp8/zzfffEN6ejq7d+8mLi6OQYMGlaivRYsWfPLJJyxdupRt27ZVKtZXX32V5ORkvvrqK9LS0vj999/57rvvKn3sK2L//v0cPHgQgL///htjY2MaNGhQ7fXUBmVdk9q3b0///v2ZO3cuAQEByg1osapek8pqX6HsNtTT0xMLCwv8/f2ZPHky7u7upb7H8eSTT+Ll5UVwcDBZWVkAbNq0CR8fHyUhvVt57SsUJdWlbXt30nlvAnr48GG++OILEhIS8PHxwcfHR0nCy7uWFLOysmLKlCmsWrVKScLL+m60Wi3169cnNTWV999/n7CwMIYPH65XZvHNQ3Um4mWV26FDBzp16kRgYCD+/v64ubmVuBa1atWKyZMnM23aNF5//XWaNWsGFL3sbWtrS0BAABMmTMDR0ZG3335bOb7Tpk3Tu6kvptPpiIqKIjc3F4D69evj5OSk3OgcOHCAq1evYmRkhLu7O88++yxHjhwpsS9Q/Yn44/7UqTrUWCKelZWFWq1mx44dyt1/8ZfRrl07kpKSOHXqFABxcXHY2toqd2i5ubl07NiRZs2acefOHZYsWcLt27drKtRaIzMzE3t7e1avXq3sb/Ex69KlC9HR0RQUFHDnzh327t2r98edm5tLr169cHBw4OLFi6xevbpCdXbr1o39+/eTnp4OwMaNG1m0aBFQ9D1dvHhRmWroyJEjmJqa4uzsjJ2dHa6urkpSlZKSQnx8PB06dNAr/5lnnsHDw4PFixffd5jIvcrb15YtW3Lx4sUypyD866+/ePLJJytUX12UlJREYGAgb775Jvv27WP06NF88cUXmJmZAfDUU09hZGTE1q1b2bFjBzt27ODDDz/E2tq6UvUsW7YMe3t7tm/fzvvvv0+nTp0qHWuzZs2YO3cukZGRbNy4kRdeeKHEBbw87u7unDx58r69Mo0aNaJevXp602qdP38elUqlDL9xdXUt8dLj+fPnSzyOV6vVLFmyhJ9++onvvvuuUnECuLm50apVK+W479ixA09Pzxp5wfjuXrriIUeP67Ctsq5JXbp00WsHo6OjS7SvVbkmldW+lteGdu7cmZiYGHQ6HXl5eezbt49nn31Wr3x7e3v8/f355JNPlH0qT3ntq0ajwdHRsdSnPNevX2f+/PnKMfrhhx8qVGdZ15JixsbGvPfee0RHR+s9+Snvu9HpdOzfvx8o+nu0s7PTax+CgoLIz8/n7NmzfPzxxxWKtyLuV+5vv/3G1KlTld7n06dPl7i53bt3LwUFBdy4cYOEhARlrH+3bt3YsWMHBQUF5Ofns2jRIrZs2VKpuKytrZk8eTKbN2/m5s2besu+/PJL5s6dS0xMjN4Uq/v37+ebb74B4JNPPuH06dOVqvN+1Go13bp1q9Lw07qkxoamQNEfSGnzRWo0Gpo3b87y5cuVz4yMjLC1tSU5OZk1a9YwaNAggoKCMDMzY+vWrXViaIpOp+PmzZulPhbWaDSMGzdOSWbVarVeUhAcHIynpycLFy4kNTWVtWvXKr0RZbG1tdX7IykoKFDqsLW1VRq/YpmZmdjY2Cjj4+5OrjMyMvTGrqlUKsaMGUNqaqpyp14R5e2rRqMpEde90tPTldkTKjuWuC65ceMG3377LdHR0ezYsYMXXniBnTt3olKpyM/Pp2/fvg/Um3HhwgXeffddnnzySfr06cPixYvZtGkToaGhFdre3NycsLAwtmzZwoIFC8jPz2fWrFmVjqO8XpniBL20dYov6vn5+SXGH6tUqhI3BQUFBaxevZrAwEA2btyodDhUJtaff/65QtMgisop65rUvXt3nn/+eaDoOzAxMcHY2JjCwsIqX5PKal9tbGzKbENtbGz02rnMzMwSL7p5e3ujUqlKHRZ2P+W1rzY2NuTl5ZV6o1E8JKN4XyqqrGtJsX79+mFkZFTiXYiyvhuAO3fuKG188f/ffTNZfO3R6XTcuXOnwjGX537lWltb8+9//xtnZ2e0Wi0NGjTg6tWretsxNyHQAAAgAElEQVTePRwwMzNT6eCws7PTu/5XNl47OztmzZrFsWPH2Lx5c4nlXl5eODk5MWbMGABlnbu/y+r8jY0lS5ag1WqZPn16tZX5OKrRRBz+6WW5W1paGqdPn2bu3LmlbnPnzh2+/PJLvvzyS5ydnZk+fTqJiYml3qE/bu73R5Camsrq1as5ceJEqcuvXbvG8uXLUalUdOzYkUmTJuHj41NuY5menq7XGJqYmODo6EhSUhKpqaklXgqxtrYmLS2NtLQ0LCwsUKvVSh0ajYbk5GS99WfMmMHYsWN55513lHFw5SlvX8WDK04wihU/XrWysgIgMTERMzMznnrqqTITyeIyyutFPX36NKdPnyYrK4sRI0ZUOBFv0aIF9vb2fPXVV6W2JRV1+vRpBgwYUGK/i129epU7d+7g4uKivKvi6uoKoCQpFy5cKDHW2tXVtdTEbvPmzTRr1oyQkBC8vb25du1ahWNNTEzEw8MDMzOzak0cRJH7XZOio6Pv20ZV9ZpUVvtaXhualpamt61GoymRcEdERNCgQQP8/PyYP39+hW6ay2tfa2IYQVnXkmIHDx7kwIEDBAYGMnnyZCUhLe+7qW2GDBmCubk5s2bNorCwsMTMMqA/s4+VlZUyDOfe79za2hpTU9MSPdul0Wg0zJ07lx07dpS4SXzttdc4dOgQqampXL58mejoaF577bVSk/XqFBgYiK+vLwMHDmTt2rU1WtejzCCTrcbHx9OkSRNatmwJFL2c4e/vr9zhvvfeezRp0gQoGtdXPO6tLjt69Cj9+vVDrVajVqvx9PRUHvMXv/BYr149dDod58+fR6fT6fUEq9VqwsPD6d69u165hw8f5vnnn1d6WgYMGMCIESOAopfkmjZtqky11L17d3Jycrh06ZJyM/Xyyy8DRS8dtWvXjp9//lkpW6fTkZqaSlhYGK+++mqFpyksa1+h6OJW3hRINjY2ZGZmSm94KV555RU2bNhA7969adSoEe7u7sybN4969eop44UvXLjAwYMHmT17Nu7u7jRq1Ijhw4eXGKN6/fp10tLS6NevH7a2tjz99NPK2FkTExPmzZvHCy+8gK2tLU5OTvTo0YMLFy5UONYrV65QUFDAc889BxSdgy+99BIODg6V2ucffvgBjUbD1KlTcXZ2pmXLlvj7+2Nvbw8U3VBs3ryZMWPG4OLiorRJP/30k/LIPyoqCldXVwYNGoStrS2vvPIKXbt2ve/wk2XLlvHnn3+yZMmSSk2pt3PnTgoKCpg9ezaNGzemRYsWzJgxQ+/lKlG9jhw5Qq9evZR2pVu3bnpTo1bkmjR9+vQSP5xUVvtaXht67NgxXn75ZVQqFWZmZvTu3bvEezG3bt1i69atmJmZ0b9//wrta3nta0ZGBqamplV6L+v27ds0btwYtVqNqamp0tNb1rWkWGpqKqdOneLgwYNKjy2U/908CCsrK77++utqna6vOLEuLCzEycmJp556qsSx7NWrFyqVChsbG1q3bq28C3bkyBH69u2LsbExarUaf39/evXqVaF6/fz8iIuLK/VJTZs2bRg8eDBqtRozMzN69OjBxYsXK7xP3t7erFixotJDAvPz89m3b1+502zWdTXeI16a7OxsPvnkE2Umjby8PL766iulp2r37t34+/srX3psbGyd6A0vy5YtWxg+fDghISGYmZmRkJCg/MFlZGTw559/smjRIrRaLfn5+YSGhuolocV/9Pf+ouTx48fZtm0b8+fPx9TUlAsXLrBs2TKl3JCQEPz8/DA1NSU9PZ2PP/5Y+Z6WLVuGr68v/fr1Iz8/n1WrVpXa83fz5k3WrVvHhAkTmDJlCl26dFFeqCm+idBqtWzZsoVt27aVua9Q1GPYrFkzTE1N7/sEwc3NrdQ38kXR+EQnJyfGjh2Ls7MzeXl5xMfH4+vrq/f9zZw5k6CgIEJDQ5Up8O59gUur1Srr+fn5cfHiRebMmUNiYiIFBQX88ssvjBs3DmdnZ9LS0oiPj+eDDz6ocKy3bt1i/vz5jB8/nunTp/Pzzz8TFBTE1KlTsbW1rfAj+Rs3buDr60tgYCDr168nMzOT/fv36/WOL1++nClTpijvV8TGxrJ48WK9MiZPnoy/vz+BgYFcvnyZ6dOn3/eJgVarZfbs2axatYqFCxcSEBBAYWEhYWFhPP3006hUKoyMjDh8+DA3b95UEqmsrCzGjRvHe++9R2RkJJmZmRw8eLDS78mUV4/4x59//sm2bdv4z3/+g7m5OdeuXdObG7oi1yQrK6sSN1xlta9Qdhu6ceNGRo4cqcw0FRcXR2xsbInYtVotn332GfPnz+ePP/7gzp07LFiwAAALCwu6dOnCm2++yYkTJwgJCSm3fc3IyCAlJYWWLVtWaHjjvft7/fp1IiIiuHPnDlu2bOGHH34o91pyt6+++orFixfz4osvsmfPnnK/mwfRpk0bMjIy7jvbV1Vs27aNcePG8eyzz3L58mXWrVvHqFGj+Pvvvzl27BhGRkZcvHiRRYsWYW1tTVRUlHJD8t133zF8+HCWLl2KWq0mLi6OrVu3AkUvgY4fPx4oGrLXrl07hg4dyg8//MCBAwfo0KEDbm5uvPLKK0osmzdv5ocffmDVqlX4+PgQFhaGTqcjISGBDRs2VHif2rZtyw8//FCp4UjFCgoK5Ae2yqFycXHRew7l4uJS6qPWsri4uFRrUJVR2Vir26N2vB4XH3zwAdHR0UoP7r3mzZvH3r17y/whE0OfO9WhKuefEI8KaV8NY+jQoVhZWVVbwltbjRw5ktTU1BofovEo02g0yk1UVSbNaN26NcOGDWPatGnKZ3LN0ie3KeKR9N133/H222/r/TpYsdatW2Nvb1+pH40RQghRZNu2bXTp0kWZuvNxdfesNaJ0rVu3ZufOnVWeuS4tLQ0HB4dK/2pzXVItibih5oh8VOemfFTjrk1+++03Ll26pMyxWszU1JQxY8bw2WeflfkYTb4DIR5P8l7Ig0tPTycyMhJfX9/HdjpLgFmzZlXr3OKPo8OHD/P1119XefsrV65w6NAhVqxYwcqVK+Un7ktRLUNTGjRoUOlfy6sOOTk5lZqNoCY8SsdL/KM2nDvVQYamiMdZVc5vBweHSs93L4R4eOSapa9aesRTU1Mfeg9j8YwcjyJDHC/xj0f53BFClC07O1t6xYUQj4xqScTz8vK4cuUKOTk5NZ5gFv+QzJUrV6p14vmH6WEeL/GPx+HcEUKULTc3l5SUFJm+VAjxSKi26Qvz8vIei0f9D4scLyGEqBm5ubnk5uZy48YNQ4cihBBlkllThBBCCCGEMABJxIUQQgghhDAAScSFEEIIIYQwAEnEhRBCCCGEMABJxIUQQgghhDCAaps1RQjxeDEzM6OgoIDCwkJDhyJEhbm4uBg6BFELabVasrOzyc7OJjc319DhCKGQHnEhRAlWVlYcOHAAZ2dnQ4cihBAPzMjICGtraxwdHTE3Nzd0OEIoJBEXoo7q2bMny5cvL3WZSqV6yNEIIUTNMzIywtLS0tBhCKGQRFyIOsrW1hYHBwdDhyFEtXvppZeYPHlymessXrz4vst8fHxwc3OrdL3t2rUjJCSEDRs2sGDBApo2bVrhbf/73//yxRdfEB4eXul6H0RV97UmuLm5sXz5cj7//HO8vLxKXcff3x9PT88HqkcScVGbSCIuRB1Tv359YmNjmT59Os2bNyc2NpbY2Fj69etXYl03Nze++OILDhw4wP/+9z8aNGigt7xHjx5ERkYSGxtLREQEbdu2rVQs7du3JzY2lpiYGDQaDR999BGxsbF88803eusNHz6cbdu2sWfPHhYvXlziBuKpp54iLCyM2NhYtm/fzuLFi3F1dVWWT5o0ifHjxzN9+nRiY2PZtm0b/fv31yvDxMSEoKAgYmJiiI2NZdGiRdja2irLe/fuTXh4OAMGDGDNmjVs3bqVDz/8EGNjY2UdlUrFmDFj2LZtG/v372fDhg14eXlhZPRPU2tubs6cOXPYu3cv27dvJyAgABMTk0odN/Fg1Go1DRs2vO/yqgzJsrGxYfLkyWzbto3Ro0dz8uRJpkyZond+lOW9995j3rx5la73QVVmX2v6Sdnff/+Nn58fgYGBvPHGG9SrV6/EOl988QWvvvoqTZo0qXI9d/89CmFocjYKUcdcv36dXr16ERwczPnz5+nVqxe9evUiOjq6xLpDhw5l4cKFvPLKK+Tn5zN06FBlWatWrZg7dy5Lly7lzTffZNOmTYSEhGBjY1PhWI4fP07//v2xtbVl/vz5xMbGMmfOHDIzM/ViePnllwkICMDT05Nbt27xwQcf6JWzaNEi/vjjD/r27Yu3tzdHjhzB1NRUb53Bgwfz559/8uqrr/LVV18xe/ZsnJyclOWBgYF07NiRUaNG4enpiaWlJTNmzNAr4+mnn8bR0ZERI0YwZMgQunbtSo8ePZTl/fr1Y8CAAYwfP55XX32VBQsWoFar0Wq1yjrz589HrVYzePBgxowZQ7t27RgxYkSFj5moGJVKhZ+fH6tWreK///2vkrjZ2dmxcuVK6tWrR3h4OOHh4Xo9rB988AFubm5MmzaN8PBwvXPAw8ODoKAgJk6cyAcffMCHH35Io0aNAOjWrRvXrl1j165dZGVlERkZiUajoVWrVgAEBAQwaNAgpk2bxkcffcTMmTNLTTTvFRgYyNtvv6332dixY0v0Ci9YsAA/P79KHaOy9rVly5YsWrQId3d3QkJCWLt2rVLnvU8cOnfuzIIFC5R/Ozo6MnPmTJYuXcp///tfOnfuXKm4MjMzyc/PL/X4ZGVlERMTw4ABA0rd1svL675D7oSojSQRF0LcV3BwMImJieTk5PD7778rSQcUJcibNm3i0KFDpKWlERUVxfnz5+nevXuV6kpJSSEqKopr165x6NAh5XMvLy+WLVtGYmIit27d4uOPP1YS4mK2trbk5eWRk5NDSkoK3333HadOndIr/9ChQ3z//ffk5uayYcMGMjIylFhNTEx44403WLlyJRcuXCAlJYVly5bRu3dv6tevr5SRnp7OqlWr0Gq15ObmcvnyZRo3bqwXh1arJTMzk5ycHP7880/WrFmjLG/SpAk9evTgww8/JCUlhUuXLrFixQpee+21Kh0zcX9t27Zl9+7djB49mlOnTinJbGpqKlOnTqWgoAAfHx98fHzYuHGjst2sWbO4fv06CxcuxMfHhw8//FBZptPpePbZZ/nmm2+YNWsWhw8f5t133wWKepbPnz+vrFtQUEBSUpLS46zVauncuTMhISFMmTIFMzMzvZu4+9m9ezcvvPCC8m+1Wk3nzp3Zt2+f3npZWVlkZ2dX6hiVta/Jyck0adKEgQMHEhwczLBhw/SOU1kmTJjAiRMn8Pf356OPPmLs2LHY2dlVKjadTnffHvi4uDi6dOlS6tOG3NxcMjIyKlWXEIYk0xcKIe7rzp07yn9rtVq9R7pubm707NlTr2fKxMQEe3v7KtUVFRUFwMmTJzl58iRQlNg6OjqyYMECvV7lvLw8HB0dSUlJAYoSilmzZvH666+zZ88etm7dyoULF/TKz8/P19uXS5cuKUNtGjVqRL169Th37pyyzvnz51GpVDg7O3P9+nVlu3vLvPuYbNmyhbZt27JlyxZ++eUXoqOj2b17t1L3U089hZGREVu3blW2UalUFR6+ICru/Pnzys1YQkJCiaFIVXXu3DmuXr0KwK+//spbb70FFE33efv2bb11c3Nz9YYdHT16VPmbOn/+vN7N5P3Ex8ejVqtp2bIliYmJdOrUiXPnzinnZLHg4OAH2q97ZWVloVar2bFjh/J3ptPpyt1Oo9Hg5ubG/PnzAbh27Rrx8fE8++yz7Nq1q8L1JyUl0aNHD7Zt21ai3suXL6PVanFycuLixYt6yzZt2sSmTZsqXI8QhiaJuBCiyiIiIvR6fB9EWb1YgYGBJCQk3Hf5gQMH6N+/Px06dFCGnkyZMoUDBw7cdxsjIyMlsS6eK720REOtrngzmZOTw4wZM6hfvz4vvPACPj4+DBo0CB8fH7RaLSqVivz8fPr27VuhpEZU3d3DmwoLC6ttXHBWVpby37m5uVhZWQFw+/ZtLCws9Na1sLDQO6/vnr/63hvb+9HpdOzZs4cXXniBxMREnn/+efbu3fugu1EhOp1O7+a0IorfqwgJCVE+MzMz03taUBGhoaHMmzeP9u3b6/XUF8vIyECj0VSqTCFqIxmaIkQdVVhY+EAvX50+fZpnnnmmGiMqKT09nRs3bvD000+Xu25hYSE///wzCxYs4ODBg2UO91Cr1TRp0oRLly4BcPXqVe7cuaP3YzDFL3tWNoGAonH4GzduZNq0abRv355mzZoBkJiYiJmZGU899VSlyxS1w90zblhbWysJ/8WLF/XOHxMTE5ycnEhKSnrgOvfu3Uu3bt3QaDS4u7tz9OjRBy6zou5+klRMq9XqPcW5e17u1NRUtFotEydOxM/PDz8/P0aNGsXmzZsrVa+3tzc7d+5k4cKF911HbmbF40AScSHqqMTERJo0acIzzzyDra0tHTp0qNT2kZGRPPfcc3h5eeHg4EDHjh2ZNWtWtQ6z0Ol0fPXVV4wYMYKePXvi4ODAK6+8wqhRo5R1nJycWLBgAe3bt0ej0dCmTRtat25d4pF1jx496NOnD46OjowdOxYTExNiY2OBoiR+8+bNjBkzBhcXFxo3boy/vz8//fST8li+IkaPHs2gQYNo2LAhdnZ29OvXj9zcXGUYwYULFzh48CCzZ8/G3d2dRo0aMXz4cPr06VMNR0tUVG5uLsbGxjRs2BBjY+MS45dzc3NxdnZGpVJhZ2en13Pt6uqqjPt+/vnnlWFUR44cwd7eHg8PD8zNzRk0aBDJyckkJiZWOK7CwkLUanWJG+TU1FQSExMZM2YMR48eJS8vr8S206dPx9vbu8J1VWRf7+fWrVs0bNgQlUqFSqWia9euyrLMzEz++usvZRYmS0tLxo4dW2LGpfK4ubmxe/fuEsPBimk0mlKfog0YMEB5GVeIR4EMTRGijkpMTCQ0NJQPP/wQKysrEhISmDRpUolxrvcTHx/PlClT8PX1Zdy4cSQnJxMVFVWpXvb27dsTGhoKwLp164iNjWXmzJl666xbtw4jIyOmTJmCra0tZ86c0RsOc/PmTZKTkwkODsbOzo6UlBR27drF6tWr9co5ceIE/fv3Z968eVy9epX33nuP9PR0Zfny5cuZMmWKsl1sbGyZc02X5siRI/j5+TFx4kTy8vI4c+YMgYGBesMZZs6cSVBQEKGhoahUKuLj44mLi6tUPeLB5OTksH37dhYtWoRWq+WPP/5gyZIlyvLvv/8eb29vhg8fzo0bN5g5c6YyrCQhIYFBgwbh6upKZmamsl1GRgb//e9/GTlyJCNHjuTs2bMsXbq0UnHduHGD69evExERQX5+Pu+//z5XrlwBYNeuXUydOpVZs2aVuq2VlVWV5scua1/vJz4+nsuXL/PRRx9x8+ZN4uPj9V48DQ0NZfTo0fTt2xdjY2P27NnDtWvXKhWXkZGRMmTsXk5OTqhUqlKfNrRp04aff/65wu2YEIamcnFx0Xu24+LiUukxYXWZHC9hSHL+VcykSZOwt7cvkeSL2q0q5/fdw0Oq20svvUTHjh356KOPaqyO+2nevDkTJ05k0qRJD71uQ1i3bh3jx4/Xu1ku9q9//Yv69euXmKZQpVIRERHBzJkzyx0SJO2mqC1kaIoQQghRi6nVaoYMGcL27dsNHcpDYW9vj5GRUanTMVpZWfHyyy+zZcuWEsuaNm3KmTNnqmVcvhAPiwxNEUI89vLy8khNTTV0GEJUWsuWLZk6dSq//voru3fvNnQ4NcrNzY1JkyahVqtZv349BQUFJdYZOXIkO3bsKDXZvn37doVmcbrfuHMhDEGGpjwgOV7CkOT8E4+z2jY0RTweMjMzuXHjhqHDEAKQoSlCCCGEqCO0Wm2lf4FUiJokQ1OEEEII8VgrTsCzs7PLnRVGiIdJEnEhhBCPDRmqJYR4lMjQFCGEEEIIIQxAEnEhhBBCCCEMQBJxIYQQQgghDEAScSGEEEIIIQxAEnEh6rh69erRunVrQ4chhBBC1Dkya4oQdZi5uTmhoaH8/vvvnDhxwtDhPPLMzc2xtLTE0tISI6PHq59DZiMRQojq93hdKYQQFaZSqQgODubixYuEhoYaOpxyzZgxg6VLlxo6jPsyNzfH0dERa2vrxy4JF0IIUTOkR1yIOuqtt97CxcWF6dOno9PpDB1Ouf76669a/bPUj2MvuBBCiJolVw0h6iAjIyO8vb1Zs2bNI/Mrc9999x2rVq0ydBj3ZWlp+VDrW7JkCe7u7mWuM3DgQKZNm/aQIhJCCFFZkogLUQe1bNmSRo0asWfPnvuus3fvXo4cOYKrqyvjx48nJiaGY8eOYWdnp6zTo0cPIiMjiY2NJSIigrZt2+qVYWlpyeLFi9m/fz+bNm3inXfeISYmRlneu3dvduzYobdNREQE//rXv5R/e3l5cfjwYQ4fPsyxY8cwNjaukVhtbW1ZsGABMTEx7Nmzh/DwcJ5//vlyjuQ/amNv+N69e1m7dq2hwxBCCHEfMjRFiDrIzc2Na9eukZaWdt91+vTpw/r16wkICCA5OZkhQ4bw448/kpmZCUCrVq2YO3cuc+bM4eTJk/Ts2ZOQkBA8PT1JT08H4L333qNBgwYMGjQIY2Njpk+fXulY169fz/r163Fzc2P9+vU1FuuECRPQaDQMGTKEwsJC2rZti4WFRaXjvVerVq0YPnw4NjY2ZGdns2bNGuLj4wFo0KABo0ePpn79+hQUFLB161b27dunbPvmm2/y4osvYmRkxKVLlwgLCyMjI6NEHd27d2fQoEHMnj2brKws2rRpQ0BAAKamppw8eZKFCxfqrd+/f388PDxQqVScO3eO8PBwcnJyHnhfhRBCVE7t68IRQtQ4jUajJKnladiwIYsXLyYzM5OYmBgKCgoAGDp0KJs2beLQoUOkpaURFRXF+fPn6d69OwAmJia88sorrFq1iqtXr5KUlMSGDRtqbJ8eJFYo6hEvLCwkIyODtLQ0Dhw4wM6dOx8oHisrKyZPnswXX3zB2LFjWbt2LZMnT8bc3BwAf39/fvnlFyZOnMjChQvx9vbGyckJgA4dOuDh4cGsWbOYOHEiN27cYMSIESXqePLJJ/Hy8iI4OJisrCwA/vzzT3x8fIiIiCixfvv27enfvz9z584lICCAnJwcBg8e/ED7KYQQomokEReiDsrPz8fExKRC60ZHR1NYWEheXh4zZsxQPndzc2Pw4MHs2LFD+V+LFi2wt7cHoFGjRpiamnL+/Pma2IVqjRVg2bJl2Nvbs337dt5//306der0wPG0b9+ey5cvk5iYCMDx48cZN24ct2/fxs7ODldXVyXZT0lJIT4+ng4dOgDQuXNnDh48qCTXu3btomPHjnrl29vb4+/vzyeffEJKSkqFYurSpQv79+9XngRER0fTrVu3B95XIYQQlSdDU4Sog65fv46Dg0OF1i1tKESxiIgI1qxZU+qy0sZy17Sqxgpw4cIF3n33XZ588kn69OnD4sWL2bRp0wNN7WhnZ6ckvMWKE2sbGxtycnKUXvvi+G1sbJTlly5dUpalp6djbm6OiYkJ+fn5AHh7e6NSqcocYnQvjUZD9+7dlfHvKpUKExMTjI2NKSwsxN3dncmTJyvrBwYGlnlchRBCVJ0k4kLUQcePH8fKygpXV1fOnj1bpTJOnz7NM888c9/k9tq1a+h0Opo3b05SUhJQMjnXarWoVCq9z+79d3UoL9Z71z19+jRZWVmMGDHigRLx1NRUJbEu5uTkpIzPt7CwQK1WK8m4RqMhOTkZKEq8NRqNsp2trS05OTlKEg5FNxcNGjTAz8+P+fPnV2gayrS0NKKjo/n2229LXX769GmCgoKUf1d0CJMQQojKk6EpQtRBN2/e5MCBA7z99ttVLiMyMpLnnnsOLy8vHBwc6NixI7NmzVKS7ZycHH755Rf+7//+DycnJ9zd3QkICNArIykpCY1Go/TODxgwgFatWlV9x6oYq4mJCfPmzeOFF17A1tYWJycnevTowYULFx6o3vj4eJo0aULLli0BaNOmDfPnz8fY2Ji0tDROnz7Nyy+/DBS9uNmuXTt+/vlnAI4ePUqPHj2wsrIC4NVXX+Xo0aN65d+6dYutW7diZmZG//79KxTTkSNH6NWrl5Lkd+vWDU9PT2V5QUEBaWlpyv8ehTnmhRDiUaVycXHRa2VdXFzkp4wrQY6XMKQHOf9cXFz43//+x6hRo5QxzHfbu3cvFhYWFBYWkpqaWmqi16tXL3x9fWnWrBnJyclERUWxfv16pYfXycmJuXPn0rp1a86ePcvOnTsZNmyYknxC0Wwlffv2JTU1lX379tGiRQt+/fVXvvnmGwBGjx7NyJEjAZThEwCDBw9WEuUHjVWlUvHGG2/g5eWFs7MzaWlpxMfHExISwtWrVyt8PEvTpk0bhg8fjqWlJdnZ2axYsUL5zhwdHfH19cXBwYH8/Hw2btzIoUOHlG3vnjXl7NmzfP7558rQliVLlrBy5UpOnTqFk5MT8+fP5/333+fSpUssXrwYOzs7TE1NMTExITs7m8LCQnx9fQHo27cvffv2xdzcnGvXrrFq1SouX75c5v4Zop2T9lUI8biTRPwByfEShvSg51+/fv0YM2YMo0ePrvDLfg+ie/fuzJs3Ty8Rf1zcLxF/XEgiLoQQ1U+GpghRh0VHR/O///2PMWPGGDoUIYQQos6RlzWFqOO2bNnC1q1bH0pdOTk5j+3Lf1qttlb+uqYQQojaS64aQoiH9kLe77//zjvvvPNQ6nrYsrOzDR2CEEKIR4wk4kIIUQ2ys7PRarWGDkMIIcQjRBJxIYSoBrm5uaSkpJCZmSkJuRBCiAqRMeJCCFFNcnNzyc3N5caNG4YORfMZ3p4AACAASURBVAghxCNAesSFEEIIIYQwAEnEhRBCCCGEMABJxIUQQgghhDAAScSFEEIIIYQwAEnEhRCPrBYtWmBra2voMIQQQogqkVlThKhjXFxcDB1CpeXn55OXl0dWVhY5OTnK5507d2bgwIGMHj2a1NRUA0YohBBCVJ70iAshaj0TExMsLS154oknqFevnvJ5ZGQke/fuZenSpZiYmBgwQiGEEKLyJBEXQjwyTExM0Gg0ep+FhYWhUqkYMWKEgaISQgghqkYScSHEI8XS0lLv34WFhYSFhTFkyBC93nIhhBCitpNEXAjxQFQqlcHLPXz4MAAdO3askViEEEKImiAvawpRxzRu3Jg5c+YQExND+/btsbKyIjIykmPHjgFgZWXF+PHjcXZ2BiAqKooff/wRKEqO165dy7Rp0/i///s/XFxcuHDhAnPnzgWgQ4cODB06FDMzM27fvs3atWtJSEgAwNTUFG9vb9q2bUthYSFxcXFs3LgRnU5XbrnlKSgo4OzZs7i7uxMXF1e9B0wIIYSoIZKIC1HHaLVa7OzsuHnzJu+//z5PPvkk06ZN47fffqOgoIB33nmH7Oxs/Pz8aNiwIZ988glHjhwhNTUVnU7H1atX8ff3Z926dcTHx+v1XPv6+jJv3jyuXLlC06ZN8fDwUBLxgQMH8sQTTzBp0iSMjY2ZN28eFy9e5MiRI+WWWxGZmZklxo8LIYQQtZkMTRGiDlKpVErP8enTp4GinnKADRs2EBYWBsDVq1dJS0vD0dFR2TYrK4uEhATi4+MB0Ol0yrLc3Fx69eqFg4MDFy9eZPXq1cqyLl26EB0dTUFBAXfu3GHv3r1069atQuVWhKmpKfn5+ZXaRgghhDAk6REXog7Ky8sjLy9P+fft27exsLAAwNnZmcGDB2NjY4NWq8XW1lavd1qr1XLu3LlSyw0ODsbT05OFCxeSmprK2rVrlcRao9Ewbtw4CgoKAFCr1Zw/f75C5VaEg4MD169fr/L2QgghxMMmibgQdZCJiQlqtVpJii0tLcnKygLA39+fXbt28cMPPwAQHh5eYvv79Txfu3aN5cuXo1Kp6NixI5MmTcLHx4eCggJSU1NZvXo1J06cuG9cVe3RtrW1pXnz5vz2229V2l4IIYQwBBmaIkQd1bt3b6DoBcuCggKuXr0KgLW1NYmJiQD06NGDevXqVWhaQI1Gw4wZM6hXrx46nY7z58+j0+nQarUAHD16lH79+qFWq1Gr1Xh6etKpU6dq2Ze33nqLv//+W4lbCCGEeBRIj7gQdVB2djZ2dnYsWbIEtVrNihUrlN7xb775hgkTJpCamsrhw4fZuXMnPj4+zJs3j5SUlPuWmZGRwZ9//smiRYvQarXk5+cTGhqqJOJbtmxh+PDhhISEYGZmRkJCAtu3b3/gfWnUqBHDhw8nKCjogcsSQgghHiaVi4uL3htRLi4uDzROs66R4yUMqSrn33PPPUdwcPAj/UuUxftsbW3NypUr2blzJ2vWrDFwVKK6SfsqhHjcydAUIeqgmvoRnofNy8uLffv2SRIuhBDikSRDU4QQj6ywsLBKT3MohBBC1BbSIy5EHXP16lW8vb0NHUaVZWdnK/8tSbgQQohHmSTiQohHRn5+PhkZGYYOQwghhKgWMjRFCFHr5efnk5eXR1ZWFrdv3zZ0OEIIIUS1kERciDpGZqEQQgghagcZmiKEEEIIIYQBSCIuhBBCCCGEAUgiLoQQQgghhAFIIi6EEEIIIYQBSCIuhBBCCCGEAahcXFz0fhHDxcXFULEIIYQQQghRZ5Q6faFMb1ZxLi4ucryEwcj5Jx5ncn4LIR53MjRFCCGEEEIIA5BEXAghhBBCCAOQRFwIIYQQQggDkERcCCGEEEIIA5BEXAghhBBCCAOQRFwIIYQQQggDkERcCCGEEEIIAyh1HvGqMDU1xc7ODnNzc1QqVXUVW4JOpyM3N5fU1FTy8vJqrJ6a9rCOl6jdHpfzWVSfevXq0apVK3777TdDh/LIkvZV1DVyLXl0VUuPuKmpKY0bN8bCwqLGGz2VSoWFhQWNGzfG1NS0RuuqKQ/zeInarbaez3PnzuXw4cMcOXKEbdu2GTqcOsXd3Z0VK1ZUaN0ZM2awdOnSGo7o0SLtq6iLauu1RJSvWhJxOzu7h97gqVQq7OzsHmqd1cUQx0vUboY4n59++mmWL19ObGwssbGxLFmyBFdXV6AoEe/WrRtTp059qDGJyvnrr7/4888/DR1GrSLtq6jLHuXcqK6qlkTc3Ny8Oop5ZOp9UI9S3KNHjyY8PJyvv/4aJyenh1KnsbExw4cP54svvmDNmjX4+flVyx1+9+7dmT17dpnruLu7s27duiqVb2pqyrJly2jdurXe502bNmXFihVoNJoyt3+Y50WnTp0IDQ3l999/Z+jQoQwfPpzjx4/TtGnThxaDeHDfffcdq1atMnQYtcqj1L6+8MILhIeHs2HDBl5++eWHUmdNta+2trZERkaWu15kZCQtWrSoUh0BAQF4enrqfebt7c2MGTMA+Oyzz/Dw8NBb3r17dwYMGFDpukaPHs3AgQOrFGdZunTpwvr16wHw8/MjICBAb7mHhwdz5sx5oJvJR+lvQFRTIl7RE6a6eyke1V4PQx2vqli1ahU+Pj5kZWXVaD137+tbb73Fs88+y7x585g4cSJPPPEEw4YNq9H6i124cIG5c+dWadvBgweTkJDAiRMn9D6/ePEie/bswdvbu8ztH+b3PXXqVNatW0d4eDiXL1/m3LlzrF69mp9++qlS5fTo0YPIyEhiY2OJiIigbdu2esvfeOMNvv32Ww4ePEh0dDT+/v4YGf3T7LRv357Y2FhiYmLQaDR89NFHxMbG8s033yjr2NrasmDBAmJiYtizZw/h4eE8//zzlYqzdevWREREEBsby549e1i8eHGVeo0sLCyYMWMGMTEx7N69myVLltCyZUu9dd555x22bNlCXFwcERERuLu76y13dHQkJCRE2e8JEyboHZN7NWzYkG3bthEYGKh85uXlxeHDhzl8+DDHjh3D2Ni4xHbm5ubMmTOHvXv3sn37dgICAjAxMan0Pj9qKvN3ZOg2dt++ffj4+PDzzz/XaD21pX0FmD17NpcvX670dh07dsTZ2ZnNmzfrfZ6Tk0NOTk6J/y7WpEmTqgdbA7Kzs8uMd9euXRgZGfHiiy9WuQ5Dn9eicqrtZc17tWzZklGjRhEREcGYMWOwt7cnKiqKb7/9FoC2bdsybNgwzMzMSE9PJywsjKSkJAAaNGjAuHHjsLW1RaVS8eOPP7J9+/aaCrXWeOutt7CxsSE5OZmBAwei0Wj44IMPOHHiBKampnh7e9O2bVsKCwuJi4tj48aN6HQ6ADp06MDQoUMxMzPj9u3brF27loSEhArV++qrr/Laa69hZmZGUlISYWFhpKSklLudo6MjPj4+ODo6kp+fz9dff82xY8eAoobg3XffpWvXrhgZGXH8+HHCwsLQarUASjLTsWNHOnfujJWVFUOGDAGgd+/ebNmyhYsXLwKwcuVKvR6UN998kxdffBEjIyMuXbpEWFgYGRkZADzzzDPKccjKymL16tWcOXOmROympqbMnz+fXbt2ERMTg1qtZsWKFahUKszMzHj33XcrvK8A1tbWeHh48N5775V6rLZv305oaCgNGzbk6tWr5R7bmuTq6krz5s2Jiop6oHJatWrF3LlzmTNnDidPnqRnz56EhITg6elJeno6AAkJCcycOZMrV67g7OzMJ598wrlz5/j+++8BOH78OP3792fPnj3K97Ft2za94z9hwgQ0Gg1DhgyhsLCQtm3bYmFhUalYr1y5wqeffsqZM2ewsrJi1qxZBAQE8P7771eqnEWLFmFlZcW4cePIzMykd+/eerG89NJLjB8/nqlTp5KYmIiXlxchISG89dZb5OXlYWxszJIlS/j7778ZMGAAjo6OfPTRR1y/fr3U3kRbW1tCQ0OJi4sjJCRE+Xz9+vWsX78eNzc3pXftXvPnzycnJ4fBgwdjZmbG3LlzGTFiRJ3tQS/vmtS/f388PDxQqVScO3eO8PBwJUl6kGtSVdvX8tr8nj17MmjQIExMTLh69Sqffvopt27dAsq+lpTXvpbVhjZo0IDRo0dTv359CgoK2Lp1K/v27Ss1fh8fHywtLVm6dCk6nY7p06fj6uqKRqNhxowZeu1yee0rgKenJ5s3b6awsFDv87IS8WHDhvHKK6+g1Wrp378/UNQLXfwyY1nXkrs1btyYOXPmsHjxYs6ePVvmd+Ph4UHr1q3Jz8/HycmJevXqsWzZMuV4Z2dnk52drcSrVpdMwzZu3Iivry979+5Vrpl3fz8zZsxg/PjxFTqPRO1XY4l4cnIyTZo0YeDAgQQHB5OSkqLcpVlbWxMUFMSiRYs4deoU3bt3JzAwUElihgwZwv79+9m1axf16tXD19eXPXv2cPv27ZoKt1ZITk7Gw8ODM2fOEBAQwO3bt5VjNnDgQJ544gkmTZqEsbEx8+bN4+LFixw5cgQAX19f5s2bx5UrV2jatCkeHh4VSsTbtWvH66+/zqxZs0hPT2fIkCGMGzeuQr3CEyZM4Ndff2XBggU0aNCA4OBgTp8+TWpqKh06dKBTp05KL96iRYvo1q0bcXFxQFFi9O9//5tdu3YxZswY5eKiVqtp0KAB58+fV+q5fv06169fB4puODw8PJgxYwZZWVmMGDGCESNGsHTpUjQaDQEBAcybN49z587RtWtXgoKCmDhxIgUFBUp5KpWK8ePHEx8fT0xMDAAFBQXKheDjjz+u1L5CUW/NhQsXlDjvlZ2dzfHjx+natStbt24t99jWpMaNG1NYWPjANwRDhw5l06ZNHDp0CICoqCjefPNNunfvTnR0NADnzp1T1j958iRHjhyhdevWSiJ+t5SUFKKiomjVqpVSJhQlo4WFhWRkZJCfn8+BAwcqHWtaWhq//vorAOnp6Wzfvr3EzVZ53N3d6datGwMHDlQuqvcmzwMHDuT7779XkoiVK1cyYMAAevfuzc6dO2nXrh2urq6MHTuW9PR0bt26xVdffcWgQYNKlGVhYcGnn37KX3/9RXBwcKVibdKkCT169KBPnz5Ku7lixQpmzZpVZxPxsq5J7du3p3///kyfPp309HR8fHwYPHgwERERQNWvSQ/SvpbV5ltZWTF27FiCgoJITk7Gz8+Pd955h88//1zZ19KuJeW1r+W1of7+/hw4cIDt27fj6OjIokWLOH36tNKJVuy1117D2dmZ//znP0rbXnwOL1++vMS+lte+Ojg40Lx5c44ePVpi23sT27sT8bVr12JhYcHVq1fZsmWL3nZlXUvuZmVlxZQpU1i1ahVnz54t97vR6XR06tSJqVOnkpyczJAhQxgwYADLli1TYrw73tKeZv3/9u49LKpqf/z4e7gqwjAIonJJUVHsppJ5EI+YXeyoWVZ49GCldryFd0kNL5X3y3nMVOxknjQtL6dEKUK8pJwviMeMvpmjmQ4oaEJiynARAgbm94c/9tdpuAsMyOf1PDzK7D1rrb1ms9Znr732mrNnz9KiRQs6d+6MTqcz2VZcXEx2drbZBYlouuptHfG8vDxsbGw4dOiQctVW9gf5yCOPcO3aNX7++WcATpw4gUajoX379gAUFBTg7+9Phw4dKCws5P3337/vg3CA3NxcXF1d2bp1q3K8ZXXWp08fYmNjMRgMFBYWEhcXR0BAgPLegoICgoKCcHNz48qVK2zdurVaeQYEBJCQkKCMYO7du5fVq1dX+T61Wk3Xrl2VFTWuX7+OVqvlscceA+CHH35g3rx5FBUVUVRURHJyMm3btlXen5eXR2FhIdHR0ZSUlChX/S1atEClUpndrivz+OOPk5iYqEyV+eabb/D39wfunFdXrlxRgr9vv/0WOzs7vL29TdIYNWoUpaWlFY4k1vRYAbp06UJycnKl6eh0Orp06VKtPJuCrl27MnLkSA4dOqT8dO7cGVdXV2WfDh068O6777Jnzx727t3LgAEDyh0BApQR+vPnzysBBcCGDRtwdXXlwIEDvPPOO/Tu3bvGZXVycmLq1Kl89tln7N27l9DQ0BrPi/Xz8yM3N1cJwsvj4+NjEuSUlJRw9epVOnbsqGy/efOm8vcGdy5WPD09zTrkBQsWKNNL/jgqVpVu3bphZWXFl19+qXw2K1aswMnJqUbp3E8q65P69Olj0g7Gxsaata+16ZNq276WlamiNj8vL48JEyaQkZEBwE8//US7du2U91bUl1TVvlbWhrq4uNCpUycOHz4M3Llw1mq19OrVyySNnj178vTTT7NmzRqTAZCKVKd99fX15cqVK+Uuy5eQkKBMZXvvvfeqbIfLVNaXlLG2tubNN98kNjZWuZCHqvvjlJQU5bNJTU2lTZs2yrYbN26wdOlS4M559vXXX5dbvosXL5bbX5w7d44JEyZw8+bNah2naPzqbUQc7vzh3z0iVkatVtOxY0eTK2MrKys0Gg0ZGRls376dESNGEBYWhr29PV9++WWzmJpiNBq5efNmubfG1Go1oaGhSsNmY2Nj0uGvXLmS4OBgVq1aRVZWFjt27ECr1VaZp0ajMZmvZzAYqtV4ajQaAJPb5fb29kqZnJyceOWVV/D29qa0tJS2bduajMAajUZldOFuv//+O0ajkVatWpWbr7OzM1evXlV+z87OpmXLltja2qLRaEwCHLjTITk7Oyu/d+7cmS5dunD06FGlE77XYy0rV1UdgF6vNymLpWRkZGBtbU27du2UzqK2tm3bxvbt28vd1rJlSzZv3kxUVBTLly+nuLiYhQsXVphWeec93Jm3/+qrr9KlSxcGDhzImjVr2LdvHxEREdUu55IlS5Q7IXq9nsGDBzNp0qRqv79MVeeMwWAw28fKykoJssv72yrb/sd5nTt27GDLli288MIL7Nu3r0blVKlUFBcX85e//KXa53lzUFmfFBgYqDx7oFKpsLW1xdrampKSklr3SbVtX8vKVFGbr1KpGDJkiBIEOzk5mUxTqKgvqap9rawNNRqN5Ofnm5Q/JyfHpE1TqVRMmjSJrKwsCgoKqnWc1Wlf1Wq1WbnK3F2emqyfXVlfUlxcDMDgwYOxsrIym8ZXVX9894VOSUmJyTMgRqNRuTiq7FzIzs5u1hfOzUm9BuKAckLfTa/Xk5ycXOHtucLCQj777DM+++wzvL29CQ8PR6fTmd2iuR9V1JBkZWWxdetWswcBy1y/fp1NmzahUqnw9/dn9uzZTJgwocpGPzs726QhtbW1xd3d3exWY3nlKS0tZfr06eXeIhs1ahQtW7Zk4cKFlJSUmD0ZDuWfGwaDgatXr9KlSxdlDqGjoyOvvPIKmzdvJjs722T1EY1GQ35+PsXFxWRlZZkFuk5OTuj1euX3zMxMVqxYwerVq/n++++rtfRbVccKVQdoNd2vPqWkpJCWlsZzzz3Hli1bKt23svImJyfTs2fPCgPxstHx3bt3l/tZ11RycjLJycnKbeSaBOJ9+vRh4cKFJudCTV26dAm1Wo2np2eFfx9paWn4+Pgov9vY2ODl5cXu3buV7a6urjg5OZGbmwtAx44duXr1qtnf6oULF1i4cCGrVq0iIyPDZLpOVXQ6Hfb29nTr1k258yjuqKhPio2NVeaL/1Ft+6Tatq9QeZvft29fBgwYwPz588nJyWHQoEH86U9/MtmnvL6kqva1sjZUr9fj4OCAjY2Ncq6q1Wqzi/n58+fzxhtv8NJLL1VYn388zqra1/pQWV9SJjExkePHjzNr1izmzJmjXNhU1R8LURMW+Yp7rVaLl5eXstqAh4cHM2bMUEaN3nzzTeVJ54yMjHpfsaMpOHXqFIMHD8bGxgYbGxuCg4OVW/RlD7+0aNECo9FIamoqRqPR5Ha2jY0NW7ZsITAw0CTdkydP8uc//1lpkIYPH864cePM8jcajSYrLuTm5nLhwgUGDx4MQKtWrXjjjTeU6SeOjo5cunSJkpISPD096datGy1atKjWsR4+fJjhw4fToUMHHBwcmDhxolKGU6dO0a9fPxwdHYE7D0KVzRs8e/YsDzzwgDINIDAwkPz8fJNRj9zcXPR6PZs3b2bKlCnVeuivqmMF85Gh8pQ32mQpq1at4rXXXmP8+PHKw5tjxoxh6tSpJvulp6fTunVrevbsSevWrU2Oec+ePfTt25fRo0fj5uaGv78/CxcuVP6O09PTMRgM9O3bF7jzeTz11FO4ublVu5y2trYsXryYAQMGoNFo8PT0pF+/fqSlpdXoeNPS0ggICMDa2hpvb2/Gjh2Lk5NThdNkyqPVajlz5gxLliyhe/fueHl5ERISwuOPP67sExkZybBhw3j88cdp3bo1U6ZMobCwkPj4eCWNlJQUZs2aRZs2bXj44YcJCQmpMGCJj49n06ZNrFq1ymx1lqqONzExkUWLFuHn50f79u0ZM2YMAwcOrHYazcm3335LUFCQ0g4GBASYLJNXnT4pPDzcbGWk6ravpaWl2Nvbm7xWVZv/66+/kpOTQ4sWLQgMDKyT9rWyNrRsAK1smcW2bdvyyCOPmKz4YjQaycrKYvPmzTz77LPVWqawOu3rH4PmmigoKFCWZXV0dFTqqbK+pExWVhY///wziYmJJnfQKvts6oqzs3O5/YWfnx+ffPKJ2WpMoumq9xHx8ty+fZv33ntPeaq6qKiI3bt3K1fDR48eZcaMGUonGR8f3yxGwysTFRXFmDFjWLduHfb29pw9e1a5NZqTk8O5c+dYvXo1paWlFBcXExERYRKIq1QqnJ2dzebFnjlzhpiYGJYuXYqdnR1paWnKQyV3S0pKYunSpfz+++/s2rWLuLg4IiIimDhxIn/5y1+wtrbm2LFjXL9+HYCYmBhCQ0N57LHH+OWXX/j0008ZP348Fy9eNHsa/o8OHz6MWq1m0aJF2NracurUKWXO++nTp/nmm29YtmwZVlZWXLp0SZlPnJOTw7p165R1cbOzs1m7dm25oyz/+7//y9mzZ/n73//Oxo0b+fvf/05AQAAqlQo7OztlpLjsYaTKjhXujED+cf3aP6rOPPKGkpSURGhoKJMmTeKVV17BysoKrVbLhx9+aLKfTqdj27ZtygOsO3bsUEbAtVotc+fOZfLkyYSGhpKRkUF0dLQyxeLWrVssXbqUqVOnEh4eTlJSEmFhYcybNw+NRoNer+fRRx9VRrY//fRT4uPjWbBggZK/wWDg+++/JzQ0FG9vb/R6PVqtlmXLltXoeJcsWcKiRYuIi4sjNTWVNWvWMGbMGPr3709cXFy10jAajYSFhTF79mw2btyISqXizJkzygPTAHFxcXh5ebF48WKcnZ05e/YsU6dOVW7TG41G5s2bx/z584mKiiInJ4cvvvhCGTEvz86dO3nggQd4//33GTt2LDdu3GDixIm8/vrryj6JiYnAnSU0yy5SFixYQFhYGBEREahUKrRarfKwtDB17tw5YmJiWLJkCS1btuT69esmD7VWp09ydHQ0m/JR3fZVq9UyZswYXnjhBZKSkpQpXRW1+SdOnKB///6sWrWKnJwc9uzZQ1hYGH/7298qPZeg8va1qjZ0w4YNTJ48mcGDB1NcXMxHH31k0g6WuXnzJp9++inTpk1j7ty59OnThzFjxgD/N3BUWlpKVFQUMTEx1WpfO3TogJ2dXY2/vj0uLo7Zs2fz2WefkZOTw8aNGzl//nylfckf7d69mzVr1vDkk09y7NixSj+buuLr60tkZKTZ6927d+fWrVtyp+s+ovLx8TG59+zj41PuHLrK3H0rtqHVtKx1ranVl6gfjo6ObNy4kTlz5vDbb7+ZbXdwcCAiIoLw8PByO64ytTmXLP03IER9kfZVlFm2bBmxsbHKRef97KGHHuKNN95g2rRpZtMD33rrLb7//ntlxa+KSL/QdFhkaooQ95u8vDyOHj3KSy+9VO72oUOHcvr06UqDcCGEEOWLjIzkxRdfLHe5v/tN2ZrpfwzCVSoVXl5eylQ3cX+ok0DcUg+gNYYH32qjqZZbVO7zzz/noYceKvcr7p988kk++eSTSt8v54UQ907+ju5PP/zwA1evXuXFF1+0dFHq1VNPPYXRaOTYsWNm22xtbdmyZQuFhYWVpiF/A01LnUxNadu2bY2/6a4u5OfnW3yEsSnVl2jcanM+y9QUcT+T9lWImmsMsZGovjoZEc/KymrwK7Cyp7ObIkvUl2jcmvL5LERjIu2raM6kL2l66iQQLyoqIj09nfz8/HpvAMu+VCA9Pb3GT083Fg1ZX6Jxux/OZyEaE2lfRXMkfUnTVWfLFxYVFcmtkBqQ+hJCiPoh7asQoqmQVVOEEEIIIYSwAAnEhRBCCCGEsAAJxIUQQgghhLAACcSFEEIIIYSwAAnEhRBCCCGEsAAJxIUQTZ69vX2z+OprIYQQ9xcJxIVoxvz8/Pj44485ceIEhw4dIjg42NJFqjFHR0eOHz+Ot7e3Rcvh6enJyZMnOXnyJN999x3Dhw+vcF8rKyv+/e9/M3bs2IYroBBCiEZHAnEhmimVSsU//vEPEhMTeeqpp3j99ddJTEy0dLHK1b9/fzZt2lTuNpVK1cClKd+1a9cICAggICCAixcvVrpvaWkpp0+fJjU1tV7LNHnyZN544416zUMIIUTt1dkX+gghmhZnZ2fatWvHgQMHKCgo4Nq1a5YuUoU0Gg1ubm6WLkadWrlyZb3n0bZtWwoKCuo9HyGEELUjgbgQzVTZnOrS0tJyt8fFxeHg4MDf/vY3hgwZwgsvvIBGo2HQoEFkZWUB8NJLL/Haa6/h7u7OhQsXWL16NT///DMAU6dOxdbWlt69e+Pi4sLatWt5/fXXcXV15c033+Ts2bNVlrFNmzZERkZiY2ODtbU18fHxwJ0gNjY21mTfrl27smjRIrp160ZycjLz5s0z+XbFfv36MW3aNDw8PEhJSWHt2rXVKsPdHBwcmDlzJgMHDsTK935EeQAAIABJREFUygqtVsumTZvQ6XTVTmPt2rX069cPlUqFVqtl/PjxZvt06NCBefPm8cgjj5CZmcknn3xCdHS0sn3nzp3s2rWLAQMG4OXlhYODAytWrODUqVMADBo0iIULF2JnZ4fRaOS5554DYOTIkWRkZNTomIUQQtQfmZoiRDP01VdfKYFdVFQUJ06c4K233jLZZ+DAgSQnJzNz5kycnJwYNWoUALm5uQA89dRTTJ06leXLlzNkyBCSkpJYt24ddnZ2Shp//vOfmTNnDomJiUybNo25c+dy9OhRBg8eXK1y3rhxg6CgIFauXElqaipBQUEEBQWZBeEAISEhrFq1ikGDBlFcXExISIiyrXv37rz77rusX7+e559/nn379rFu3TqcnZ1rVG+rV6/G19eX0NBQRo8ezcmTJ3FwcKhRGmFhYQQEBLB+/fpyt7ds2ZIPPviAhIQEhg0bxtKlS5k2bRr+/v4m+40fP56IiAhCQkL48ssvmT59urLt8OHDSj3t379fqTcJwoUQonGRQFyIZuj5559n2LBhAAwfPpzAwEBWrVpV7r7t2rVjzZo15ObmcuTIEQwGAwAvv/wyX331Fd999x16vZ4PP/wQGxsbnnjiCeW9SUlJpKenc+vWLX744QeuXbvGrVu3cHJyqvNjWrlyJTqdjvz8fE6fPk379u2VbSEhIezbt4///ve/6PV6oqOjSU1NJTAwsNrp+/n5ERAQwDvvvINOp+PXX39lz549/Pjjj3V6HM8++ywZGRns3r0bvV7P6dOniYyMZMiQISb77dy5kytXrgBw4cIFk+MVQgjRNMjUFCFEpWJjYykpKaGkpIT58+crr/v4+HD48GHl95KSEq5evUrHjh2rTLM+HrAsLCxU/l9aWoqV1f+NM3Tt2pX+/fubrGRia2uLq6trtdP38/MjNzdXCX7rS9euXenevTuHDh1SXrOysuLMmTMm+xmNRuX/BoPB5HiFEEI0DRKICyEqlZOTU+7rBoPBJBiEOwFjY13Pe9u2bWzfvv2e0vjj8dYHlUpFUlISM2bMqPe8hBBCWJYMoQghaiUtLQ0fHx/ldxsbG7y8vLh06VKd51VSUnJPo+jJycn07Nnznspw6dIl1Go1np6e95ROVXQ6HQ8++CD29vb3nNYf7wwIIYRoXKSFFkLUSmRkJMOGDePxxx+ndevWTJkyhcLCQmVlk7qk0+nw8vKiZ8+eaDQaevXqVaP379mzh759+zJ69Gjc3Nzw9/dn4cKFNRq912q1nDlzhiVLltC9e3e8vLwICQnh8ccfN9s3PT2dxx57jDZt2tC5c+calfXw4cMYDAYWLVqEh4cHnTt3Zv78+bWaA56cnIy/vz9eXl64u7vj5+dX4zSEEELUH5maIoQoV9nyhWFhYbz++usMHTrUbLuXlxeLFy/G2dmZs2fPMnXq1HpZt1qn0xEREcGKFStwdHTk7NmzzJ49m99//71a79dqtcydO5fJkycTGhpKRkYG0dHRNRplNxqNhIWFMXv2bDZu3IhKpeLMmTN8++23Zvtu2rSJJUuWEBUVxbVr15g4cSJ6vR6AzZs306NHD1QqFVZWVpw8eZKbN28q9ZuXl0doaChvvvkme/bsITc3l8TExGof69327t2Lr68vO3bsoLS0lJiYGGV5SSGEEJan8vHxMZn06OPjw+XLly1VniZH6ktYkpx/4n4m57cQ4n4nU1OEEEIIIYSwAAnEhRBCCCGEsAAJxIUQQgghhLAACcSFEEIIIYSwAAnEhRBCCCGEsAAJxIUQQgghhLAACcSFEEIIIYSwAAnEhRBCCCGEsAAJxIUQQgghhLAACcSFEEIIIYSwAAnEhRBCCCGEsACVj4+P8e4XfHx8LFUWIYQQQgghmg2b8l68fPlyQ5ejyfLx8ZH6EhYj55+4n8n5LYS438nUFCGEEEIIISxAAnEhhBBCCCEsQAJxIYQQQgghLEACcSGEEEIIISxAAnEhhBBCCCEsQAJxIYQQQgghLEACcSGEEEIIISyg3HXEa8POzg4XFxdatmyJSqWqq2TNGI1GCgoKyMrKoqioqN7yqW8NVV9N0f3yGTc3KpUKJycncnJyGjxve3t7DAYDJSUlDZ63aHykfa09aX+FaFh1MiJuZ2eHh4cHDg4O9d7oqVQqHBwc8PDwwM7Orl7zqi8NWV9N0f3wGTdHtra2HD16lE6dOjVovo6Ojhw/fhxvb+8GzVc0TtK+3htpf4VoWHUSiLu4uDR4g6dSqXBxcWnQPOuKJeqrKWrKn3Fj98orr/Ddd9+Z/bi6ut5z2vVxbvfv359NmzY1WH6i6ZL2tW5I+ytEw6iTQLxly5Z1kUyTyfdeNdVyV+X999/Hz8/P7PWZM2cSHBxs8pqdnR3r16/nwQcfrDTN+7WuGoOLFy/y5JNPmvzcvHnT0sUql0ajwc3NzdLFEE3A/dpmTJw4kZdfftns9aeffppFixaZXXzMmDHDrN2tqfu1LoVoTOokEK/u6ENdj1I01VEPS9WXJfj7++Pt7c3+/ftNXi8qKmLz5s2EhoZiY1Pxowr3Qx00VqWlpeTm5pr8lHFycuLUqVP4+/uzZcsWvvjiCz755BPatm2r7KNSqQgNDeXo0aN8/fXX/O1vfzPLQ6PRsHz5co4cOcKxY8fYsmULf/7zn6tdxjZt2hAfH094eDgdO3YkPj6e+Ph4Bg8ebLZv165d+fjjjzl+/LhZWQH69evHnj17iI+PZ9u2bTz88MPVLgfAo48+Snx8PEeOHEGtVvOPf/yD+Ph4Pv/88xrl061bNzZv3kx8fDwHDhxgzZo1JtN5nnjiCT766CNGjhzJwYMHiYuLY9asWSZ/C7a2toSFhXHkyBHi4+NZvXo1Go1G2V7dz2/SpEnExMSQkJDArl27GD16NFZWpt3CmDFjiImJ4dixY6xZs6bRXxDVpM1o6u2LRqNh1KhRfPjhhxiNRpNtH3/8Mc8++yxeXl61Tr+p148QTUGdPaz5R76+vowfP55t27YxadIkXF1diY6O5osvvgDg4Ycf5rXXXsPe3p7s7Gw2b97MtWvXAGjbti2hoaFoNBpUKhUHDx7kwIED9VXURuOFF17A2dmZjIwMXn75ZdRqNcuWLeOnn37Czs6OsWPH8vDDD1NSUsKJEyfYu3ev0vj26tWLkJAQ7O3t+f3339mxYwdnz56tVr5Dhw7l6aefRqVScfnyZbZs2UJ+fj4eHh6Eh4dz9OhRevXqhaurK7t27eLEiRPAnYBi8uTJWFtb88MPP5h1BADBwcHs37+/3IfofvrpJ27dukVQUBDHjh27h5oT9UGlUvHqq68yc+ZMbt++zcaNGwkJCWHdunUAjBgxghdffJHZs2ej0+mYOHGiWRrTpk1DrVYzatQoSkpKePjhh3FwcKh2GW7cuEFQUBDDhg3jlVdeYeTIkRXuGxISwvLly7l27Rrr1683KWv37t159913efvttzl//jz9+/dn3bp1BAcHk52dXa2ynDlzhqFDh3Ls2DGWLl3KN998Q0xMDK+++qqyT3XyWb16NYcPH2bWrFk4OjrSv39/s7m4Dz/8MJcuXSI4OBg/Pz/Wr1/PxYsXiYmJAWDWrFn06NGD8ePHU1BQwNtvv838+fOZO3eukkZVn9/gwYMZPnw4oaGhXL9+HR8fH3r37k1paalJnT7zzDPMnDmTmzdvMnHiRJYtW8bkyZOrVWeNSVV9UkXtINxbn1RZuh999BGff/45ffv2pU2bNiQlJbFjxw7gTpA9c+ZM3NzcuHbtGgUFBWZ3rJ577jm+++47bty4YZZvXl4eR44cYfjw4URERJhtX758Oenp6RVO+RJCNIx6W74wIyMDLy8vXn75ZVauXMlrr73G3r17gTujNWFhYWzdupUZM2Zw8OBBZs2apbx31KhRJCQkMGPGDObOnUvXrl1p0aJFfRW10cjIyODxxx/noYceYubMmYSEhHD+/HkAXn75ZVq3bs3s2bN56623eOyxx+jTp4/y3smTJ7Nu3TqmT59ORESEybbKPProowwdOpR3332XmTNnkp+frwQ7paWltGnThqysLN555x02b97MmDFjlPdOmjSJqKgopk+fjlarxcPDwyRtNzc3OnbsyKlTpyrMPzExkYCAgGrXkag7vr6+xMXFKT8hISFm+2zcuJHbt28DoNPpaN++vbLtpZdeYv/+/fz444/k5+fzwQcfmL1fo9FQUlJCTk4Oer2e48ePc/jw4Xo5npUrV6LT6cjPz+f06dMmZQ0JCWHfvn3897//Ra/XEx0dTWpqKoGBgbXKKzMzk+joaK5fv85///vfGuWj0WgoKioiPz+fzMxMIiMj+fnnn03Sv337NqtXryYvL4+kpCQSEhLo378/cGc0fNiwYXz44YekpaWRmZnJhg0beOKJJ2jTpo1JOpV9fhqNRrkrkp+fz7lz59i+fbvJ+0ePHs2GDRvQ6XTcunWLtWvX0qNHD9zd3WtVb5ZUWZ9UWTsIte+Tqkq3tLSUzp07s3TpUsLDw3n66adp164dcKfNv379OlOnTuWjjz7i0UcfNUs/ICBAGRgpz4kTJ+jTpw/W1tZm2/Ly8pRzQwhhOfUWiOfl5WFjY8OhQ4fIzMwEUEZMH3nkEa5du6Z0PidOnECj0SidREFBAf7+/nTo0IHCwkLef/99fv/99/oqaqORm5uLq6srW7duVY63rM769OlDbGwsBoOBwsJC4uLiTALYgoICgoKCcHNz48qVK2zdurVaefbp04eEhARltC42NtYkXaPRSEJCAgCpqam4uLhgY2ODWq3G09OTxMREAJKSkswadV9fX65cuVLpElgXLlygS5cu1SqrqFuXL19m9OjRys9XX31lts/do6PFxcXKtAWVSkXHjh1JTk6uNI8NGzbg6urKgQMHeOedd+jdu3fdHsRdCgsLlf+XlpaaTLHo2rUrI0eO5NChQ8pP586da/1wanR0NADnz5/nX//6V43yWbhwIcHBwcpFbIcOHczSLy0tNbnDdPXqVWVaSfv27WnRogWXL19WtqempqJSqcxWjqno8wOIiorixx9/JCoqivXr1/OXv/wFW1tbZbtGo8Hd3Z3ly5crx/L1119TVFTUJAPxyvqkqtrB2vZJVaULEB8fD9y5+MrMzFTq9sEHH1Ta15s3b/LTTz+ZvE+tVuPu7o5Op6sw/19++YXS0lI8PT3Ntq1cuZJPPvmkymMQQtSvepuaAncaubs7izJqtZqOHTua3BKzsrJCo9GQkZHB9u3bGTFiBGFhYdjb2/Pll182i6kpRqORmzdvlrsOs1qtJjQ0FIPBAICNjQ2pqanK9pUrVxIcHMyqVavIyspix44daLXaKvNUq9UEBgYq83ZVKhW2trbKCEphYaHSmZf9q1KpaNWqFUVFRUp5AOV2691pV3XbPzs7m1atWmFlZWUSNIj6ZzAYSE9Pr9V7VSoVKpWqynW709LSePXVV+nSpQsDBw5kzZo17Nu3r9xb5fVt27ZtZiO+tVXZWulV5XP8+HGGDh1Kr169ePbZZ9m9ezdz587l+PHjFb5HpVIpfx9ldV7eVLDKnrf4o/z8fObPn0+bNm0YMGAAEyZMYMSIEUyYMMHkb3HWrFnVnubW2FXWJ1XUDpaUlNS6T6oqXbgT5Je5+wLS0dHRZHDjjwMdzs7OFBUVVXlBkJOTg1qtrrKsQgjLqNdAHO6MwvyRXq8nOTmZd999t9z3FBYW8tlnn/HZZ5/h7e1NeHg4Op2u0iv/+0VFo8dZWVls3brVbFSkzPXr19m0aRMqlQp/f39mz57NhAkTTALl8uj1emJjY5V5ktV1+/Zt7OzssLGxwWAwYGVlJY19M1JaWkpGRobZdKSKJCcnk5ycTF5eHuPGjatxIF5SUnJPD44lJyfTs2fPOgvE7zWfkpISkpKSSEpKQqPRMGTIkEoDcR8fH65cuQLAr7/+SmFhIT4+PspzNWUPe959cV5dN27cYO/evfz444/s2rWLDh06cPnyZbKzs/ntt9/o0aPHfROIQ8V9UmXtYG37pNq2r3CnjXV0dFR+12g0ykg+lH8hVpGa7CuEaFgW+Yp7rVaLl5cXvr6+AHh4eDBjxgxlFPbNN99UnvTOyMggLy/PEsVsVE6dOsXgwYOxsbHBxsaG4OBg5Ta/Wq1m/vz5tGjRAqPRSGpqKkaj0WRUy8bGhi1btpjNif32228JCgpSguiAgIBqLXmVk5PD9evXGTBgAAADBw40G43Lzs6uMjh3dnYmNzdXRsMtxM7OzuTnjytmVObgwYM8//zzODk5YWVlxZQpU0y229rasnjxYgYMGIBGo8HT05N+/fqRlpZW43LqdDq8vLzo2bMnGo2GXr161ej9e/bsoW/fvowePRo3Nzf8/f1ZuHBhuXNn70VV+Xh6erJ8+XIeffRR1Go1Dz30EA8++KASZJdxcXFh7NixuLu7M2jQIPr166eMwJaUlLB//34mTZqEj4+P0n7+5z//MQnUqjJx4kRGjBhBu3btcHFxYfDgwRQUFCgP/hmNRnbv3s24cePo378/bm5uDBo0iPHjx9dRbTUeVbWD1emTwsPDGTt2bI3SrcyFCxcICgpCpVLxwAMP0K1bN5PtOTk52NnZVTlXXa1Wl3sH56233uKtt96qVlmEEPWn3kfEy3P79m3ee+89JkyYoExx2L17t3Kr7ujRo8yYMUMJ7OLj45vFaHhloqKiGDNmDOvWrcPe3p6zZ88qHXNOTg7nzp1j9erVlJaWUlxcTEREhElwq1KpcHZ2Nlud4dy5c8TExLBkyRJatmzJ9evX+eijj6pVpg8//JDJkyfz17/+lYSEBNLS0kwCOZ1OR4cOHbCzs6twpL9r166kpKTUtDpEHfDz81PmoJaZNWtWpSOzd/v4449xd3cnMjKSX375hdjYWJPpSQaDge+//57Q0FC8vb3R6/VotVqWLVtW47LqdDoiIiJYsWIFjo6OnD17ltmzZ1f72RGtVsvcuXOZPHkyoaGhZGRkEB0dXaNR9kcffVQZyf/000+Jj49nwYIFNcrn5s2bZGRksHLlSlxcXMjMzOSbb74xe6YjOzsbZ2dndu7cSUlJCevWreO7775Ttm/atIm5c+cq74uPj2fNmjXVPha4EyROmTKF6dOnU1RUREpKCrNmzTIJMj/99FOsrKyYO3cuGo2GlJSUer+rYAlVtYPV6ZMcHR1p1apVjdKtzN69e5kxYwZbtmwhJSWF48ePm7SvOTk5ZGZm4uvrW+E0RE9PT1QqlXLnpIy1tTUPPfQQ//znP6tVFiFE/VH5+PiY3LPy8fEpdw5dZXx8fOq0UDVR07LWtaZWXw1t2bJlxMbGmgV8ZRYvXkxcXBz/+c9/KkzD0p9xY1ab8080bk888QTh4eE8++yzli6KxUn7WrmQkBAcHR0rDO7/+te/0qZNG7MlCjt37sycOXOYMmVKlc95SPsiRP2yyNQU0XxERkby4osvljsF4MEHH8TV1bXaI7BCCCH+T0xMDH369DFbthLujNA/88wzREVFmW3r1q0bhw8frjIIF0LUvzoJxC31IEhTfQClqZa7Nn744QeuXr3Kiy++aPK6nZ0dkyZN4oMPPqj0gdLmVFdCwJ054DWZ6y1MNac2Izs7mz179jB58mSzaVavv/46hw4dMpuWAnDp0qVqreffnOpSCEupk6kpbdu2rdG35dWV/Px8rl+/3uD53q0p1VdT1Bg+48ZMpqaI+5m0r5Yl7a8Q9a9ORsSzsrIa/MrZaDSSlZXVoHnWFUvUV1PUlD9jIYRlSPtaN6T9FaJh1EkgXlRURHp6Ovn5+fXeABqNRvLz80lPT6/0Gxsbs4asr6bofviMhRCWIe3rvZH2V4iGVWfLFxYVFcktrBqQ+hJCiPoh7asQoqmQVVOEEEIIIYSwAAnEhRBCCCGEsAAJxIUQQgghhLAACcSFEEIIIYSwAAnEhRBCCCGEsAAJxIUQ9cba2ho7OztLF6NRa9WqFdbW1pYuhhBCCAuQQFwIUSErKyv+/e9/M3bs2Fq9f/v27QwbNqxuC3WfGTduHMuXLzd73cfHh9jYWHr37m2BUgkhhGgIEogLISpUWlrK6dOnSU1NLXe7m5sbUVFRODs7l7tdpVLVY+lMTZ48mTfeeKPB8qtL5dVTdnY2p0+f5saNGxYokRBCiIZQZ1/oI4S4P61cubLCbXZ2dnh6ejZowF2Rtm3bUlBQYOli1Jlbt24RHh5eJ2nZ2trSvn17AgMDSUhI4Nq1a3WSrhBCiHsjgbgQzcyRI0dYvHgxx48fN3nd09OTffv2ERQURGFhIWvXrqVfv36oVCq0Wi3jx4832X/Xrl14e3sD8NVXXwFw8OBBVqxYYbKfs7Mzy5cvp3///uj1epYtW8apU6eU7b169WLWrFl07tyZGzdu8OGHH3Lw4EFl+86dO9m3bx+RkZEABAYGsnjxYp555hkABg0axMKFC7Gzs8NoNPLcc88BMHLkSDIyMqpdLxqNhjlz5tCnTx+sra1JSUlh+/btJvXUoUMH5s2bxyOPPEJmZiaffPIJ0dHRyvbZs2djMBiwtrbmsccew8XFhT179vDpp58q+/j6+rJgwQI6deqEVqtFr9eblSUuLo6WLVtiZWXFtm3b+Oc//2myfefOnezatYsBAwbg5eWFg4MDK1asMKnX/v37ExoaipubG87Ozvzyyy/odDrOnTsngbgQQjQSMjVFiGYmJSVFCaDXrl3LkSNHgDuBeEZGBoWFhQCEhYUREBDA+vXry00nJCSEkSNHAvD8888TFBRkFoQD/PWvf+XgwYM8/fTTHDt2jOnTpyvb2rVrx4YNG/j6668ZMmQIGzdu5O2338bX17fax3P48GGCgoKIjY1l//79BAUFERQUVKMgHGDatGmo1WpGjRrFSy+9xPbt23FwcFC2t2zZkg8++ICEhASGDRvG0qVLmTZtGv7+/mbHe+rUKV555RXCw8OZMmUKarUaAHt7e95//30uXrzIc889R0REBD179jQry8CBAwkICCA+Pr7C8o4fP56IiAhCQkL48ssvTerV29ubNWvWsHHjRp555hleeOEFWrZsye7du9FqtTWqFyGEEPVHAnEhmpmUlBQ8PDwA6Nq1K/n5+bRp0wZPT08uXbpU5/nt2LGDhIQEioqKOHnyJO3bt1e2DR06lNTUVD7//HOys7M5evQoJ06cYMSIEXVejqpoNBpKSkrIyclBr9dz/PhxDh8+rGx/9tlnycjIYPfu3ej1ek6fPk1kZCRDhgwxSSchIYHExEQALl68iLW1NW3btgWgX79+aDQa3n//fXJycjh//jyxsbG1Ku/OnTu5cuUKABcuXDCp1+7du5Odnc2JEycAyMjIICUlhb59+9YqLyGEEPVDAnEhmpmyEXGNRkNxcTE//fQTXbt2xcvLq14C8bIRdrjz8KeV1f81O506dTJ7EDQ1NZUHHnigzstRlQ0bNuDq6sqBAwd45513zFYr6dq1K927d+fQoUPKT3BwMC4uLib7lZaWKv8vLi4G/u9hzE6dOvHrr7+Sn59/z+U1Go3K/w0Gg0m9arVaHBwcCAwMBO7c7fDz8+PMmTP3nK8QQoi6I3PEhWhmUlJSGDVqFH5+fiQnJ3Pp0iW6dOmCp6cnCQkJDVqW4uJikwAS7gStNjYN3zSlpaXx6quv0qVLFwYOHMiaNWvYt28fERERSrmSkpKYMWNGrfNQqVQYDIa6KnKFMjIy+Mc//sE777yDXq+noKCAiIgIZaReCCFE4yCBuBDNTEpKijJCmpycTGpqKk888UStRsRLSkqA2i9TmJaWxpNPPmnyWqdOnbh8+bLy+90jv5Xl9cfR9tpKTk4mOTmZvLw8xo0bpwTiOp2Op59+Gnt7e5NR/pr45ZdfcHd3x9raWqm7+vLiiy+yePFiZXqKEEKIxkempgjRzOTl5aHX6+nfvz86nY5Lly7h6+tL+/btK1wvvCI3btxAr9czePBgNBoNPXr0oEWLFtV+f3R0NJ06dWLEiBFoNBoGDRrEn/70J2WFFIBr167RpUsX4M487smTJ5ebVnJyMv7+/nh5eeHu7o6fn1+1y2Fra8vixYsZMGAAGo0GT09P+vXrR1pamrLP4cOHMRgMLFq0CA8PDzp37sz8+fNN5mZX5cSJE6hUKoYPHw5Ax44d6+0Lj1q3bk2XLl3QaDSo1eo6uUgRQghRt2REXIhmSKfTERgYyMWLF8nMzMTLy4vffvvNZB3uzZs306NHD1QqFVZWVpw8eZKbN28ydOhQZZ/S0lIWLFhAWFgYU6ZM4cqVK7z99tvodLpqleO3335jzpw5zJgxg1mzZvHLL78QHh7Ozz//bFKOZcuW8cUXX3Djxg22b9/OvHnzzNLau3cvvr6+7Nixg9LSUmJiYkzSqYzBYOD7778nNDQUb29v9Ho9Wq2WZcuWKfvk5eURGhrKm2++yZ49e8jNzSUxMZHff/+9WnnAnS/pmTt3LnPmzCEkJITU1FQOHjxIu3btlH2sra2VKSRWVlYEBQUxZswYvvnmGxYuXFjtvD744APmzJnDtGnTAMjJyWHr1q3s3Lmz2mkIIYSoXyofHx+T+74+Pj4mt4VF5aS+hCXJ+SfK4+joCNy5eIA7Sy/27t2btWvXMnLkyCZzzsj5LYS438m9SiGEuM+89NJLrF+/Hnd3d2xtbbG3t8fFxQWDwUBWVpaliyeEEOL/k6kpQghxn4mMjMTX15edO3fi5OREbm4uycnJTJ8+vdxv8hRCCGEZEogLIcR95vbt2yxatMjSxRBCCFEFmZoihBBCCCGEBUggLoQQQgghhAVIIC6EEEIIIYQFSCAuhBBCCCGEBUggLoQQQgghhAVIIC6EEEIIIYQFSCAuhBBCCCGEBUggLoQQQgghhAVIIC6EwM7OjhYtWli6GEIIIUSzIoG4EILevXsTHR1t6WIIIYQQzYoE4kKIWnNzcyMqKgpnZ2dsvW/rAAAEHUlEQVRLF0UIIYRociQQF0LUmp2dHZ6enqhUKksXRQghhGhybCxdACFEw3NycmLRokUEBASQnp5OYmKi2T6zZ8/mqaeewsXFhV9//ZV//etfHDhwQNm+a9cuvL29Afjqq68AOHjwICtWrFD2GTZsGK+99hoeHh7k5ORw8OBBNm7cSGlpaT0foRBCCNH4SSAuRDO0cOFC3N3dGTlyJAaDgaVLl5rtc/ToUf7973+TnZ1N3759WbJkCVqtlqtXrwIQEhKCh4cHX375Jc8//zx6vd4sjbNnz7JgwQLS09Px9vbmvffe4/Lly0rgLoQQQjRnMjVFiGZGo9EwcOBA/vnPf5KRkcGNGzfYsWOH2X4//vgj165dIy8vjyNHjvDbb7/h5+dXo7wuX77MxYsXycvL4/z583z77bc8+OCDdXUoQgghRJMmI+JCNDMdO3ZEpVKRkpJS6X4BAQGMGjUKDw8PrKyscHNzw8amZk1Ghw4dGDduHH5+ftjY2ODq6srRo0fvpfhCCCHEfUNGxIVoZqytrQEwGAwV7vPQQw+xdu1aIiMjGTlyJMHBwVy/fr1G+bRs2ZLNmzfz66+/8uqrrxIcHCxBuBBCCHEXCcSFaGbK5nh7eHhUuE/v3r25cuUKCQkJGI3GCvcrKSkBKHfVlM6dO+Pq6sru3bspLi6+x1ILIYQQ9x8JxIVoZjIzMzl9+jSjR49GpVLh4ODAuHHjTPa5cuUKnp6edOjQAWtra8aMGUP79u1xdXU12e/GjRvo9XoGDx6MRqOhR48eyjd0pqenYzAY6Nu3LwCBgYE89dRTuLm5NcyBCiGEEI2cBOJCNENvv/02bm5ufP3116xbt464uDiT7f/5z3/Yv38/W7duJTY2ltatW7No0SL69etnsl9paSkLFizghRdeICYmhrfeektZ0vDWrVssXbqUqVOn8j//8z+8/PLLhIWF0b59ezQaTYMdqxBCCNFYqXx8fEzuO/v4+HD58mVLlafJkfoSliTnn7ifyfkthLjfyYi4EEIIIYQQFiCBuBBCCCGEEBYggbgQQgghhBAWIIG4EEIIIYQQFiCBuBBCCCGEEBYggbgQQgghhBAWYBaIG43Gcr8lTwghhBBCCFF3zALxoqIi7O3tLVEWIYQQQgghmg2zQPz27duo1WpLlEUIIYQQQohmwywQz87OxsbGBmdnZ0uURwghhBBCiPues7MzNuVtyMzMxN3dHXt7e3JycigsLMRoNDZ0+YQQQgghhLhvqFQq7O3tUavV2NjYoPLx8akwwnZ2dqZVq1bY2dnJA5xCCCGEEELcA6PRSFFREbdv374zC6WynbOzs8nOzm6osgkhhBBCCNFsyDriQgghhBBCWIAE4kIIIYQQQliABOJCCCGEEEJYgATiQgghhBBCWMD/A6M522GCcgU8AAAAAElFTkSuQmCC;" vertex="1" parent="1">
          <mxGeometry x="70" y="10" width="738" height="666" as="geometry" />
        </mxCell>
      </root>
    </mxGraphModel>
  </diagram>
</mxfile>
